{
.formatVersion = 3;
axes = (
{
name = Weight;
tag = wght;
}
);
familyName = "Metropolis New";
customParameters = (
{
name = glyphOrder;
value = (
A,
Aacute,
Abreve,
Acircumflex,
Adieresis,
Agrave,
Amacron,
Aogonek,
Aring,
Atilde,
AE,
B,
C,
Cacute,
Ccaron,
Ccedilla,
D,
Eth,
Dcaron,
Dcroat,
E,
Eacute,
Ecaron,
Ecircumflex,
Edieresis,
Edotaccent,
Edotbelow,
Egrave,
Emacron,
Eogonek,
Etilde,
F,
G,
Gbreve,
Gcommaaccent,
H,
I,
Iacute,
Icircumflex,
Idieresis,
Idotaccent,
Igrave,
Imacron,
Iogonek,
J,
K,
Kcommaaccent,
L,
Lacute,
Lcaron,
Lslash,
M,
N,
Nacute,
Ncaron,
Ncommaaccent,
Ntilde,
O,
Oacute,
Ocircumflex,
Odieresis,
Ograve,
Ohungarumlaut,
Omacron,
Oslash,
Otilde,
OE,
P,
Thorn,
Q,
R,
Racute,
Rcaron,
Rcommaaccent,
S,
Sacute,
Scaron,
Scedilla,
T,
Tcaron,
Tcedilla,
U,
Uacute,
Ucircumflex,
Udieresis,
Ugrave,
Uhungarumlaut,
Umacron,
Uogonek,
Uring,
V,
W,
Wacute,
Wcircumflex,
Wdieresis,
Wgrave,
X,
Y,
Yacute,
Ycircumflex,
Ydieresis,
Ygrave,
Z,
Zacute,
Zcaron,
Zdotaccent,
ae,
b,
c,
cacute,
ccaron,
ccedilla,
d,
eth,
dcaron,
dcroat,
e,
eacute,
ecaron,
ecircumflex,
edieresis,
edotaccent,
edotbelow,
egrave,
emacron,
eogonek,
etilde,
f,
g,
gbreve,
gcommaaccent,
h,
i,
dotlessi,
iacute,
icircumflex,
idieresis,
igrave,
imacron,
iogonek,
j,
dotlessj,
k,
kcommaaccent,
l,
lacute,
lcaron,
lslash,
m,
n,
nacute,
ncaron,
ncommaaccent,
ntilde,
o,
oacute,
ocircumflex,
odieresis,
ograve,
ohungarumlaut,
omacron,
oslash,
otilde,
oe,
p,
thorn,
q,
r,
racute,
rcaron,
rcommaaccent,
s,
sacute,
scaron,
scedilla,
germandbls,
t,
tcaron,
tcedilla,
u,
uacute,
ucircumflex,
udieresis,
ugrave,
uhungarumlaut,
umacron,
uogonek,
uring,
v,
w,
wacute,
wcircumflex,
wdieresis,
wgrave,
x,
y,
yacute,
ycircumflex,
ydieresis,
ygrave,
z,
zacute,
zcaron,
zdotaccent,
a,
aacute,
abreve,
acircumflex,
adieresis,
agrave,
amacron,
aogonek,
aring,
atilde,
ae_upper,
k_arms,
thorn_stem,
zero,
one,
two,
three,
four,
five,
six,
seven,
eight,
nine,
period,
comma,
colon,
semicolon,
ellipsis,
exclam,
exclamdown,
question,

glyphs = (
{
color = 1;
glyphname = A;
layers = (
{
anchors = (
{
name = bottom;
position = "{696, 0}";
},
{
name = top;
position = "{609, 687}";
}
);
layerId = "9EC2A313-F861-4A0B-B22D-531AADAE0B73";
name = ItalicBlack.bubble;
shapes = (
{
closed = 1;
nodes = (
(713,0,l),
(722,687,l),
(222,687,l),
(-54,0,l)
);
}
);
width = 767;
},
{
anchors = (
{
name = bottom;
position = "{703, 0}";
},
{
name = top;
position = "{469, 687}";
}
);
layerId = "4574EF20-24B0-4ACA-8F83-7A663124D906";
shapes = (
{
closed = 1;
nodes = (
(541,82,l),
(570,255,l),
(151,255,l),
(122,82,l)
);
},
{
closed = 1;
nodes = (
(363,687,l),
(-44,0,l),
(179,0,l),
(585,687,l)
);
},
{
closed = 1;
nodes = (
(366,687,l),
(488,0,l),
(703,0,l),
(582,687,l)
);
}
);
width = 767;
},
{
anchors = (
{
name = bottom;
position = "{554, 0}";
},
{
name = top;
position = "{494, 687}";
}
);
layerId = "66606BEF-A73D-42AA-BCC4-03AD2ED94557";
associatedMasterId = "F208817E-C060-4D60-AB62-CCF376900793";
name = bubble;
shapes = (
{
closed = 1;
nodes = (
(731,0,l),
(710,687,l),
(251,687,l),
(-54,0,l)
);
}
);
width = 785;
},
{
anchors = (
{
name = bottom;
position = "{684, 0}";
},
{
name = top;
position = "{482, 687}";
}
);
layerId = "F208817E-C060-4D60-AB62-CCF376900793";
shapes = (
{
closed = 1;
nodes = (
(576,156,l),
(591,230,l),
(162,230,l),
(147,156,l)
);
},
{
closed = 1;
nodes = (
(439,687,l),
(-7,0,l),
(80,0,l),
(525,687,l)
);
},
{
closed = 1;
nodes = (
(440,687,l),
(601,0,l),
(684,0,l),
(524,687,l)
);
}
);
width = 785;
},
{
anchors = (
{
name = bottom;
position = "{607, 0}";
},
{
name = top;
position = "{427, 687}";
}
);
layerId = "E5262BFA-468F-43E5-B452-C67934931082";
name = ItalicThin.bubble;
shapes = (
{
closed = 1;
nodes = (
(740,0,l),
(715,687,l),
(258,687,l),
(-54,0,l)
);
}
);
width = 794;
},
{
anchors = (
{
name = bottom;
position = "{666, 0}";
},
{
name = top;
position = "{488, 687}";
}
);
layerId = "35051489-9DA7-4E90-8534-9CC313302D4A";
shapes = (
{
closed = 1;
nodes = (
(602,175,l),
(609,211,l),
(170,211,l),
(163,175,l)
);
},
{
closed = 1;
nodes = (
(466,687,l),
(20,0,l),
(61,0,l),
(507,687,l)
);
},
{
closed = 1;
nodes = (
(467,687,l),
(627,0,l),
(666,0,l),
(506,687,l)
);
}
);
width = 794;
}
);
leftKerningGroup = _R_A;
rightKerningGroup = _L_A;
unicode = 65;
},
{
color = 1;
glyphname = AE;
layers = (
{
anchors = (
{
name = bottom;
position = "{652, 0}";
}
);
layerId = "9EC2A313-F861-4A0B-B22D-531AADAE0B73";
name = ItalicBlack.bubble;
shapes = (
{
closed = 1;
nodes = (
(1011,0,l),
(1153,687,l),
(286,687,l),
(-54,0,l)
);
}
);
width = 1065;
},
{
anchors = (
{
name = bottom;
position = "{686, 0}";
}
);
layerId = "4574EF20-24B0-4ACA-8F83-7A663124D906";
shapes = (
{
closed = 1;
nodes = (
(181,0,l),
(253,92,l),
(424,92,l),
(405,0,l),
(958,0,l),
(994,173,l),
(636,173,l),
(654,264,l),
(981,264,l),
(1017,437,l),
(691,437,l),
(706,514,l),
(1065,514,l),
(1101,687,l),
(493,687,l),
(-47,0,l)
);
},
{
closed = 1;
nodes = (
(486,388,l),
(454,235,l),
(366,235,l)
);
}
);
width = 1065;
},
{
layerId = "66606BEF-A73D-42AA-BCC4-03AD2ED94557";
associatedMasterId = "F208817E-C060-4D60-AB62-CCF376900793";
name = bubble;
shapes = (
{
closed = 1;
nodes = (
(930,0,l),
(1073,687,l),
(310,687,l),
(-54,0,l)
);
}
);
width = 984;
},
{
anchors = (
{
name = bottom;
position = "{623, 0}";
}
);
layerId = "F208817E-C060-4D60-AB62-CCF376900793";
shapes = (
{
closed = 1;
nodes = (
(85,0,l),
(207,156,l),
(415,156,l),
(383,0,l),
(876,0,l),
(892,74,l),
(479,74,l),
(527,313,l),
(901,313,l),
(916,387,l),
(544,387,l),
(589,613,l),
(1004,613,l),
(1019,687,l),
(526,687,l),
(-8,0,l)
);
},
{
closed = 1;
nodes = (
(491,517,l),
(431,230,l),
(265,230,l)
);
}
);
width = 984;
},
{
anchors = (
{
name = bottom;
position = "{492, 0}";
}
);
layerId = "E5262BFA-468F-43E5-B452-C67934931082";
name = ItalicThin.bubble;
shapes = (
{
closed = 1;
nodes = (
(963,0,l),
(1105,687,l),
(385,687,l),
(-54,0,l)
);
}
);
width = 1017;
},
{
anchors = (
{
name = bottom;
position = "{667, 0}";
}
);
layerId = "35051489-9DA7-4E90-8534-9CC313302D4A";
shapes = (
{
closed = 1;
nodes = (
(62,0,l),
(199,175,l),
(472,175,l),
(436,0,l),
(887,0,l),
(895,36,l),
(480,36,l),
(541,332,l),
(926,332,l),
(933,368,l),
(549,368,l),
(607,651,l),
(1023,651,l),
(1030,687,l),
(559,687,l),
(19,0,l)
);
},
{
closed = 1;
nodes = (
(571,649,l),
(480,211,l),
(228,211,l)
);
}
);
width = 1017;
}
);
leftKerningGroup = _R_A;
rightKerningGroup = _L_E;
unicode = 198;
},
{
color = 1;
glyphname = B;
layers = (
{
layerId = "9EC2A313-F861-4A0B-B22D-531AADAE0B73";
name = ItalicBlack.bubble;
shapes = (
{
closed = 1;
nodes = (
(403,-24,ls),
(575,-24,o),
(700,73,o),
(700,209,cs),
(700,267,o),
(674,319,o),
(631,353,c),
(697,395,o),
(736,461,o),
(736,534,cs),
(736,638,o),
(646,711,o),
(519,711,cs),
(94,711,l),
(-59,-24,l)
);
}
);
width = 715;
},
{
layerId = "4574EF20-24B0-4ACA-8F83-7A663124D906";
shapes = (
{
closed = 1;
nodes = (
(403,0,ls),
(547,0,o),
(676,76,o),
(676,209,cs),
(676,274,o),
(640,328,o),
(583,354,c),
(660,388,o),
(712,455,o),
(712,534,cs),
(712,623,o),
(635,687,o),
(519,687,cs),
(155,687,l),
(12,0,l)
);
},
{
closed = 1;
nodes = (
(262,273,l),
(427,273,ls),
(469,273,o),
(486,263,o),
(486,239,cs),
(486,194,o),
(447,163,o),
(392,163,cs),
(239,163,l)
);
},
{
closed = 1;
nodes = (
(314,524,l),
(451,524,ls),
(490,524,o),
(506,515,o),
(507,493,c),
(507,450,o),
(470,420,o),
(417,420,cs),
(293,420,l)
);
}
);
width = 715;
},
{
layerId = "66606BEF-A73D-42AA-BCC4-03AD2ED94557";
associatedMasterId = "F208817E-C060-4D60-AB62-CCF376900793";
name = bubble;
shapes = (
{
closed = 1;
nodes = (
(354,-51,ls),
(514,-51,o),
(648,72,o),
(648,220,cs),
(648,268,o),
(627,318,o),
(592,357,c),
(654,408,o),
(690,475,o),
(690,547,cs),
(690,658,o),
(601,738,o),
(480,738,cs),
(101,738,l),
(-64,-51,l)
);
}
);
width = 661;
},
{
layerId = "F208817E-C060-4D60-AB62-CCF376900793";
shapes = (
{
closed = 1;
nodes = (
(354,0,ls),
(486,0,o),
(597,101,o),
(597,220,cs),
(597,273,o),
(559,332,o),
(506,362,c),
(590,405,o),
(639,474,o),
(639,547,cs),
(639,629,o),
(573,687,o),
(480,687,cs),
(167,687,l),
(24,0,l)
);
},
{
closed = 1;
nodes = (
(170,325,l),
(402,325,ls),
(472,325,o),
(522,285,o),
(522,229,cs),
(522,143,o),
(440,71,o),
(343,71,cs),
(117,71,l)
);
},
{
closed = 1;
nodes = (
(231,616,l),
(450,616,ls),
(513,616,o),
(558,582,o),
(558,533,cs),
(558,459,o),
(485,396,o),
(399,396,cs),
(185,396,l)
);
}
);
width = 661;
},
{
layerId = "E5262BFA-468F-43E5-B452-C67934931082";
name = ItalicThin.bubble;
shapes = (
{
closed = 1;
nodes = (
(345,-75,ls),
(519,-75,o),
(665,60,o),
(665,221,cs),
(665,270,o),
(650,316,o),
(624,352,c),
(674,405,o),
(706,478,o),
(706,550,cs),
(706,675,o),
(610,762,o),
(473,762,cs),
(105,762,l),
(-69,-75,l)
);
}
);
width = 678;
},
{
layerId = "35051489-9DA7-4E90-8534-9CC313302D4A";
shapes = (
{
closed = 1;
nodes = (
(344,0,ls),
(474,0,o),
(589,99,o),
(589,221,cs),
(589,284,o),
(554,338,o),
(498,357,c),
(572,381,o),
(630,471,o),
(630,550,cs),
(630,632,o),
(569,687,o),
(472,687,cs),
(186,687,l),
(43,0,l)
);
},
{
closed = 1;
nodes = (
(150,340,l),
(415,340,ls),
(501,340,o),
(553,293,o),
(553,223,cs),
(553,120,o),
(460,36,o),
(348,36,cs),
(87,36,l)
);
},
{
closed = 1;
nodes = (
(215,651,l),
(467,651,ls),
(545,651,o),
(594,609,o),
(594,548,cs),
(594,458,o),
(516,376,o),
(419,376,cs),
(158,376,l)
);
}
);
width = 678;
}
);
leftKerningGroup = _R_B;
rightKerningGroup = _L_B;
unicode = 66;
},
{
color = 1;
glyphname = C;
layers = (
{
anchors = (
{
name = bottom;
position = "{340, 0}";
},
{
name = top;
position = "{480, 687}";
}
);
layerId = "9EC2A313-F861-4A0B-B22D-531AADAE0B73";
name = ItalicBlack.bubble;
shapes = (
{
closed = 1;
nodes = (
(481,-35,o),
(646,40,o),
(713,141,c),
(643,18,l),
(761,585,l),
(697,670,o),
(586,722,o),
(469,722,cs),
(233,722,o),
(16,520,o),
(16,298,cs),
(16,113,o),
(166,-35,o),
(352,-35,cs)
);
}
);
width = 693;
},
{
anchors = (
{
name = bottom;
position = "{340, 0}";
},
{
name = top;
position = "{480, 687}";
}
);
layerId = "4574EF20-24B0-4ACA-8F83-7A663124D906";
shapes = (
{
closed = 1;
nodes = (
(453,-12,o),
(574,36,o),
(650,104,c),
(527,240,l),
(485,195,o),
(418,164,o),
(367,164,cs),
(301,164,o),
(236,215,o),
(236,302,cs),
(236,414,o),
(345,523,o),
(460,523,cs),
(517,523,o),
(559,496,o),
(581,459,c),
(741,573,l),
(686,645,o),
(587,699,o),
(469,699,cs),
(246,699,o),
(39,508,o),
(39,298,cs),
(39,123,o),
(182,-12,o),
(352,-12,cs)
);
}
);
width = 693;
},
{
anchors = (
{
name = bottom;
position = "{356, 0}";
},
{
name = top;
position = "{496, 687}";
}
);
layerId = "66606BEF-A73D-42AA-BCC4-03AD2ED94557";
associatedMasterId = "F208817E-C060-4D60-AB62-CCF376900793";
name = bubble;
shapes = (
{
closed = 1;
nodes = (
(14,92,o),
(168,-65,o),
(354,-65,cs),
(451,-65,o),
(580,-14,o),
(662,57,c),
(777,608,l),
(720,692,o),
(605,752,o),
(502,752,cs),
(237,752,o),
(14,537,o),
(14,280,cs)
);
}
);
width = 704;
},
{
anchors = (
{
name = bottom;
position = "{356, 0}";
},
{
name = top;
position = "{496, 687}";
}
);
layerId = "F208817E-C060-4D60-AB62-CCF376900793";
shapes = (
{
closed = 1;
nodes = (
(437,-12,o),
(548,31,o),
(621,91,c),
(576,149,l),
(517,97,o),
(431,60,o),
(368,60,cs),
(247,60,o),
(145,161,o),
(145,280,cs),
(145,468,o),
(301,627,o),
(487,627,cs),
(553,627,o),
(625,592,o),
(662,542,c),
(723,592,l),
(673,655,o),
(582,699,o),
(502,699,cs),
(266,699,o),
(67,507,o),
(67,280,cs),
(67,121,o),
(198,-12,o),
(354,-12,cs)
);
}
);
width = 704;
},
{
anchors = (
{
name = bottom;
position = "{374, 0}";
},
{
name = top;
position = "{513, 687}";
}
);
layerId = "E5262BFA-468F-43E5-B452-C67934931082";
name = ItalicThin.bubble;
shapes = (
{
closed = 1;
nodes = (
(485,-88,o),
(622,-34,o),
(711,47,c),
(828,612,l),
(761,716,o),
(642,775,o),
(511,775,cs),
(252,775,o),
(15,542,o),
(15,286,cs),
(15,78,o),
(176,-88,o),
(376,-88,cs)
);
}
);
width = 755;
},
{
anchors = (
{
name = bottom;
position = "{374, 0}";
},
{
name = top;
position = "{513, 687}";
}
);
layerId = "35051489-9DA7-4E90-8534-9CC313302D4A";
shapes = (
{
closed = 1;
nodes = (
(466,-12,o),
(574,33,o),
(646,92,c),
(623,120,l),
(557,64,o),
(458,24,o),
(378,24,cs),
(246,24,o),
(127,134,o),
(127,289,cs),
(127,481,o),
(311,663,o),
(510,663,cs),
(604,663,o),
(677,622,o),
(719,570,c),
(748,593,l),
(697,655,o),
(613,699,o),
(511,699,cs),
(293,699,o),
(91,499,o),
(91,286,cs),
(91,110,o),
(228,-12,o),
(376,-12,cs)
);
}
);
width = 755;
}
);
leftKerningGroup = _R_C;
rightKerningGroup = _L_C;
unicode = 67;
},
{
color = 1;
glyphname = D;
layers = (
{
anchors = (
{
name = top;
position = "{405, 687}";
}
);
layerId = "9EC2A313-F861-4A0B-B22D-531AADAE0B73";
name = ItalicBlack.bubble;
shapes = (
{
closed = 1;
nodes = (
(275,-22,ls),
(548,-22,o),
(777,170,o),
(777,400,cs),
(777,581,o),
(622,709,o),
(405,709,cs),
(94,709,l),
(-58,-22,l)
);
}
);
width = 755;
},
{
anchors = (
{
name = top;
position = "{405, 687}";
}
);
layerId = "4574EF20-24B0-4ACA-8F83-7A663124D906";
shapes = (
{
closed = 1;
nodes = (
(275,0,ls),
(536,0,o),
(755,183,o),
(755,400,cs),
(755,568,o),
(610,687,o),
(405,687,cs),
(155,687,l),
(12,0,l)
);
},
{
closed = 1;
nodes = (
(313,511,l),
(413,511,ls),
(497,511,o),
(557,462,o),
(557,393,cs),
(557,275,o),
(454,176,o),
(331,176,cs),
(243,176,l)
);
}
);
width = 755;
},
{
anchors = (
{
name = top;
position = "{397, 687}";
}
);
layerId = "66606BEF-A73D-42AA-BCC4-03AD2ED94557";
associatedMasterId = "F208817E-C060-4D60-AB62-CCF376900793";
name = bubble;
shapes = (
{
closed = 1;
nodes = (
(259,-53,ls),
(531,-53,o),
(760,160,o),
(760,414,cs),
(760,604,o),
(608,740,o),
(397,740,cs),
(100,740,l),
(-65,-53,l)
);
}
);
width = 737;
},
{
anchors = (
{
name = top;
position = "{397, 687}";
}
);
layerId = "F208817E-C060-4D60-AB62-CCF376900793";
shapes = (
{
closed = 1;
nodes = (
(259,0,ls),
(502,0,o),
(707,189,o),
(707,414,cs),
(707,574,o),
(579,687,o),
(397,687,cs),
(167,687,l),
(24,0,l)
);
},
{
closed = 1;
nodes = (
(231,616,l),
(387,616,ls),
(528,616,o),
(628,530,o),
(628,409,cs),
(628,226,o),
(463,71,o),
(268,71,cs),
(117,71,l)
);
}
);
width = 737;
},
{
anchors = (
{
name = top;
position = "{420, 687}";
}
);
layerId = "E5262BFA-468F-43E5-B452-C67934931082";
name = ItalicThin.bubble;
shapes = (
{
closed = 1;
nodes = (
(280,-77,ls),
(556,-77,o),
(787,150,o),
(787,421,cs),
(787,620,o),
(632,764,o),
(420,764,cs),
(105,764,l),
(-70,-77,l)
);
}
);
width = 763;
},
{
anchors = (
{
name = top;
position = "{420, 687}";
}
);
layerId = "35051489-9DA7-4E90-8534-9CC313302D4A";
shapes = (
{
closed = 1;
nodes = (
(280,0,ls),
(513,0,o),
(710,192,o),
(710,421,cs),
(710,577,o),
(590,687,o),
(420,687,cs),
(186,687,l),
(43,0,l)
);
},
{
closed = 1;
nodes = (
(215,651,l),
(415,651,ls),
(567,651,o),
(674,554,o),
(674,416,cs),
(674,210,o),
(496,36,o),
(284,36,cs),
(87,36,l)
);
}
);
width = 763;
}
);
leftKerningGroup = _R_D;
rightKerningGroup = _L_D;
unicode = 68;
},
{
color = 1;
glyphname = Eth;
layers = (
{
layerId = "9EC2A313-F861-4A0B-B22D-531AADAE0B73";
name = ItalicBlack.bubble;
shapes = (
{
closed = 1;
nodes = (
(314,-22,ls),
(587,-22,o),
(816,170,o),
(816,400,cs),
(816,581,o),
(661,709,o),
(444,709,cs),
(94,709,l),
(-58,-22,l)
);
}
);
width = 794;
},
{
layerId = "4574EF20-24B0-4ACA-8F83-7A663124D906";
shapes = (
{
closed = 1;
nodes = (
(418,258,l),
(455,431,l),
(56,431,l),
(20,258,l)
);
},
{
closed = 1;
nodes = (
(314,0,ls),
(575,0,o),
(794,183,o),
(794,400,cs),
(794,568,o),
(649,687,o),
(444,687,cs),
(194,687,l),
(51,0,l)
);
},
{
closed = 1;
nodes = (
(352,511,l),
(452,511,ls),
(536,511,o),
(596,462,o),
(596,393,cs),
(596,275,o),
(493,176,o),
(370,176,cs),
(282,176,l)
);
}
);
width = 794;
},
{
layerId = "66606BEF-A73D-42AA-BCC4-03AD2ED94557";
associatedMasterId = "F208817E-C060-4D60-AB62-CCF376900793";
name = bubble;
shapes = (
{
closed = 1;
nodes = (
(282,-53,ls),
(554,-53,o),
(783,160,o),
(783,414,cs),
(783,604,o),
(631,740,o),
(420,740,cs),
(100,740,l),
(-65,-53,l)
);
}
);
width = 760;
},
{
layerId = "F208817E-C060-4D60-AB62-CCF376900793";
shapes = (
{
closed = 1;
nodes = (
(409,313,l),
(425,387,l),
(76,387,l),
(61,313,l)
);
},
{
closed = 1;
nodes = (
(282,0,ls),
(525,0,o),
(730,189,o),
(730,414,cs),
(730,574,o),
(602,687,o),
(420,687,cs),
(190,687,l),
(47,0,l)
);
},
{
closed = 1;
nodes = (
(254,616,l),
(410,616,ls),
(551,616,o),
(651,530,o),
(651,409,cs),
(651,226,o),
(486,71,o),
(291,71,cs),
(140,71,l)
);
}
);
width = 760;
},
{
layerId = "E5262BFA-468F-43E5-B452-C67934931082";
name = ItalicThin.bubble;
shapes = (
{
closed = 1;
nodes = (
(345,-77,ls),
(621,-77,o),
(852,150,o),
(852,421,cs),
(852,620,o),
(697,764,o),
(485,764,cs),
(105,764,l),
(-70,-77,l)
);
}
);
width = 828;
},
{
layerId = "35051489-9DA7-4E90-8534-9CC313302D4A";
shapes = (
{
closed = 1;
nodes = (
(438,332,l),
(446,368,l),
(97,368,l),
(90,332,l)
);
},
{
closed = 1;
nodes = (
(345,0,ls),
(578,0,o),
(775,192,o),
(775,421,cs),
(775,577,o),
(655,687,o),
(485,687,cs),
(251,687,l),
(108,0,l)
);
},
{
closed = 1;
nodes = (
(280,651,l),
(480,651,ls),
(632,651,o),
(739,554,o),
(739,416,cs),
(739,210,o),
(561,36,o),
(349,36,cs),
(152,36,l)
);
}
);
width = 828;
}
);
leftKerningGroup = _R_Eth;
rightKerningGroup = _L_D;
unicode = 208;
},
{
color = 1;
glyphname = E;
layers = (
{
anchors = (
{
name = ae_upper;
position = "{155, 687}";
},
{
name = bottom;
position = "{565, 0}";
},
{
name = top;
position = "{428, 687}";
}
);
layerId = "9EC2A313-F861-4A0B-B22D-531AADAE0B73";
name = ItalicBlack.bubble;
shapes = (
{
closed = 1;
nodes = (
(618,0,l),
(761,687,l),
(89,687,l),
(-54,0,l)
);
}
);
width = 672;
},
{
anchors = (
{
name = ae_upper;
position = "{155, 687}";
},
{
name = bottom;
position = "{565, 0}";
},
{
name = top;
position = "{428, 687}";
}
);
layerId = "4574EF20-24B0-4ACA-8F83-7A663124D906";
shapes = (
{
closed = 1;
nodes = (
(565,0,l),
(601,173,l),
(150,173,l),
(220,54,l),
(274,333,l),
(165,264,l),
(588,264,l),
(624,437,l),
(204,437,l),
(285,367,l),
(336,633,l),
(216,514,l),
(672,514,l),
(708,687,l),
(155,687,l),
(12,0,l)
);
}
);
width = 672;
},
{
anchors = (
{
name = ae_upper;
position = "{167, 687}";
},
{
name = bottom;
position = "{517, 0}";
},
{
name = top;
position = "{419, 687}";
}
);
layerId = "66606BEF-A73D-42AA-BCC4-03AD2ED94557";
associatedMasterId = "F208817E-C060-4D60-AB62-CCF376900793";
name = bubble;
shapes = (
{
closed = 1;
nodes = (
(571,0,l),
(714,687,l),
(89,687,l),
(-54,0,l)
);
}
);
width = 625;
},
{
anchors = (
{
name = ae_upper;
position = "{167, 687}";
},
{
name = bottom;
position = "{517, 0}";
},
{
name = top;
position = "{419, 687}";
}
);
layerId = "F208817E-C060-4D60-AB62-CCF376900793";
shapes = (
{
closed = 1;
nodes = (
(517,0,l),
(533,74,l),
(100,74,l),
(116,54,l),
(172,333,l),
(148,313,l),
(542,313,l),
(557,387,l),
(165,387,l),
(181,367,l),
(234,633,l),
(210,613,l),
(645,613,l),
(660,687,l),
(167,687,l),
(24,0,l)
);
}
);
width = 625;
},
{
anchors = (
{
name = ae_upper;
position = "{186, 687}";
},
{
name = bottom;
position = "{494, 0}";
},
{
name = top;
position = "{414, 687}";
}
);
layerId = "E5262BFA-468F-43E5-B452-C67934931082";
name = ItalicThin.bubble;
shapes = (
{
closed = 1;
nodes = (
(570,0,l),
(713,687,l),
(89,687,l),
(-54,0,l)
);
}
);
width = 624;
},
{
anchors = (
{
name = ae_upper;
position = "{186, 687}";
},
{
name = bottom;
position = "{494, 0}";
},
{
name = top;
position = "{414, 687}";
}
);
layerId = "35051489-9DA7-4E90-8534-9CC313302D4A";
shapes = (
{
closed = 1;
nodes = (
(494,0,l),
(502,36,l),
(78,36,l),
(85,26,l),
(150,342,l),
(139,332,l),
(533,332,l),
(540,368,l),
(148,368,l),
(154,358,l),
(216,661,l),
(205,651,l),
(630,651,l),
(637,687,l),
(186,687,l),
(43,0,l)
);
}
);
width = 624;
}
);
leftKerningGroup = _R_E;
rightKerningGroup = _L_E;
unicode = 69;
},
{
color = 1;
glyphname = F;
layers = (
{
layerId = "9EC2A313-F861-4A0B-B22D-531AADAE0B73";
name = ItalicBlack.bubble;
shapes = (
{
closed = 1;
nodes = (
(229,0,l),
(274,222,l),
(643,222,l),
(740,687,l),
(89,687,l),
(-54,0,l)
);
}
);
width = 651;
},
{
layerId = "4574EF20-24B0-4ACA-8F83-7A663124D906";
shapes = (
{
closed = 1;
nodes = (
(206,0,l),
(270,313,l),
(160,244,l),
(584,244,l),
(620,417,l),
(200,417,l),
(280,347,l),
(336,633,l),
(216,514,l),
(672,514,l),
(708,687,l),
(155,687,l),
(12,0,l)
);
}
);
width = 651;
},
{
layerId = "66606BEF-A73D-42AA-BCC4-03AD2ED94557";
associatedMasterId = "F208817E-C060-4D60-AB62-CCF376900793";
name = bubble;
shapes = (
{
closed = 1;
nodes = (
(158,0,l),
(214,260,l),
(620,260,l),
(709,687,l),
(89,687,l),
(-54,0,l)
);
}
);
width = 620;
},
{
layerId = "F208817E-C060-4D60-AB62-CCF376900793";
shapes = (
{
closed = 1;
nodes = (
(103,0,l),
(172,333,l),
(148,313,l),
(542,313,l),
(557,387,l),
(165,387,l),
(181,367,l),
(234,633,l),
(210,613,l),
(645,613,l),
(660,687,l),
(167,687,l),
(24,0,l)
);
}
);
width = 620;
},
{
layerId = "E5262BFA-468F-43E5-B452-C67934931082";
name = ItalicThin.bubble;
shapes = (
{
closed = 1;
nodes = (
(-54,0,l),
(159,0,l),
(212,255,l),
(641,255,l),
(731,687,l),
(89,687,l)
);
}
);
width = 642;
},
{
layerId = "35051489-9DA7-4E90-8534-9CC313302D4A";
shapes = (
{
closed = 1;
nodes = (
(79,0,l),
(150,342,l),
(138,332,l),
(543,332,l),
(550,368,l),
(147,368,l),
(154,358,l),
(216,661,l),
(204,651,l),
(650,651,l),
(657,687,l),
(186,687,l),
(43,0,l)
);
}
);
width = 642;
}
);
leftKerningGroup = _R_F;
rightKerningGroup = _L_F;
unicode = 70;
},
{
color = 1;
glyphname = G;
layers = (
{
anchors = (
{
name = bottom;
position = "{262, 0}";
},
{
name = top;
position = "{535, 687}";
}
);
layerId = "9EC2A313-F861-4A0B-B22D-531AADAE0B73";
name = ItalicBlack.bubble;
shapes = (
{
closed = 1;
nodes = (
(14,105,o),
(164,-34,o),
(359,-34,cs),
(481,-34,o),
(608,20,o),
(697,110,c),
(789,553,l),
(731,658,o),
(613,721,o),
(482,721,cs),
(241,721,o),
(14,514,o),
(14,290,cs)
);
}
);
width = 728;
},
{
anchors = (
{
name = bottom;
position = "{354, 0}";
},
{
name = top;
position = "{484, 687}";
}
);
layerId = "4574EF20-24B0-4ACA-8F83-7A663124D906";
shapes = (
{
closed = 1;
nodes = (
(461,-12,o),
(572,27,o),
(659,104,c),
(536,240,l),
(493,196,o),
(432,164,o),
(371,164,cs),
(291,164,o),
(235,221,o),
(235,296,cs),
(235,405,o),
(352,523,o),
(471,523,cs),
(519,523,o),
(565,503,o),
(590,459,c),
(750,573,l),
(693,649,o),
(597,699,o),
(482,699,cs),
(263,699,o),
(38,511,o),
(38,290,cs),
(38,121,o),
(172,-12,o),
(359,-12,cs)
);
},
{
closed = 1;
nodes = (
(659,104,l),
(720,396,l),
(398,396,l),
(368,253,l),
(529,253,l),
(506,282,l),
(471,104,l)
);
}
);
width = 728;
},
{
anchors = (
{
name = bottom;
position = "{302, 0}";
},
{
name = top;
position = "{585, 687}";
}
);
layerId = "66606BEF-A73D-42AA-BCC4-03AD2ED94557";
associatedMasterId = "F208817E-C060-4D60-AB62-CCF376900793";
name = bubble;
shapes = (
{
closed = 1;
nodes = (
(464,-68,o),
(601,-14,o),
(687,69,c),
(799,612,l),
(748,696,o),
(630,755,o),
(506,755,cs),
(287,755,o),
(65,570,o),
(19,350,cs),
(-28,123,o),
(122,-68,o),
(346,-68,cs)
);
}
);
width = 726;
},
{
anchors = (
{
name = bottom;
position = "{353, 0}";
},
{
name = top;
position = "{493, 687}";
}
);
layerId = "F208817E-C060-4D60-AB62-CCF376900793";
shapes = (
{
closed = 1;
nodes = (
(443,-12,o),
(558,31,o),
(631,91,c),
(586,149,l),
(527,97,o),
(437,60,o),
(368,60,cs),
(247,60,o),
(145,161,o),
(145,280,cs),
(145,468,o),
(301,627,o),
(487,627,cs),
(559,627,o),
(635,592,o),
(672,542,c),
(733,592,l),
(683,655,o),
(588,699,o),
(502,699,cs),
(266,699,o),
(67,507,o),
(67,280,cs),
(67,121,o),
(198,-12,o),
(354,-12,cs)
);
},
{
closed = 1;
nodes = (
(631,91,l),
(687,360,l),
(412,360,l),
(396,286,l),
(624,286,l),
(601,327,l),
(553,91,l)
);
}
);
width = 726;
},
{
anchors = (
{
name = bottom;
position = "{249, 0}";
},
{
name = top;
position = "{532, 687}";
}
);
layerId = "E5262BFA-468F-43E5-B452-C67934931082";
name = ItalicThin.bubble;
shapes = (
{
closed = 1;
nodes = (
(12,67,o),
(169,-89,o),
(377,-89,cs),
(498,-89,o),
(630,-37,o),
(734,49,c),
(852,612,l),
(779,718,o),
(656,776,o),
(519,776,cs),
(258,776,o),
(12,533,o),
(12,275,cs)
);
}
);
width = 778;
},
{
anchors = (
{
name = bottom;
position = "{377, 0}";
},
{
name = top;
position = "{517, 687}";
}
);
layerId = "35051489-9DA7-4E90-8534-9CC313302D4A";
shapes = (
{
closed = 1;
nodes = (
(477,-12,o),
(579,27,o),
(661,90,c),
(639,117,l),
(565,60,o),
(472,24,o),
(379,24,cs),
(229,24,o),
(125,135,o),
(125,279,cs),
(125,475,o),
(321,663,o),
(517,663,cs),
(608,663,o),
(685,629,o),
(736,572,c),
(765,596,l),
(708,659,o),
(622,699,o),
(519,699,cs),
(302,699,o),
(89,492,o),
(89,275,cs),
(89,113,o),
(208,-12,o),
(377,-12,cs)
);
},
{
closed = 1;
nodes = (
(661,90,l),
(713,340,l),
(438,340,l),
(431,304,l),
(684,304,l),
(673,324,l),
(625,90,l)
);
}
);
width = 778;
}
);
leftKerningGroup = _R_G;
rightKerningGroup = _L_G;
unicode = 71;
},
{
color = 1;
glyphname = H;
layers = (
{
layerId = "9EC2A313-F861-4A0B-B22D-531AADAE0B73";
name = ItalicBlack.bubble;
shapes = (
{
closed = 1;
nodes = (
(717,0,l),
(860,687,l),
(89,687,l),
(-54,0,l)
);
}
);
width = 771;
},
{
layerId = "4574EF20-24B0-4ACA-8F83-7A663124D906";
shapes = (
{
closed = 1;
nodes = (
(206,0,l),
(270,315,l),
(212,264,l),
(556,264,l),
(521,315,l),
(458,0,l),
(651,0,l),
(794,687,l),
(600,687,l),
(540,385,l),
(599,437,l),
(253,437,l),
(289,385,l),
(349,687,l),
(155,687,l),
(12,0,l)
);
}
);
width = 771;
},
{
layerId = "66606BEF-A73D-42AA-BCC4-03AD2ED94557";
associatedMasterId = "F208817E-C060-4D60-AB62-CCF376900793";
name = bubble;
shapes = (
{
closed = 1;
nodes = (
(663,0,l),
(806,687,l),
(89,687,l),
(-54,0,l)
);
}
);
width = 717;
},
{
layerId = "F208817E-C060-4D60-AB62-CCF376900793";
shapes = (
{
closed = 1;
nodes = (
(102,0,l),
(171,335,l),
(145,313,l),
(593,313,l),
(576,335,l),
(507,0,l),
(585,0,l),
(728,687,l),
(650,687,l),
(584,365,l),
(611,387,l),
(162,387,l),
(179,365,l),
(245,687,l),
(167,687,l),
(24,0,l)
);
}
);
width = 717;
},
{
layerId = "E5262BFA-468F-43E5-B452-C67934931082";
name = ItalicThin.bubble;
shapes = (
{
closed = 1;
nodes = (
(659,0,l),
(802,687,l),
(89,687,l),
(-54,0,l)
);
}
);
width = 713;
},
{
layerId = "35051489-9DA7-4E90-8534-9CC313302D4A";
shapes = (
{
closed = 1;
nodes = (
(79,0,l),
(151,343,l),
(147,332,l),
(596,332,l),
(598,343,l),
(526,0,l),
(562,0,l),
(705,687,l),
(669,687,l),
(601,357,l),
(604,368,l),
(155,368,l),
(154,357,l),
(222,687,l),
(186,687,l),
(43,0,l)
);
}
);
width = 713;
}
);
leftKerningGroup = _R_H;
rightKerningGroup = _L_H;
unicode = 72;
},
{
color = 1;
glyphname = I;
layers = (
{
anchors = (
{
name = bottom;
position = "{212, 0}";
},
{
name = top;
position = "{255, 687}";
}
);
layerId = "9EC2A313-F861-4A0B-B22D-531AADAE0B73";
name = ItalicBlack.bubble;
shapes = (
{
closed = 1;
nodes = (
(271,0,l),
(415,687,l),
(90,687,l),
(-54,0,l)
);
}
);
width = 326;
},
{
anchors = (
{
name = bottom;
position = "{206, 0}";
},
{
name = top;
position = "{252, 687}";
}
);
layerId = "4574EF20-24B0-4ACA-8F83-7A663124D906";
shapes = (
{
closed = 1;
nodes = (
(206,0,l),
(349,687,l),
(155,687,l),
(12,0,l)
);
}
);
width = 326;
},
{
anchors = (
{
name = bottom;
position = "{133, 0}";
},
{
name = top;
position = "{237, 687}";
}
);
layerId = "66606BEF-A73D-42AA-BCC4-03AD2ED94557";
associatedMasterId = "F208817E-C060-4D60-AB62-CCF376900793";
name = bubble;
shapes = (
{
closed = 1;
nodes = (
(180,0,l),
(323,687,l),
(89,687,l),
(-54,0,l)
);
}
);
width = 234;
},
{
anchors = (
{
name = bottom;
position = "{102, 0}";
},
{
name = top;
position = "{206, 687}";
}
);
layerId = "F208817E-C060-4D60-AB62-CCF376900793";
shapes = (
{
closed = 1;
nodes = (
(102,0,l),
(245,687,l),
(167,687,l),
(24,0,l)
);
}
);
width = 234;
},
{
anchors = (
{
name = bottom;
position = "{108, 0}";
},
{
name = top;
position = "{233, 687}";
}
);
layerId = "E5262BFA-468F-43E5-B452-C67934931082";
name = ItalicThin.bubble;
shapes = (
{
closed = 1;
nodes = (
(176,0,l),
(319,687,l),
(90,687,l),
(-53,0,l)
);
}
);
width = 230;
},
{
anchors = (
{
name = bottom;
position = "{79, 0}";
},
{
name = top;
position = "{204, 687}";
}
);
layerId = "35051489-9DA7-4E90-8534-9CC313302D4A";
shapes = (
{
closed = 1;
nodes = (
(79,0,l),
(222,687,l),
(186,687,l),
(43,0,l)
);
}
);
width = 230;
}
);
leftKerningGroup = _R_I;
rightKerningGroup = _L_I;
unicode = 73;
},
{
color = 1;
glyphname = J;
layers = (
{
layerId = "9EC2A313-F861-4A0B-B22D-531AADAE0B73";
name = ItalicBlack.bubble;
shapes = (
{
closed = 1;
nodes = (
(-69,76,l),
(-19,-8,o),
(90,-65,o),
(201,-65,cs),
(368,-65,o),
(504,45,o),
(537,205,cs),
(637,687,l),
(335,687,l),
(247,263,ls),
(242,239,o),
(214,217,o),
(187,217,cs),
(172,217,o),
(160,233,o),
(169,257,c)
);
}
);
width = 548;
},
{
layerId = "4574EF20-24B0-4ACA-8F83-7A663124D906";
shapes = (
{
closed = 1;
nodes = (
(341,-12,o),
(457,78,o),
(485,216,cs),
(583,687,l),
(389,687,l),
(299,252,ls),
(289,205,o),
(240,164,o),
(187,164,cs),
(158,164,o),
(127,182,o),
(116,217,c),
(-27,108,l),
(10,41,o),
(102,-12,o),
(201,-12,cs)
);
}
);
width = 548;
},
{
layerId = "66606BEF-A73D-42AA-BCC4-03AD2ED94557";
associatedMasterId = "F208817E-C060-4D60-AB62-CCF376900793";
name = bubble;
shapes = (
{
closed = 1;
nodes = (
(359,-81,o),
(497,38,o),
(533,207,cs),
(633,687,l),
(414,687,l),
(321,241,ls),
(308,174,o),
(262,128,o),
(214,128,cs),
(175,128,o),
(140,156,o),
(129,192,c),
(-41,62,l),
(4,-24,o),
(99,-81,o),
(200,-81,cs)
);
}
);
width = 544;
},
{
layerId = "F208817E-C060-4D60-AB62-CCF376900793";
shapes = (
{
closed = 1;
nodes = (
(327,-12,o),
(436,85,o),
(465,221,cs),
(562,687,l),
(484,687,l),
(389,227,ls),
(369,129,o),
(296,59,o),
(214,59,cs),
(150,59,o),
(95,99,o),
(80,155,c),
(14,105,l),
(44,36,o),
(121,-12,o),
(200,-12,cs)
);
}
);
width = 544;
},
{
layerId = "E5262BFA-468F-43E5-B452-C67934931082";
name = ItalicThin.bubble;
shapes = (
{
closed = 1;
nodes = (
(383,-101,o),
(521,22,o),
(558,195,cs),
(659,687,l),
(442,687,l),
(348,233,ls),
(333,162,o),
(280,113,o),
(223,113,cs),
(178,113,o),
(146,147,o),
(140,202,c),
(-25,37,l),
(25,-48,o),
(118,-101,o),
(221,-101,cs)
);
}
);
width = 571;
},
{
layerId = "35051489-9DA7-4E90-8534-9CC313302D4A";
shapes = (
{
closed = 1;
nodes = (
(340,-12,o),
(443,81,o),
(471,213,cs),
(569,687,l),
(533,687,l),
(435,215,ls),
(412,104,o),
(324,24,o),
(223,24,cs),
(152,24,o),
(94,67,o),
(67,129,c),
(41,103,l),
(70,36,o),
(137,-12,o),
(221,-12,cs)
);
}
);
width = 571;
}
);
leftKerningGroup = _R_J;
rightKerningGroup = _L_J;
unicode = 74;
},
{
color = 1;
glyphname = K;
layers = (
{
anchors = (
{
name = bottom;
position = "{330, 0}";
}
);
layerId = "9EC2A313-F861-4A0B-B22D-531AADAE0B73";
name = ItalicBlack.bubble;
shapes = (
{
closed = 1;
nodes = (
(690,0,l),
(690,423,l),
(833,687,l),
(89,687,l),
(-54,0,l)
);
}
);
width = 744;
},
{
anchors = (
{
name = bottom;
position = "{330, 0}";
}
);
layerId = "4574EF20-24B0-4ACA-8F83-7A663124D906";
shapes = (
{
closed = 1;
nodes = (
(206,0,l),
(247,182,l),
(336,260,l),
(457,0,l),
(678,0,l),
(491,395,l),
(812,687,l),
(565,687,l),
(297,444,l),
(349,687,l),
(155,687,l),
(12,0,l)
);
}
);
width = 744;
},
{
anchors = (
{
name = bottom;
position = "{279, 0}";
}
);
layerId = "66606BEF-A73D-42AA-BCC4-03AD2ED94557";
associatedMasterId = "F208817E-C060-4D60-AB62-CCF376900793";
name = bubble;
shapes = (
{
closed = 1;
nodes = (
(617,0,l),
(617,406,l),
(760,687,l),
(89,687,l),
(-54,0,l)
);
}
);
width = 671;
},
{
anchors = (
{
name = bottom;
position = "{279, 0}";
}
);
layerId = "F208817E-C060-4D60-AB62-CCF376900793";
shapes = (
{
closed = 1;
nodes = (
(102,0,l),
(146,206,l),
(279,320,l),
(473,0,l),
(571,0,l),
(342,373,l),
(697,687,l),
(592,687,l),
(165,307,l),
(245,687,l),
(167,687,l),
(24,0,l)
);
}
);
width = 671;
},
{
anchors = (
{
name = bottom;
position = "{279, 0}";
}
);
layerId = "E5262BFA-468F-43E5-B452-C67934931082";
name = ItalicThin.bubble;
shapes = (
{
closed = 1;
nodes = (
(616,0,l),
(616,409,l),
(759,687,l),
(89,687,l),
(-54,0,l)
);
}
);
width = 670;
},
{
anchors = (
{
name = bottom;
position = "{279, 0}";
}
);
layerId = "35051489-9DA7-4E90-8534-9CC313302D4A";
shapes = (
{
closed = 1;
nodes = (
(79,0,l),
(123,205,l),
(285,349,l),
(498,0,l),
(543,0,l),
(315,376,l),
(665,687,l),
(616,687,l),
(132,257,l),
(222,687,l),
(186,687,l),
(43,0,l)
);
}
);
width = 670;
}
);
leftKerningGroup = _R_K;
rightKerningGroup = _L_K;
unicode = 75;
},
{
color = 1;
glyphname = L;
layers = (
{
anchors = (
{
name = top;
position = "{290, 687}";
}
);
layerId = "9EC2A313-F861-4A0B-B22D-531AADAE0B73";
name = ItalicBlack.bubble;
shapes = (
{
closed = 1;
nodes = (
(545,0,l),
(597,246,l),
(338,246,l),
(430,687,l),
(90,687,l),
(-54,0,l)
);
}
);
width = 600;
},
{
anchors = (
{
name = top;
position = "{248, 687}";
}
);
layerId = "4574EF20-24B0-4ACA-8F83-7A663124D906";
shapes = (
{
closed = 1;
nodes = (
(526,0,l),
(562,173,l),
(188,173,l),
(233,117,l),
(349,687,l),
(155,687,l),
(12,0,l)
);
}
);
width = 600;
},
{
anchors = (
{
name = top;
position = "{272, 687}";
}
);
layerId = "66606BEF-A73D-42AA-BCC4-03AD2ED94557";
associatedMasterId = "F208817E-C060-4D60-AB62-CCF376900793";
name = bubble;
shapes = (
{
closed = 1;
nodes = (
(-54,0,l),
(526,0,l),
(564,183,l),
(281,183,l),
(386,687,l),
(89,687,l)
);
}
);
width = 580;
},
{
anchors = (
{
name = top;
position = "{206, 687}";
}
);
layerId = "F208817E-C060-4D60-AB62-CCF376900793";
shapes = (
{
closed = 1;
nodes = (
(477,0,l),
(493,74,l),
(96,74,l),
(114,50,l),
(245,687,l),
(167,687,l),
(24,0,l)
);
}
);
width = 580;
},
{
anchors = (
{
name = top;
position = "{268, 687}";
}
);
layerId = "E5262BFA-468F-43E5-B452-C67934931082";
name = ItalicThin.bubble;
shapes = (
{
closed = 1;
nodes = (
(-53,0,l),
(549,0,l),
(583,162,l),
(268,162,l),
(377,687,l),
(90,687,l)
);
}
);
width = 603;
},
{
anchors = (
{
name = top;
position = "{204, 687}";
}
);
layerId = "35051489-9DA7-4E90-8534-9CC313302D4A";
shapes = (
{
closed = 1;
nodes = (
(475,0,l),
(483,36,l),
(76,36,l),
(85,24,l),
(222,687,l),
(186,687,l),
(43,0,l)
);
}
);
width = 603;
}
);
leftKerningGroup = _R_L;
rightKerningGroup = _L_L;
unicode = 76;
},
{
color = 1;
glyphname = Lslash;
layers = (
{
anchors = (
{
name = top;
position = "{283, 687}";
}
);
layerId = "9EC2A313-F861-4A0B-B22D-531AADAE0B73";
name = ItalicBlack.bubble;
shapes = (
{
closed = 1;
nodes = (
(-54,0,l),
(581,0,l),
(628,226,l),
(344,226,l),
(354,276,l),
(396,295,l),
(454,589,l),
(414,571,l),
(438,687,l),
(89,687,l)
);
}
);
width = 635;
},
{
anchors = (
{
name = top;
position = "{283, 687}";
}
);
layerId = "4574EF20-24B0-4ACA-8F83-7A663124D906";
shapes = (
{
closed = 1;
nodes = (
(408,358,l),
(441,525,l),
(37,345,l),
(5,178,l)
);
},
{
closed = 1;
nodes = (
(561,0,l),
(597,173,l),
(223,173,l),
(268,117,l),
(384,687,l),
(190,687,l),
(47,0,l)
);
}
);
width = 635;
},
{
anchors = (
{
name = top;
position = "{265, 687}";
}
);
layerId = "66606BEF-A73D-42AA-BCC4-03AD2ED94557";
associatedMasterId = "F208817E-C060-4D60-AB62-CCF376900793";
name = bubble;
shapes = (
{
closed = 1;
nodes = (
(-54,0,l),
(584,0,l),
(615,143,l),
(263,143,l),
(289,271,l),
(362,305,l),
(406,546,l),
(340,515,l),
(375,687,l),
(89,687,l)
);
}
);
width = 639;
},
{
anchors = (
{
name = top;
position = "{265, 687}";
}
);
layerId = "F208817E-C060-4D60-AB62-CCF376900793";
shapes = (
{
closed = 1;
nodes = (
(377,388,l),
(391,463,l),
(60,309,l),
(46,234,l)
);
},
{
closed = 1;
nodes = (
(536,0,l),
(552,74,l),
(155,74,l),
(173,50,l),
(304,687,l),
(226,687,l),
(83,0,l)
);
}
);
width = 639;
},
{
anchors = (
{
name = top;
position = "{293, 687}";
}
);
layerId = "E5262BFA-468F-43E5-B452-C67934931082";
name = ItalicThin.bubble;
shapes = (
{
closed = 1;
nodes = (
(-53,0,l),
(638,0,l),
(664,125,l),
(286,125,l),
(315,266,l),
(383,298,l),
(433,555,l),
(368,525,l),
(402,687,l),
(89,687,l)
);
}
);
width = 692;
},
{
anchors = (
{
name = top;
position = "{293, 687}";
}
);
layerId = "35051489-9DA7-4E90-8534-9CC313302D4A";
shapes = (
{
closed = 1;
nodes = (
(404,406,l),
(412,447,l),
(81,293,l),
(73,252,l)
);
},
{
closed = 1;
nodes = (
(564,0,l),
(572,36,l),
(165,36,l),
(174,24,l),
(311,687,l),
(275,687,l),
(132,0,l)
);
}
);
width = 692;
}
);
leftKerningGroup = _R_Lslash;
rightKerningGroup = _L_Lslash;
unicode = 321;
},
{
color = 1;
glyphname = M;
layers = (
{
layerId = "9EC2A313-F861-4A0B-B22D-531AADAE0B73";
name = ItalicBlack.bubble;
shapes = (
{
closed = 1;
nodes = (
(834,0,l),
(977,687,l),
(89,687,l),
(-54,0,l)
);
}
);
width = 888;
},
{
layerId = "4574EF20-24B0-4ACA-8F83-7A663124D906";
shapes = (
{
closed = 1;
nodes = (
(206,0,l),
(285,368,l),
(403,40,l),
(653,368,l),
(574,0,l),
(768,0,l),
(911,687,l),
(715,687,l),
(461,359,l),
(347,687,l),
(155,687,l),
(12,0,l)
);
}
);
width = 888;
},
{
layerId = "66606BEF-A73D-42AA-BCC4-03AD2ED94557";
associatedMasterId = "F208817E-C060-4D60-AB62-CCF376900793";
name = bubble;
shapes = (
{
closed = 1;
nodes = (
(768,0,l),
(911,687,l),
(89,687,l),
(-54,0,l)
);
}
);
width = 822;
},
{
layerId = "F208817E-C060-4D60-AB62-CCF376900793";
shapes = (
{
closed = 1;
nodes = (
(102,0,l),
(211,519,l),
(368,40,l),
(721,519,l),
(612,0,l),
(690,0,l),
(833,687,l),
(754,687,l),
(399,208,l),
(244,687,l),
(167,687,l),
(24,0,l)
);
}
);
width = 822;
},
{
layerId = "E5262BFA-468F-43E5-B452-C67934931082";
name = ItalicThin.bubble;
shapes = (
{
closed = 1;
nodes = (
(764,0,l),
(907,687,l),
(89,687,l),
(-54,0,l)
);
}
);
width = 818;
},
{
layerId = "35051489-9DA7-4E90-8534-9CC313302D4A";
shapes = (
{
closed = 1;
nodes = (
(79,0,l),
(208,615,l),
(377,96,l),
(760,615,l),
(631,0,l),
(667,0,l),
(810,687,l),
(774,687,l),
(389,168,l),
(222,687,l),
(186,687,l),
(43,0,l)
);
}
);
width = 818;
}
);
leftKerningGroup = _R_M;
rightKerningGroup = _L_M;
unicode = 77;
},
{
color = 1;
glyphname = N;
layers = (
{
anchors = (
{
name = bottom;
position = "{341, 0}";
},
{
name = top;
position = "{482, 687}";
}
);
layerId = "9EC2A313-F861-4A0B-B22D-531AADAE0B73";
name = ItalicBlack.bubble;
shapes = (
{
closed = 1;
nodes = (
(734,0,l),
(877,687,l),
(89,687,l),
(-54,0,l)
);
}
);
width = 788;
},
{
anchors = (
{
name = bottom;
position = "{341, 0}";
},
{
name = top;
position = "{482, 687}";
}
);
layerId = "4574EF20-24B0-4ACA-8F83-7A663124D906";
shapes = (
{
closed = 1;
nodes = (
(206,0,l),
(285,368,l),
(477,0,l),
(668,0,l),
(811,687,l),
(617,687,l),
(538,319,l),
(347,687,l),
(155,687,l),
(12,0,l)
);
}
);
width = 788;
},
{
anchors = (
{
name = bottom;
position = "{315, 0}";
},
{
name = top;
position = "{457, 687}";
}
);
layerId = "66606BEF-A73D-42AA-BCC4-03AD2ED94557";
associatedMasterId = "F208817E-C060-4D60-AB62-CCF376900793";
name = bubble;
shapes = (
{
closed = 1;
nodes = (
(684,0,l),
(827,687,l),
(89,687,l),
(-54,0,l)
);
}
);
width = 738;
},
{
anchors = (
{
name = bottom;
position = "{315, 0}";
},
{
name = top;
position = "{457, 687}";
}
);
layerId = "F208817E-C060-4D60-AB62-CCF376900793";
shapes = (
{
closed = 1;
nodes = (
(102,0,l),
(220,559,l),
(530,0,l),
(606,0,l),
(749,687,l),
(671,687,l),
(554,128,l),
(244,687,l),
(167,687,l),
(24,0,l)
);
}
);
width = 738;
},
{
anchors = (
{
name = bottom;
position = "{314, 0}";
},
{
name = top;
position = "{456, 687}";
}
);
layerId = "E5262BFA-468F-43E5-B452-C67934931082";
name = ItalicThin.bubble;
shapes = (
{
closed = 1;
nodes = (
(680,0,l),
(823,687,l),
(89,687,l),
(-54,0,l)
);
}
);
width = 734;
},
{
anchors = (
{
name = bottom;
position = "{314, 0}";
},
{
name = top;
position = "{456, 687}";
}
);
layerId = "35051489-9DA7-4E90-8534-9CC313302D4A";
shapes = (
{
closed = 1;
nodes = (
(79,0,l),
(211,631,l),
(548,0,l),
(583,0,l),
(726,687,l),
(690,687,l),
(559,56,l),
(222,687,l),
(186,687,l),
(43,0,l)
);
}
);
width = 734;
}
);
leftKerningGroup = _R_N;
rightKerningGroup = _L_N;
unicode = 78;
},
{
color = 1;
glyphname = O;
layers = (
{
anchors = (
{
name = top;
position = "{487, 687}";
}
);
layerId = "9EC2A313-F861-4A0B-B22D-531AADAE0B73";
name = ItalicBlack.bubble;
shapes = (
{
closed = 1;
nodes = (
(616,-37,o),
(827,159,o),
(827,399,cs),
(827,584,o),
(678,724,o),
(482,724,cs),
(225,724,o),
(15,529,o),
(15,289,cs),
(15,103,o),
(163,-37,o),
(359,-37,cs)
);
}
);
width = 806;
},
{
anchors = (
{
name = top;
position = "{487, 687}";
}
);
layerId = "4574EF20-24B0-4ACA-8F83-7A663124D906";
shapes = (
{
closed = 1;
nodes = (
(603,-12,o),
(802,173,o),
(802,399,cs),
(802,570,o),
(665,699,o),
(482,699,cs),
(239,699,o),
(40,515,o),
(40,289,cs),
(40,117,o),
(177,-12,o),
(359,-12,cs)
);
},
{
closed = 1;
nodes = (
(296,164,o),
(240,220,o),
(240,295,cs),
(240,420,o),
(344,523,o),
(471,523,cs),
(546,523,o),
(602,467,o),
(602,392,cs),
(602,267,o),
(498,164,o),
(371,164,cs)
);
}
);
width = 806;
},
{
anchors = (
{
name = top;
position = "{508, 687}";
}
);
layerId = "66606BEF-A73D-42AA-BCC4-03AD2ED94557";
associatedMasterId = "F208817E-C060-4D60-AB62-CCF376900793";
name = bubble;
shapes = (
{
closed = 1;
nodes = (
(619,-65,o),
(837,148,o),
(837,410,cs),
(837,611,o),
(697,752,o),
(499,752,cs),
(232,752,o),
(14,539,o),
(14,277,cs),
(14,76,o),
(154,-65,o),
(352,-65,cs)
);
}
);
width = 815;
},
{
anchors = (
{
name = top;
position = "{508, 687}";
}
);
layerId = "F208817E-C060-4D60-AB62-CCF376900793";
shapes = (
{
closed = 1;
nodes = (
(590,-12,o),
(784,178,o),
(784,410,cs),
(784,581,o),
(668,699,o),
(499,699,cs),
(261,699,o),
(67,509,o),
(67,277,cs),
(67,106,o),
(183,-12,o),
(352,-12,cs)
);
},
{
closed = 1;
nodes = (
(236,60,o),
(146,151,o),
(146,283,cs),
(146,472,o),
(299,627,o),
(485,627,cs),
(615,627,o),
(705,537,o),
(705,407,cs),
(705,216,o),
(553,60,o),
(367,60,cs)
);
}
);
width = 815;
},
{
anchors = (
{
name = top;
position = "{515, 687}";
}
);
layerId = "E5262BFA-468F-43E5-B452-C67934931082";
name = ItalicThin.bubble;
shapes = (
{
closed = 1;
nodes = (
(636,-89,o),
(881,152,o),
(881,410,cs),
(881,618,o),
(724,776,o),
(518,776,cs),
(259,776,o),
(12,530,o),
(12,272,cs),
(12,65,o),
(167,-89,o),
(375,-89,cs)
);
}
);
width = 858;
},
{
anchors = (
{
name = top;
position = "{515, 687}";
}
);
layerId = "35051489-9DA7-4E90-8534-9CC313302D4A";
shapes = (
{
closed = 1;
nodes = (
(593,-12,o),
(804,194,o),
(804,410,cs),
(804,572,o),
(685,699,o),
(518,699,cs),
(303,699,o),
(88,489,o),
(88,272,cs),
(88,110,o),
(207,-12,o),
(375,-12,cs)
);
},
{
closed = 1;
nodes = (
(229,24,o),
(124,132,o),
(124,276,cs),
(124,472,o),
(320,663,o),
(514,663,cs),
(663,663,o),
(769,551,o),
(769,408,cs),
(769,215,o),
(575,24,o),
(378,24,cs)
);
}
);
width = 858;
}
);
leftKerningGroup = _R_O;
rightKerningGroup = _L_O;
unicode = 79;
},
{
color = 1;
glyphname = Oslash;
layers = (
{
anchors = (
{
name = top;
position = "{491, 687}";
}
);
layerId = "9EC2A313-F861-4A0B-B22D-531AADAE0B73";
name = ItalicBlack.bubble;
shapes = (
{
closed = 1;
nodes = (
(189,0,l),
(239,-27,o),
(299,-42,o),
(363,-42,cs),
(623,-42,o),
(836,156,o),
(836,399,cs),
(836,464,o),
(818,523,o),
(787,572,c),
(906,687,l),
(664,687,l),
(663,686,l),
(612,714,o),
(552,729,o),
(486,729,cs),
(226,729,o),
(15,531,o),
(15,289,cs),
(15,223,o),
(33,163,o),
(66,112,c),
(-51,0,l)
);
}
);
width = 817;
},
{
anchors = (
{
name = top;
position = "{491, 687}";
}
);
layerId = "4574EF20-24B0-4ACA-8F83-7A663124D906";
shapes = (
{
closed = 1;
nodes = (
(158,0,l),
(871,687,l),
(706,687,l),
(-7,0,l)
);
},
{
closed = 1;
nodes = (
(607,-12,o),
(806,173,o),
(806,399,cs),
(806,570,o),
(669,699,o),
(486,699,cs),
(243,699,o),
(44,515,o),
(44,289,cs),
(44,117,o),
(181,-12,o),
(363,-12,cs)
);
},
{
closed = 1;
nodes = (
(300,164,o),
(244,220,o),
(244,295,cs),
(244,420,o),
(348,523,o),
(475,523,cs),
(550,523,o),
(606,467,o),
(606,392,cs),
(606,267,o),
(502,164,o),
(375,164,cs)
);
}
);
width = 817;
},
{
anchors = (
{
name = top;
position = "{509, 687}";
}
);
layerId = "66606BEF-A73D-42AA-BCC4-03AD2ED94557";
associatedMasterId = "F208817E-C060-4D60-AB62-CCF376900793";
name = bubble;
shapes = (
{
closed = 1;
nodes = (
(143,0,l),
(199,-43,o),
(271,-67,o),
(353,-67,cs),
(621,-67,o),
(838,147,o),
(838,410,cs),
(838,476,o),
(823,535,o),
(796,586,c),
(906,687,l),
(711,687,l),
(655,730,o),
(583,754,o),
(501,754,cs),
(233,754,o),
(14,540,o),
(14,277,cs),
(14,211,o),
(29,151,o),
(56,101,c),
(-53,0,l)
);
}
);
width = 817;
},
{
anchors = (
{
name = top;
position = "{509, 687}";
}
);
layerId = "F208817E-C060-4D60-AB62-CCF376900793";
shapes = (
{
closed = 1;
nodes = (
(97,0,l),
(841,687,l),
(754,687,l),
(10,0,l)
);
},
{
closed = 1;
nodes = (
(591,-12,o),
(785,178,o),
(785,410,cs),
(785,581,o),
(669,699,o),
(500,699,cs),
(262,699,o),
(68,509,o),
(68,277,cs),
(68,106,o),
(184,-12,o),
(353,-12,cs)
);
},
{
closed = 1;
nodes = (
(237,60,o),
(147,151,o),
(147,283,cs),
(147,472,o),
(300,627,o),
(486,627,cs),
(616,627,o),
(706,537,o),
(706,407,cs),
(706,216,o),
(554,60,o),
(368,60,cs)
);
}
);
width = 817;
},
{
anchors = (
{
name = top;
position = "{518, 687}";
}
);
layerId = "E5262BFA-468F-43E5-B452-C67934931082";
name = ItalicThin.bubble;
shapes = (
{
closed = 1;
nodes = (
(130,0,l),
(194,-57,o),
(280,-91,o),
(378,-91,cs),
(636,-91,o),
(883,154,o),
(883,410,cs),
(883,480,o),
(869,544,o),
(838,598,c),
(934,687,l),
(766,687,l),
(702,744,o),
(617,778,o),
(521,778,cs),
(261,778,o),
(12,531,o),
(12,272,cs),
(12,208,o),
(27,150,o),
(53,99,c),
(-54,0,l)
);
}
);
width = 861;
},
{
anchors = (
{
name = top;
position = "{518, 687}";
}
);
layerId = "35051489-9DA7-4E90-8534-9CC313302D4A";
shapes = (
{
closed = 1;
nodes = (
(74,0,l),
(818,687,l),
(769,687,l),
(25,0,l)
);
},
{
closed = 1;
nodes = (
(596,-12,o),
(807,194,o),
(807,410,cs),
(807,572,o),
(688,699,o),
(521,699,cs),
(306,699,o),
(91,489,o),
(91,272,cs),
(91,110,o),
(210,-12,o),
(378,-12,cs)
);
},
{
closed = 1;
nodes = (
(232,24,o),
(127,132,o),
(127,276,cs),
(127,472,o),
(323,663,o),
(517,663,cs),
(666,663,o),
(772,551,o),
(772,408,cs),
(772,215,o),
(578,24,o),
(381,24,cs)
);
}
);
width = 861;
}
);
leftKerningGroup = _R_Oslash;
rightKerningGroup = _L_Oslash;
unicode = 216;
},
{
color = 1;
glyphname = OE;
layers = (
{
layerId = "9EC2A313-F861-4A0B-B22D-531AADAE0B73";
name = ItalicBlack.bubble;
shapes = (
{
closed = 1;
nodes = (
(14,111,o),
(159,-23,o),
(350,-23,cs),
(985,-23,l),
(1137,710,l),
(480,710,ls),
(232,710,o),
(14,515,o),
(14,291,cs)
);
}
);
width = 1044;
},
{
layerId = "4574EF20-24B0-4ACA-8F83-7A663124D906";
shapes = (
{
closed = 1;
nodes = (
(37,124,o),
(171,0,o),
(350,0,cs),
(937,0,l),
(973,173,l),
(615,173,l),
(633,264,l),
(960,264,l),
(996,437,l),
(670,437,l),
(685,514,l),
(1044,514,l),
(1080,687,l),
(480,687,ls),
(254,687,o),
(37,510,o),
(37,291,cs)
);
},
{
closed = 1;
nodes = (
(235,406,o),
(346,511,o),
(456,511,cs),
(490,511,l),
(421,176,l),
(374,176,ls),
(292,176,o),
(235,224,o),
(235,297,cs)
);
}
);
width = 1044;
},
{
layerId = "66606BEF-A73D-42AA-BCC4-03AD2ED94557";
associatedMasterId = "F208817E-C060-4D60-AB62-CCF376900793";
name = bubble;
shapes = (
{
closed = 1;
nodes = (
(11,84,o),
(156,-53,o),
(355,-53,cs),
(968,-53,l),
(1133,740,l),
(493,740,ls),
(246,740,o),
(11,513,o),
(11,271,cs)
);
}
);
width = 1033;
},
{
layerId = "F208817E-C060-4D60-AB62-CCF376900793";
shapes = (
{
closed = 1;
nodes = (
(64,111,o),
(188,0,o),
(355,0,cs),
(925,0,l),
(941,74,l),
(528,74,l),
(576,313,l),
(950,313,l),
(965,387,l),
(593,387,l),
(638,613,l),
(1053,613,l),
(1068,687,l),
(493,687,ls),
(280,687,o),
(64,488,o),
(64,271,cs)
);
},
{
closed = 1;
nodes = (
(142,444,o),
(312,615,o),
(483,615,cs),
(560,615,l),
(447,72,l),
(365,72,ls),
(236,72,o),
(142,152,o),
(142,273,cs)
);
}
);
width = 1033;
},
{
layerId = "E5262BFA-468F-43E5-B452-C67934931082";
name = ItalicThin.bubble;
shapes = (
{
closed = 1;
nodes = (
(13,75,o),
(169,-76,o),
(378,-76,cs),
(972,-76,l),
(1146,763,l),
(518,763,ls),
(254,763,o),
(13,532,o),
(13,277,cs)
);
}
);
width = 1042;
},
{
layerId = "35051489-9DA7-4E90-8534-9CC313302D4A";
shapes = (
{
closed = 1;
nodes = (
(89,117,o),
(211,0,o),
(378,0,cs),
(912,0,l),
(920,36,l),
(505,36,l),
(566,332,l),
(951,332,l),
(958,368,l),
(574,368,l),
(632,651,l),
(1048,651,l),
(1055,687,l),
(518,687,ls),
(297,687,o),
(89,491,o),
(89,277,cs)
);
},
{
closed = 1;
nodes = (
(125,475,o),
(316,651,o),
(513,651,cs),
(597,651,l),
(468,36,l),
(382,36,ls),
(231,36,o),
(125,139,o),
(125,280,cs)
);
}
);
width = 1042;
}
);
leftKerningGroup = _R_O;
rightKerningGroup = _L_E;
unicode = 338;
},
{
color = 1;
glyphname = P;
layers = (
{
layerId = "9EC2A313-F861-4A0B-B22D-531AADAE0B73";
name = ItalicBlack.bubble;
shapes = (
{
closed = 1;
nodes = (
(225,0,l),
(265,188,l),
(391,188,ls),
(577,188,o),
(719,317,o),
(719,487,cs),
(719,618,o),
(621,706,o),
(478,706,cs),
(93,706,l),
(-54,0,l)
);
}
);
width = 678;
},
{
layerId = "4574EF20-24B0-4ACA-8F83-7A663124D906";
shapes = (
{
closed = 1;
nodes = (
(206,0,l),
(250,207,l),
(391,207,ls),
(563,207,o),
(700,324,o),
(700,487,cs),
(700,606,o),
(612,687,o),
(478,687,cs),
(155,687,l),
(12,0,l)
);
},
{
closed = 1;
nodes = (
(313,511,l),
(438,511,ls),
(479,511,o),
(502,496,o),
(502,471,cs),
(502,429,o),
(450,383,o),
(399,383,cs),
(286,383,l)
);
}
);
width = 678;
},
{
layerId = "66606BEF-A73D-42AA-BCC4-03AD2ED94557";
associatedMasterId = "F208817E-C060-4D60-AB62-CCF376900793";
name = bubble;
shapes = (
{
closed = 1;
nodes = (
(153,0,l),
(195,197,l),
(350,197,ls),
(543,197,o),
(706,334,o),
(706,500,cs),
(706,638,o),
(595,737,o),
(442,737,cs),
(100,737,l),
(-53,0,l)
);
}
);
width = 661;
},
{
layerId = "F208817E-C060-4D60-AB62-CCF376900793";
shapes = (
{
closed = 1;
nodes = (
(102,0,l),
(154,247,l),
(350,247,ls),
(516,247,o),
(656,363,o),
(656,500,cs),
(656,610,o),
(567,687,o),
(442,687,cs),
(167,687,l),
(24,0,l)
);
},
{
closed = 1;
nodes = (
(230,613,l),
(426,613,ls),
(516,613,o),
(579,566,o),
(579,499,cs),
(579,402,o),
(482,321,o),
(366,321,cs),
(169,321,l)
);
}
);
width = 661;
},
{
layerId = "E5262BFA-468F-43E5-B452-C67934931082";
name = ItalicThin.bubble;
shapes = (
{
closed = 1;
nodes = (
(157,0,l),
(197,191,l),
(389,191,ls),
(589,191,o),
(750,337,o),
(750,519,cs),
(750,663,o),
(636,763,o),
(474,763,cs),
(105,763,l),
(-53,0,l)
);
}
);
width = 702;
},
{
layerId = "35051489-9DA7-4E90-8534-9CC313302D4A";
shapes = (
{
closed = 1;
nodes = (
(79,0,l),
(135,267,l),
(389,267,ls),
(542,267,o),
(674,375,o),
(674,519,cs),
(674,619,o),
(596,687,o),
(474,687,cs),
(186,687,l),
(43,0,l)
);
},
{
closed = 1;
nodes = (
(215,651,l),
(462,651,ls),
(570,651,o),
(638,596,o),
(638,514,cs),
(638,395,o),
(521,303,o),
(387,303,cs),
(142,303,l)
);
}
);
width = 702;
}
);
leftKerningGroup = _R_P;
rightKerningGroup = _L_P;
unicode = 80;
},
{
color = 1;
glyphname = Thorn;
layers = (
{
layerId = "9EC2A313-F861-4A0B-B22D-531AADAE0B73";
name = ItalicBlack.bubble;
shapes = (
{
closed = 1;
nodes = (
(225,0,l),
(243,86,l),
(370,86,ls),
(556,86,o),
(698,215,o),
(698,385,cs),
(698,516,o),
(600,604,o),
(457,604,cs),
(346,604,l),
(363,687,l),
(89,687,l),
(-54,0,l)
);
}
);
width = 678;
},
{
layerId = "4574EF20-24B0-4ACA-8F83-7A663124D906";
shapes = (
{
closed = 1;
nodes = (
(206,0,l),
(228,105,l),
(370,105,ls),
(542,105,o),
(679,222,o),
(679,385,cs),
(679,504,o),
(591,585,o),
(457,585,cs),
(323,585,l),
(344,687,l),
(155,687,l),
(12,0,l)
);
},
{
closed = 1;
nodes = (
(292,409,l),
(417,409,ls),
(458,409,o),
(480,394,o),
(480,369,cs),
(480,327,o),
(430,281,o),
(378,281,cs),
(265,281,l)
);
}
);
width = 678;
},
{
layerId = "66606BEF-A73D-42AA-BCC4-03AD2ED94557";
associatedMasterId = "F208817E-C060-4D60-AB62-CCF376900793";
name = bubble;
shapes = (
{
closed = 1;
nodes = (
(154,0,l),
(170,75,l),
(332,75,ls),
(525,75,o),
(683,214,o),
(683,385,cs),
(683,521,o),
(572,617,o),
(418,617,cs),
(285,617,l),
(300,687,l),
(89,687,l),
(-54,0,l)
);
}
);
width = 663;
},
{
layerId = "F208817E-C060-4D60-AB62-CCF376900793";
shapes = (
{
closed = 1;
nodes = (
(102,0,l),
(129,126,l),
(332,126,ls),
(490,126,o),
(632,237,o),
(632,385,cs),
(632,493,o),
(543,566,o),
(418,566,cs),
(222,566,l),
(247,687,l),
(167,687,l),
(24,0,l)
);
},
{
closed = 1;
nodes = (
(205,492,l),
(395,492,ls),
(494,492,o),
(554,452,o),
(554,381,cs),
(554,274,o),
(451,200,o),
(328,200,cs),
(144,200,l)
);
}
);
width = 663;
},
{
layerId = "E5262BFA-468F-43E5-B452-C67934931082";
name = ItalicThin.bubble;
shapes = (
{
closed = 1;
nodes = (
(156,0,l),
(169,61,l),
(362,61,ls),
(561,61,o),
(722,206,o),
(722,388,cs),
(722,531,o),
(609,631,o),
(447,631,cs),
(287,631,l),
(298,687,l),
(89,687,l),
(-53,0,l)
);
}
);
width = 702;
},
{
layerId = "35051489-9DA7-4E90-8534-9CC313302D4A";
shapes = (
{
closed = 1;
nodes = (
(79,0,l),
(108,136,l),
(362,136,ls),
(515,136,o),
(647,244,o),
(647,388,cs),
(647,488,o),
(569,556,o),
(447,556,cs),
(195,556,l),
(222,687,l),
(186,687,l),
(43,0,l)
);
},
{
closed = 1;
nodes = (
(188,520,l),
(435,520,ls),
(543,520,o),
(611,465,o),
(611,383,cs),
(611,264,o),
(494,172,o),
(360,172,cs),
(115,172,l)
);
}
);
width = 702;
}
);
leftKerningGroup = _R_Thorn;
rightKerningGroup = _L_Thorn;
unicode = 222;
},
{
color = 1;
glyphname = Q;
layers = (
{
anchors = (
{
name = top;
position = "{487, 687}";
}
);
layerId = "9EC2A313-F861-4A0B-B22D-531AADAE0B73";
name = ItalicBlack.bubble;
shapes = (
{
closed = 1;
nodes = (
(15,102,o),
(162,-39,o),
(359,-39,cs),
(441,-39,o),
(518,-19,o),
(586,15,c),
(619,-19,l),
(767,124,l),
(745,147,l),
(800,218,o),
(833,305,o),
(833,399,cs),
(833,585,o),
(679,726,o),
(482,726,cs),
(224,726,o),
(15,530,o),
(15,289,cs)
);
}
);
width = 812;
},
{
anchors = (
{
name = top;
position = "{487, 687}";
}
);
layerId = "4574EF20-24B0-4ACA-8F83-7A663124D906";
shapes = (
{
closed = 1;
nodes = (
(748,106,l),
(523,340,l),
(414,234,l),
(639,0,l)
);
},
{
closed = 1;
nodes = (
(603,-12,o),
(802,173,o),
(802,399,cs),
(802,570,o),
(665,699,o),
(482,699,cs),
(239,699,o),
(40,515,o),
(40,289,cs),
(40,117,o),
(177,-12,o),
(359,-12,cs)
);
},
{
closed = 1;
nodes = (
(296,164,o),
(240,220,o),
(240,295,cs),
(240,420,o),
(344,523,o),
(471,523,cs),
(546,523,o),
(602,467,o),
(602,392,cs),
(602,267,o),
(498,164,o),
(371,164,cs)
);
}
);
width = 812;
},
{
anchors = (
{
name = top;
position = "{508, 687}";
}
);
layerId = "66606BEF-A73D-42AA-BCC4-03AD2ED94557";
associatedMasterId = "F208817E-C060-4D60-AB62-CCF376900793";
name = bubble;
shapes = (
{
closed = 1;
nodes = (
(14,76,o),
(154,-65,o),
(352,-65,cs),
(437,-65,o),
(518,-43,o),
(588,-5,c),
(617,-36,l),
(749,87,l),
(728,109,l),
(797,191,o),
(838,296,o),
(838,410,cs),
(838,611,o),
(697,752,o),
(499,752,cs),
(232,752,o),
(14,539,o),
(14,277,cs)
);
}
);
width = 816;
},
{
anchors = (
{
name = top;
position = "{508, 687}";
}
);
layerId = "F208817E-C060-4D60-AB62-CCF376900793";
shapes = (
{
closed = 1;
nodes = (
(710,51,l),
(500,271,l),
(446,220,l),
(656,0,l)
);
},
{
closed = 1;
nodes = (
(590,-12,o),
(784,178,o),
(784,410,cs),
(784,581,o),
(668,699,o),
(499,699,cs),
(261,699,o),
(67,509,o),
(67,277,cs),
(67,106,o),
(183,-12,o),
(352,-12,cs)
);
},
{
closed = 1;
nodes = (
(236,60,o),
(146,151,o),
(146,283,cs),
(146,472,o),
(299,627,o),
(485,627,cs),
(615,627,o),
(705,537,o),
(705,407,cs),
(705,216,o),
(553,60,o),
(367,60,cs)
);
}
);
width = 816;
},
{
anchors = (
{
name = top;
position = "{515, 687}";
}
);
layerId = "E5262BFA-468F-43E5-B452-C67934931082";
name = ItalicThin.bubble;
shapes = (
{
closed = 1;
nodes = (
(12,67,o),
(168,-87,o),
(375,-87,cs),
(453,-87,o),
(530,-65,o),
(600,-28,c),
(623,-52,l),
(758,76,l),
(747,87,l),
(829,177,o),
(881,292,o),
(881,410,cs),
(881,616,o),
(723,774,o),
(518,774,cs),
(260,774,o),
(12,529,o),
(12,272,cs)
);
}
);
width = 858;
},
{
anchors = (
{
name = top;
position = "{515, 687}";
}
);
layerId = "35051489-9DA7-4E90-8534-9CC313302D4A";
shapes = (
{
closed = 1;
nodes = (
(703,24,l),
(504,234,l),
(479,210,l),
(678,0,l)
);
},
{
closed = 1;
nodes = (
(593,-12,o),
(804,194,o),
(804,410,cs),
(804,572,o),
(685,699,o),
(518,699,cs),
(303,699,o),
(88,489,o),
(88,272,cs),
(88,110,o),
(207,-12,o),
(375,-12,cs)
);
},
{
closed = 1;
nodes = (
(229,24,o),
(124,132,o),
(124,276,cs),
(124,472,o),
(320,663,o),
(514,663,cs),
(663,663,o),
(769,551,o),
(769,408,cs),
(769,215,o),
(575,24,o),
(378,24,cs)
);
}
);
width = 858;
}
);
leftKerningGroup = _R_Q;
rightKerningGroup = _L_Q;
unicode = 81;
},
{
glyphname = R;
layers = (
{
hints = (
{
horizontal = 1;
place = (0,21);
target = up;
type = BottomGhost;
},
{
horizontal = 1;
place = (207,176);
type = Stem;
},
{
horizontal = 1;
place = (511,176);
type = Stem;
},
{
place = (496,198);
type = Stem;
}
);
layerId = "4574EF20-24B0-4ACA-8F83-7A663124D906";
shapes = (
{
closed = 1;
nodes = (
(6,0,l),
(200,0,l),
(244,207,l),
(309,207,l),
(434,0,l),
(650,0,l),
(511,230,l),
(621,271,o),
(694,368,o),
(694,487,cs),
(694,618,o),
(595,687,o),
(472,687,cs),
(149,687,l)
);
},
{
closed = 1;
nodes = (
(280,383,l),
(307,511,l),
(432,511,ls),
(459,511,o),
(496,506,o),
(496,471,cs),
(496,422,o),
(439,383,o),
(393,383,cs)
);
}
);
width = 721;
},
{
hints = (
{
horizontal = 1;
place = (0,21);
target = up;
type = BottomGhost;
},
{
horizontal = 1;
place = (247,74);
type = Stem;
},
{
horizontal = 1;
place = (613,74);
type = Stem;
},
{
place = (580,77);
type = Stem;
}
);
layerId = "F208817E-C060-4D60-AB62-CCF376900793";
shapes = (
{
closed = 1;
nodes = (
(25,0,l),
(103,0,l),
(155,247,l),
(336,247,l),
(487,0,l),
(573,0,l),
(419,254,l),
(539,278,o),
(657,368,o),
(657,500,cs),
(657,622,o),
(556,687,o),
(443,687,cs),
(168,687,l)
);
},
{
closed = 1;
nodes = (
(170,321,l),
(231,613,l),
(427,613,ls),
(497,613,o),
(580,580,o),
(580,499,cs),
(580,387,o),
(469,321,o),
(367,321,cs)
);
}
);
width = 650;
},
{
hints = (
{
horizontal = 1;
place = (0,21);
target = up;
type = BottomGhost;
},
{
horizontal = 1;
place = (267,36);
type = Stem;
},
{
horizontal = 1;
place = (651,36);
type = Stem;
},
{
place = (620,36);
type = Stem;
}
);
layerId = "35051489-9DA7-4E90-8534-9CC313302D4A";
shapes = (
{
closed = 1;
nodes = (
(25,0,l),
(61,0,l),
(117,267,l),
(325,267,l),
(484,0,l),
(527,0,l),
(367,267,l),
(514,267,o),
(656,361,o),
(656,519,cs),
(656,635,o),
(561,687,o),
(456,687,cs),
(168,687,l)
);
},
{
closed = 1;
nodes = (
(124,303,l),
(197,651,l),
(444,651,ls),
(531,651,o),
(620,614,o),
(620,514,cs),
(620,381,o),
(490,303,o),
(369,303,cs)
);
}
);
width = 630;
}
);
leftKerningGroup = _R_R;
rightKerningGroup = _L_R;
unicode = 82;
},
{
color = 1;
glyphname = S;
layers = (
{
anchors = (
{
name = bottom;
position = "{291, 0}";
},
{
name = top;
position = "{431, 687}";
}
);
layerId = "9EC2A313-F861-4A0B-B22D-531AADAE0B73";
name = ItalicBlack.bubble;
shapes = (
{
closed = 1;
nodes = (
(495,-34,o),
(641,80,o),
(641,240,cs),
(641,352,o),
(578,402,o),
(392,445,cs),
(315,463,o),
(310,466,o),
(310,471,cs),
(310,494,o),
(344,516,o),
(388,516,cs),
(441,516,o),
(502,492,o),
(544,457,c),
(690,617,l),
(619,683,o),
(518,721,o),
(406,721,cs),
(210,721,o),
(68,606,o),
(68,448,cs),
(68,303,o),
(188,272,o),
(319,239,cs),
(390,220,o),
(400,217,o),
(400,216,cs),
(400,193,o),
(360,171,o),
(307,171,cs),
(242,171,o),
(176,198,o),
(128,243,c),
(-31,93,l),
(46,13,o),
(166,-34,o),
(293,-34,cs)
);
}
);
width = 650;
},
{
anchors = (
{
name = bottom;
position = "{277, 0}";
},
{
name = top;
position = "{417, 687}";
}
);
layerId = "4574EF20-24B0-4ACA-8F83-7A663124D906";
shapes = (
{
closed = 1;
nodes = (
(475,-12,o),
(619,87,o),
(619,240,cs),
(619,349,o),
(547,387,o),
(387,424,cs),
(312,441,o),
(288,446,o),
(288,471,cs),
(288,500,o),
(321,538,o),
(388,538,cs),
(432,538,o),
(502,522,o),
(559,473,c),
(675,601,l),
(606,666,o),
(510,699,o),
(406,699,cs),
(216,699,o),
(90,589,o),
(90,448,cs),
(90,320,o),
(193,293,o),
(324,260,cs),
(403,240,o),
(422,238,o),
(422,216,cs),
(422,186,o),
(385,149,o),
(307,149,cs),
(244,149,o),
(169,173,o),
(111,228,c),
(-15,109,l),
(56,34,o),
(169,-12,o),
(293,-12,cs)
);
}
);
width = 650;
},
{
anchors = (
{
name = bottom;
position = "{259, 0}";
},
{
name = top;
position = "{398, 687}";
}
);
layerId = "66606BEF-A73D-42AA-BCC4-03AD2ED94557";
associatedMasterId = "F208817E-C060-4D60-AB62-CCF376900793";
name = bubble;
shapes = (
{
closed = 1;
nodes = (
(467,-75,o),
(600,49,o),
(600,222,cs),
(600,339,o),
(536,408,o),
(371,447,c),
(311,463,o),
(263,486,o),
(263,486,c),
(263,531,o),
(308,565,o),
(380,565,cs),
(424,565,o),
(481,536,o),
(510,498,c),
(657,645,l),
(592,716,o),
(484,764,o),
(388,764,cs),
(196,764,o),
(55,640,o),
(55,467,cs),
(55,353,o),
(132,288,o),
(298,249,cs),
(374,230,o),
(404,210,o),
(404,207,cs),
(404,160,o),
(353,124,o),
(274,124,cs),
(218,124,o),
(150,158,o),
(119,203,c),
(-31,55,l),
(36,-23,o),
(156,-75,o),
(268,-75,cs)
);
}
);
width = 614;
},
{
anchors = (
{
name = bottom;
position = "{260, 0}";
},
{
name = top;
position = "{399, 687}";
}
);
layerId = "F208817E-C060-4D60-AB62-CCF376900793";
shapes = (
{
closed = 1;
nodes = (
(433,-11,o),
(549,86,o),
(549,222,cs),
(549,305,o),
(494,352,o),
(356,385,cs),
(244,414,o),
(199,442,o),
(199,486,cs),
(199,570,o),
(274,629,o),
(380,629,cs),
(441,629,o),
(514,593,o),
(555,543,c),
(612,600,l),
(559,659,o),
(467,700,o),
(388,700,cs),
(230,700,o),
(119,603,o),
(119,467,cs),
(119,388,o),
(174,344,o),
(313,311,cs),
(424,283,o),
(468,253,o),
(468,207,cs),
(468,121,o),
(388,60,o),
(274,60,cs),
(201,60,o),
(118,100,o),
(73,157,c),
(15,100,l),
(69,35,o),
(173,-11,o),
(268,-11,cs)
);
}
);
width = 614;
},
{
anchors = (
{
name = bottom;
position = "{256, 0}";
},
{
name = top;
position = "{397, 687}";
}
);
layerId = "E5262BFA-468F-43E5-B452-C67934931082";
name = ItalicThin.bubble;
shapes = (
{
closed = 1;
nodes = (
(478,-86,o),
(637,46,o),
(637,208,cs),
(637,332,o),
(558,389,o),
(388,437,cs),
(280,468,o),
(266,478,o),
(266,490,cs),
(266,540,o),
(335,589,o),
(415,589,cs),
(471,589,o),
(525,564,o),
(555,522,c),
(687,654,l),
(618,730,o),
(519,775,o),
(417,775,cs),
(234,775,o),
(76,642,o),
(76,481,cs),
(76,359,o),
(159,308,o),
(330,260,cs),
(434,231,o),
(450,220,o),
(450,200,cs),
(450,150,o),
(377,100,o),
(290,100,cs),
(218,100,o),
(151,132,o),
(118,180,c),
(-12,45,l),
(57,-37,o),
(170,-86,o),
(288,-86,cs)
);
}
);
width = 653;
},
{
anchors = (
{
name = bottom;
position = "{284, 0}";
},
{
name = top;
position = "{425, 687}";
}
);
layerId = "35051489-9DA7-4E90-8534-9CC313302D4A";
shapes = (
{
closed = 1;
nodes = (
(437,-11,o),
(562,89,o),
(562,208,cs),
(562,294,o),
(502,327,o),
(368,365,cs),
(265,394,o),
(191,415,o),
(191,490,cs),
(191,584,o),
(293,664,o),
(415,664,cs),
(492,664,o),
(564,629,o),
(608,575,c),
(634,601,l),
(579,663,o),
(500,700,o),
(417,700,cs),
(275,700,o),
(155,600,o),
(155,481,cs),
(155,397,o),
(219,369,o),
(350,332,cs),
(448,305,o),
(525,282,o),
(525,200,cs),
(525,105,o),
(418,25,o),
(290,25,cs),
(207,25,o),
(117,59,o),
(65,125,c),
(40,99,l),
(99,26,o),
(196,-11,o),
(288,-11,cs)
);
}
);
width = 653;
}
);
leftKerningGroup = _R_S;
rightKerningGroup = _L_S;
unicode = 83;
},
{
color = 1;
glyphname = T;
layers = (
{
anchors = (
{
name = bottom;
position = "{276, 0}";
},
{
name = top;
position = "{425, 687}";
}
);
layerId = "9EC2A313-F861-4A0B-B22D-531AADAE0B73";
name = ItalicBlack.bubble;
shapes = (
{
closed = 1;
nodes = (
(517,0,l),
(613,461,l),
(682,461,l),
(729,687,l),
(89,687,l),
(42,461,l),
(111,461,l),
(15,0,l)
);
}
);
width = 640;
},
{
anchors = (
{
name = bottom;
position = "{260, 0}";
},
{
name = top;
position = "{409, 687}";
}
);
layerId = "4574EF20-24B0-4ACA-8F83-7A663124D906";
shapes = (
{
closed = 1;
nodes = (
(363,0,l),
(470,514,l),
(673,514,l),
(709,687,l),
(109,687,l),
(73,514,l),
(276,514,l),
(169,0,l)
);
}
);
width = 640;
},
{
anchors = (
{
name = bottom;
position = "{233, 0}";
},
{
name = top;
position = "{384, 687}";
}
);
layerId = "66606BEF-A73D-42AA-BCC4-03AD2ED94557";
associatedMasterId = "F208817E-C060-4D60-AB62-CCF376900793";
name = bubble;
shapes = (
{
closed = 1;
nodes = (
(469,0,l),
(584,549,l),
(698,549,l),
(726,687,l),
(89,687,l),
(61,549,l),
(175,549,l),
(60,0,l)
);
}
);
width = 638;
},
{
anchors = (
{
name = bottom;
position = "{257, 0}";
},
{
name = top;
position = "{408, 687}";
}
);
layerId = "F208817E-C060-4D60-AB62-CCF376900793";
shapes = (
{
closed = 1;
nodes = (
(304,0,l),
(432,613,l),
(663,613,l),
(678,687,l),
(138,687,l),
(123,613,l),
(354,613,l),
(226,0,l)
);
}
);
width = 638;
},
{
anchors = (
{
name = bottom;
position = "{208, 0}";
},
{
name = top;
position = "{361, 687}";
}
);
layerId = "E5262BFA-468F-43E5-B452-C67934931082";
name = ItalicThin.bubble;
shapes = (
{
closed = 1;
nodes = (
(198,562,l),
(81,0,l),
(499,0,l),
(616,562,l),
(751,562,l),
(775,687,l),
(89,687,l),
(64,562,l)
);
}
);
width = 688;
},
{
anchors = (
{
name = bottom;
position = "{281, 0}";
},
{
name = top;
position = "{434, 687}";
}
);
layerId = "35051489-9DA7-4E90-8534-9CC313302D4A";
shapes = (
{
closed = 1;
nodes = (
(308,0,l),
(444,651,l),
(696,651,l),
(703,687,l),
(163,687,l),
(156,651,l),
(408,651,l),
(272,0,l)
);
}
);
width = 688;
}
);
leftKerningGroup = _R_T;
rightKerningGroup = _L_T;
unicode = 84;
},
{
color = 1;
glyphname = U;
layers = (
{
anchors = (
{
name = bottom;
position = "{351, 0}";
},
{
name = top;
position = "{460, 687}";
}
);
layerId = "9EC2A313-F861-4A0B-B22D-531AADAE0B73";
name = ItalicBlack.bubble;
shapes = (
{
closed = 1;
nodes = (
(540,-59,o),
(713,82,o),
(756,288,cs),
(839,687,l),
(89,687,l),
(13,323,ls),
(-33,105,o),
(105,-59,o),
(330,-59,cs)
);
}
);
width = 750;
},
{
anchors = (
{
name = bottom;
position = "{339, 0}";
},
{
name = top;
position = "{448, 687}";
}
);
layerId = "4574EF20-24B0-4ACA-8F83-7A663124D906";
shapes = (
{
closed = 1;
nodes = (
(516,-12,o),
(671,111,o),
(709,297,cs),
(790,687,l),
(596,687,l),
(521,323,ls),
(502,235,o),
(426,164,o),
(342,164,cs),
(270,164,o),
(233,219,o),
(251,307,cs),
(330,687,l),
(136,687,l),
(58,313,ls),
(20,127,o),
(132,-12,o),
(330,-12,cs)
);
}
);
width = 750;
},
{
anchors = (
{
name = bottom;
position = "{339, 0}";
},
{
name = top;
position = "{464, 687}";
}
);
layerId = "66606BEF-A73D-42AA-BCC4-03AD2ED94557";
associatedMasterId = "F208817E-C060-4D60-AB62-CCF376900793";
name = bubble;
shapes = (
{
closed = 1;
nodes = (
(499,-78,o),
(669,66,o),
(712,269,cs),
(799,687,l),
(89,687,l),
(9,301,ls),
(-35,84,o),
(89,-78,o),
(300,-78,cs)
);
}
);
width = 710;
},
{
anchors = (
{
name = bottom;
position = "{317, 0}";
},
{
name = top;
position = "{442, 687}";
}
);
layerId = "F208817E-C060-4D60-AB62-CCF376900793";
shapes = (
{
closed = 1;
nodes = (
(468,-12,o),
(611,110,o),
(647,282,cs),
(731,687,l),
(653,687,l),
(570,288,ls),
(543,154,o),
(437,59,o),
(314,59,cs),
(192,59,o),
(124,151,o),
(151,282,cs),
(235,687,l),
(157,687,l),
(74,288,ls),
(38,112,o),
(131,-12,o),
(300,-12,cs)
);
}
);
width = 710;
},
{
anchors = (
{
name = bottom;
position = "{326, 0}";
},
{
name = top;
position = "{454, 687}";
}
);
layerId = "E5262BFA-468F-43E5-B452-C67934931082";
name = ItalicThin.bubble;
shapes = (
{
closed = 1;
nodes = (
(500,-100,o),
(668,44,o),
(709,246,cs),
(800,687,l),
(89,687,l),
(6,284,ls),
(-40,67,o),
(89,-100,o),
(303,-100,cs)
);
}
);
width = 712;
},
{
anchors = (
{
name = bottom;
position = "{312, 0}";
},
{
name = top;
position = "{440, 687}";
}
);
layerId = "35051489-9DA7-4E90-8534-9CC313302D4A";
shapes = (
{
closed = 1;
nodes = (
(457,-12,o),
(590,102,o),
(623,264,cs),
(711,687,l),
(675,687,l),
(588,266,ls),
(559,125,o),
(441,24,o),
(305,24,cs),
(171,24,o),
(98,123,o),
(127,264,cs),
(215,687,l),
(179,687,l),
(92,266,ls),
(58,104,o),
(145,-12,o),
(303,-12,cs)
);
}
);
width = 712;
}
);
leftKerningGroup = _R_U;
rightKerningGroup = _L_U;
unicode = 85;
},
{
color = 1;
glyphname = V;
layers = (
{
layerId = "9EC2A313-F861-4A0B-B22D-531AADAE0B73";
name = ItalicBlack.bubble;
shapes = (
{
closed = 1;
nodes = (
(619,0,l),
(890,687,l),
(89,687,l),
(76,0,l)
);
}
);
width = 801;
},
{
layerId = "4574EF20-24B0-4ACA-8F83-7A663124D906";
shapes = (
{
alignment = -1;
ref = capital_V;
}
);
width = 801;
},
{
layerId = "66606BEF-A73D-42AA-BCC4-03AD2ED94557";
associatedMasterId = "F208817E-C060-4D60-AB62-CCF376900793";
name = bubble;
shapes = (
{
closed = 1;
nodes = (
(519,0,l),
(830,687,l),
(89,687,l),
(114,0,l)
);
}
);
width = 741;
},
{
layerId = "F208817E-C060-4D60-AB62-CCF376900793";
shapes = (
{
alignment = -1;
ref = capital_V;
}
);
width = 741;
},
{
layerId = "E5262BFA-468F-43E5-B452-C67934931082";
name = ItalicThin.bubble;
shapes = (
{
closed = 1;
nodes = (
(460,0,l),
(765,687,l),
(89,687,l),
(110,0,l)
);
}
);
width = 676;
},
{
layerId = "35051489-9DA7-4E90-8534-9CC313302D4A";
shapes = (
{
alignment = -1;
ref = capital_V;
}
);
width = 676;
}
);
leftKerningGroup = _R_V;
rightKerningGroup = _L_V;
unicode = 86;
},
{
color = 1;
glyphname = W;
layers = (
{
anchors = (
{
name = top;
position = "{631, 687}";
}
);
layerId = "9EC2A313-F861-4A0B-B22D-531AADAE0B73";
name = ItalicBlack.bubble;
shapes = (
{
closed = 1;
nodes = (
(930,0,l),
(1177,687,l),
(89,687,l),
(51,0,l)
);
}
);
width = 1088;
},
{
anchors = (
{
name = top;
position = "{631, 687}";
}
);
layerId = "4574EF20-24B0-4ACA-8F83-7A663124D906";
shapes = (
{
closed = 1;
nodes = (
(347,0,l),
(576,397,l),
(634,0,l),
(830,0,l),
(1163,687,l),
(951,687,l),
(783,290,l),
(735,687,l),
(526,687,l),
(309,290,l),
(309,687,l),
(103,687,l),
(151,0,l)
);
}
);
width = 1088;
},
{
anchors = (
{
name = top;
position = "{639, 687}";
}
);
layerId = "66606BEF-A73D-42AA-BCC4-03AD2ED94557";
associatedMasterId = "F208817E-C060-4D60-AB62-CCF376900793";
name = bubble;
shapes = (
{
closed = 1;
nodes = (
(905,0,l),
(1190,687,l),
(89,687,l),
(88,0,l)
);
}
);
width = 1101;
},
{
anchors = (
{
name = top;
position = "{639, 687}";
}
);
layerId = "F208817E-C060-4D60-AB62-CCF376900793";
shapes = (
{
closed = 1;
nodes = (
(305,0,l),
(620,585,l),
(688,0,l),
(765,0,l),
(1143,687,l),
(1054,687,l),
(747,131,l),
(682,687,l),
(595,687,l),
(296,131,l),
(223,687,l),
(136,687,l),
(228,0,l)
);
}
);
width = 1101;
},
{
anchors = (
{
name = top;
position = "{642, 687}";
}
);
layerId = "E5262BFA-468F-43E5-B452-C67934931082";
name = ItalicThin.bubble;
shapes = (
{
closed = 1;
nodes = (
(919,0,l),
(1196,687,l),
(89,687,l),
(80,0,l)
);
}
);
width = 1107;
},
{
anchors = (
{
name = top;
position = "{642, 687}";
}
);
layerId = "35051489-9DA7-4E90-8534-9CC313302D4A";
shapes = (
{
closed = 1;
nodes = (
(289,0,l),
(631,629,l),
(710,0,l),
(749,0,l),
(1122,687,l),
(1082,687,l),
(741,58,l),
(661,687,l),
(622,687,l),
(281,58,l),
(201,687,l),
(163,687,l),
(250,0,l)
);
}
);
width = 1107;
}
);
leftKerningGroup = _R_W;
rightKerningGroup = _L_W;
unicode = 87;
},
{
color = 1;
glyphname = X;
layers = (
{
layerId = "9EC2A313-F861-4A0B-B22D-531AADAE0B73";
name = ItalicBlack.bubble;
shapes = (
{
closed = 1;
nodes = (
(92,351,l),
(102,687,l),
(843,687,l),
(697,336,l),
(687,0,l),
(-54,0,l)
);
}
);
width = 754;
},
{
layerId = "4574EF20-24B0-4ACA-8F83-7A663124D906";
shapes = (
{
closed = 1;
nodes = (
(114,687,l),
(332,687,l),
(675,0,l),
(457,0,l)
);
},
{
closed = 1;
nodes = (
(591,687,l),
(831,687,l),
(198,0,l),
(-42,0,l)
);
}
);
width = 754;
},
{
layerId = "66606BEF-A73D-42AA-BCC4-03AD2ED94557";
associatedMasterId = "F208817E-C060-4D60-AB62-CCF376900793";
name = bubble;
shapes = (
{
closed = 1;
nodes = (
(110,345,l),
(92,687,l),
(809,687,l),
(645,342,l),
(663,0,l),
(-54,0,l)
);
}
);
width = 720;
},
{
layerId = "F208817E-C060-4D60-AB62-CCF376900793";
shapes = (
{
closed = 1;
nodes = (
(140,687,l),
(233,687,l),
(615,0,l),
(522,0,l)
);
},
{
closed = 1;
nodes = (
(663,687,l),
(761,687,l),
(92,0,l),
(-6,0,l)
);
}
);
width = 720;
},
{
layerId = "E5262BFA-468F-43E5-B452-C67934931082";
name = ItalicThin.bubble;
shapes = (
{
closed = 1;
nodes = (
(115,344,l),
(91,687,l),
(810,687,l),
(640,342,l),
(664,0,l),
(-54,0,l)
);
}
);
width = 721;
},
{
layerId = "35051489-9DA7-4E90-8534-9CC313302D4A";
shapes = (
{
closed = 1;
nodes = (
(165,687,l),
(207,687,l),
(590,0,l),
(547,0,l)
);
},
{
closed = 1;
nodes = (
(689,687,l),
(736,687,l),
(67,0,l),
(20,0,l)
);
}
);
width = 721;
}
);
leftKerningGroup = _R_X;
rightKerningGroup = _L_X;
unicode = 88;
},
{
color = 1;
glyphname = Y;
layers = (
{
anchors = (
{
name = top;
position = "{438, 687}";
}
);
layerId = "9EC2A313-F861-4A0B-B22D-531AADAE0B73";
name = ItalicBlack.bubble;
shapes = (
{
closed = 1;
nodes = (
(588,0,l),
(638,226,l),
(824,687,l),
(89,687,l),
(84,226,l),
(34,0,l)
);
}
);
width = 735;
},
{
anchors = (
{
name = top;
position = "{438, 687}";
}
);
layerId = "4574EF20-24B0-4ACA-8F83-7A663124D906";
shapes = (
{
closed = 1;
nodes = (
(408,0,l),
(458,226,l),
(817,687,l),
(599,687,l),
(382,394,l),
(276,687,l),
(96,687,l),
(264,226,l),
(214,0,l)
);
}
);
width = 735;
},
{
anchors = (
{
name = top;
position = "{444, 687}";
}
);
layerId = "66606BEF-A73D-42AA-BCC4-03AD2ED94557";
associatedMasterId = "F208817E-C060-4D60-AB62-CCF376900793";
name = bubble;
shapes = (
{
closed = 1;
nodes = (
(560,0,l),
(620,280,l),
(816,687,l),
(89,687,l),
(108,280,l),
(48,0,l)
);
}
);
width = 727;
},
{
anchors = (
{
name = top;
position = "{444, 687}";
}
);
layerId = "F208817E-C060-4D60-AB62-CCF376900793";
shapes = (
{
closed = 1;
nodes = (
(350,0,l),
(410,280,l),
(770,687,l),
(674,687,l),
(375,347,l),
(214,687,l),
(135,687,l),
(328,280,l),
(268,0,l)
);
}
);
width = 727;
},
{
anchors = (
{
name = top;
position = "{457, 687}";
}
);
layerId = "E5262BFA-468F-43E5-B452-C67934931082";
name = ItalicThin.bubble;
shapes = (
{
closed = 1;
nodes = (
(584,0,l),
(643,279,l),
(831,687,l),
(89,687,l),
(106,279,l),
(47,0,l)
);
}
);
width = 742;
},
{
anchors = (
{
name = top;
position = "{457, 687}";
}
);
layerId = "35051489-9DA7-4E90-8534-9CC313302D4A";
shapes = (
{
closed = 1;
nodes = (
(334,0,l),
(393,279,l),
(758,687,l),
(711,687,l),
(379,317,l),
(202,687,l),
(162,687,l),
(357,279,l),
(298,0,l)
);
}
);
width = 742;
}
);
leftKerningGroup = _R_Y;
rightKerningGroup = _L_Y;
unicode = 89;
},
{
color = 1;
glyphname = Z;
layers = (
{
anchors = (
{
name = top;
position = "{427, 687}";
}
);
layerId = "9EC2A313-F861-4A0B-B22D-531AADAE0B73";
name = ItalicBlack.bubble;
shapes = (
{
closed = 1;
nodes = (
(620,0,l),
(763,687,l),
(89,687,l),
(-54,0,l)
);
}
);
width = 674;
},
{
anchors = (
{
name = top;
position = "{427, 687}";
}
);
layerId = "4574EF20-24B0-4ACA-8F83-7A663124D906";
shapes = (
{
closed = 1;
nodes = (
(581,0,l),
(617,173,l),
(291,173,l),
(691,542,l),
(719,687,l),
(135,687,l),
(99,514,l),
(415,514,l),
(12,145,l),
(-14,0,l)
);
}
);
width = 674;
},
{
anchors = (
{
name = top;
position = "{406, 687}";
}
);
layerId = "66606BEF-A73D-42AA-BCC4-03AD2ED94557";
associatedMasterId = "F208817E-C060-4D60-AB62-CCF376900793";
name = bubble;
shapes = (
{
closed = 1;
nodes = (
(577,0,l),
(720,687,l),
(89,687,l),
(-54,0,l)
);
}
);
width = 631;
},
{
anchors = (
{
name = top;
position = "{406, 687}";
}
);
layerId = "F208817E-C060-4D60-AB62-CCF376900793";
shapes = (
{
closed = 1;
nodes = (
(524,0,l),
(540,74,l),
(122,74,l),
(651,625,l),
(663,687,l),
(149,687,l),
(134,613,l),
(540,613,l),
(11,62,l),
(0,0,l)
);
}
);
width = 631;
},
{
anchors = (
{
name = top;
position = "{418, 687}";
}
);
layerId = "E5262BFA-468F-43E5-B452-C67934931082";
name = ItalicThin.bubble;
shapes = (
{
closed = 1;
nodes = (
(602,0,l),
(745,687,l),
(89,687,l),
(-54,0,l)
);
}
);
width = 656;
},
{
anchors = (
{
name = top;
position = "{418, 687}";
}
);
layerId = "35051489-9DA7-4E90-8534-9CC313302D4A";
shapes = (
{
closed = 1;
nodes = (
(526,0,l),
(534,36,l),
(74,36,l),
(660,657,l),
(665,687,l),
(171,687,l),
(164,651,l),
(613,651,l),
(27,30,l),
(22,0,l)
);
}
);
width = 656;
}
);
leftKerningGroup = _R_Z;
rightKerningGroup = _L_Z;
unicode = 90;
},
{
color = 1;
glyphname = ae;
layers = (
{
anchors = (
{
name = bottom;
position = "{590, -12}";
},
{
name = top;
position = "{672, 517}";
}
);
layerId = "9EC2A313-F861-4A0B-B22D-531AADAE0B73";
name = ItalicBlack.bubble;
shapes = (
{
closed = 1;
nodes = (
(148,330,l),
(53,303,o),
(-21,229,o),
(-21,141,cs),
(-21,42,o),
(62,-29,o),
(199,-29,cs),
(281,-29,o),
(351,-7,o),
(401,34,c),
(446,-7,o),
(511,-29,o),
(584,-29,cs),
(665,-29,o),
(760,3,o),
(816,50,c),
(701,193,l),
(660,164,o),
(618,149,o),
(581,149,cs),
(549,149,o),
(530,166,o),
(524,196,c),
(610,196,ls),
(784,196,o),
(888,265,o),
(888,388,cs),
(888,481,o),
(792,546,o),
(664,546,cs),
(596,546,o),
(529,526,o),
(474,489,c),
(437,526,o),
(381,546,o),
(316,546,cs),
(233,546,o),
(168,523,o),
(89,487,c)
);
}
);
width = 865;
},
{
anchors = (
{
name = bottom;
position = "{590, -12}";
},
{
name = top;
position = "{672, 517}";
}
);
layerId = "4574EF20-24B0-4ACA-8F83-7A663124D906";
shapes = (
{
closed = 1;
nodes = (
(285,-12,o),
(354,12,o),
(401,57,c),
(442,14,o),
(505,-12,o),
(584,-12,cs),
(657,-12,o),
(749,16,o),
(805,63,c),
(712,180,l),
(674,153,o),
(627,132,o),
(581,132,cs),
(534,132,o),
(506,163,o),
(506,213,cs),
(506,295,o),
(574,385,o),
(659,385,cs),
(689,385,o),
(711,374,o),
(711,359,cs),
(711,331,o),
(680,314,o),
(631,314,cs),
(413,314,l),
(392,213,l),
(610,213,ls),
(771,213,o),
(866,272,o),
(866,388,cs),
(866,471,o),
(782,529,o),
(664,529,cs),
(591,529,o),
(524,505,o),
(471,466,c),
(439,505,o),
(385,529,o),
(316,529,cs),
(235,529,o),
(174,507,o),
(95,471,c),
(143,343,l),
(182,362,o),
(226,376,o),
(277,376,cs),
(338,376,o),
(366,358,o),
(357,313,cs),
(354,297,l),
(318,315,o),
(278,325,o),
(239,325,cs),
(120,325,o),
(15,262,o),
(-5,168,cs),
(-27,64,o),
(59,-12,o),
(199,-12,cs)
);
},
{
closed = 1;
nodes = (
(189,112,o),
(173,124,o),
(177,143,cs),
(185,179,o),
(223,208,o),
(266,208,cs),
(288,208,o),
(313,206,o),
(333,195,c),
(328,171,ls),
(321,138,o),
(278,112,o),
(217,112,cs)
);
}
);
width = 865;
},
{
anchors = (
{
name = bottom;
position = "{600, -12}";
},
{
name = top;
position = "{706, 517}";
}
);
layerId = "66606BEF-A73D-42AA-BCC4-03AD2ED94557";
associatedMasterId = "F208817E-C060-4D60-AB62-CCF376900793";
name = bubble;
shapes = (
{
closed = 1;
nodes = (
(-44,38,o),
(33,-44,o),
(180,-44,cs),
(264,-44,o),
(350,-8,o),
(412,52,c),
(455,-9,o),
(526,-44,o),
(608,-44,cs),
(693,-44,o),
(800,-7,o),
(855,41,c),
(777,144,l),
(743,112,o),
(676,87,o),
(621,87,cs),
(552,87,o),
(510,127,o),
(505,198,c),
(656,198,ls),
(822,198,o),
(933,272,o),
(933,386,cs),
(933,487,o),
(839,561,o),
(716,561,cs),
(640,561,o),
(563,530,o),
(500,478,c),
(466,532,o),
(403,561,o),
(319,561,cs),
(260,561,o),
(189,543,o),
(115,510,c),
(160,387,l),
(211,411,o),
(262,433,o),
(312,433,cs),
(375,433,o),
(399,404,o),
(387,335,c),
(338,350,o),
(290,357,o),
(244,357,cs),
(115,357,o),
(3,276,o),
(-19,165,cs)
);
},
{
closed = 1;
nodes = (
(386,331,l),
(385,325,l)
);
}
);
width = 910;
},
{
anchors = (
{
name = bottom;
position = "{600, -12}";
},
{
name = top;
position = "{706, 517}";
}
);
layerId = "F208817E-C060-4D60-AB62-CCF376900793";
shapes = (
{
closed = 1;
nodes = (
(272,-12,o),
(363,36,o),
(418,106,c),
(450,33,o),
(520,-12,o),
(608,-12,cs),
(678,-12,o),
(781,17,o),
(836,66,c),
(796,119,l),
(758,84,o),
(685,55,o),
(621,55,cs),
(529,55,o),
(473,116,o),
(473,210,cs),
(473,339,o),
(576,462,o),
(710,462,cs),
(777,462,o),
(827,432,o),
(827,382,cs),
(827,328,o),
(770,297,o),
(670,297,cs),
(463,297,l),
(449,230,l),
(656,230,ls),
(810,230,o),
(901,295,o),
(901,386,cs),
(901,475,o),
(813,529,o),
(716,529,cs),
(631,529,o),
(548,487,o),
(489,423,c),
(471,488,o),
(415,529,o),
(319,529,cs),
(272,529,o),
(208,517,o),
(126,480,c),
(149,417,l),
(200,441,o),
(257,465,o),
(312,465,cs),
(421,465,o),
(431,388,o),
(416,318,cs),
(411,294,l),
(361,312,o),
(303,325,o),
(244,325,cs),
(135,325,o),
(32,259,o),
(12,159,cs),
(-9,52,o),
(53,-12,o),
(180,-12,cs)
);
},
{
closed = 1;
nodes = (
(112,54,o),
(70,89,o),
(83,150,cs),
(97,215,o),
(174,262,o),
(253,262,cs),
(307,262,o),
(356,255,o),
(400,242,c),
(392,206,ls),
(376,125,o),
(285,54,o),
(196,54,cs)
);
}
);
width = 910;
},
{
anchors = (
{
name = bottom;
position = "{645, -12}";
},
{
name = top;
position = "{752, 517}";
}
);
layerId = "E5262BFA-468F-43E5-B452-C67934931082";
name = ItalicThin.bubble;
shapes = (
{
closed = 1;
nodes = (
(-47,38,o),
(44,-60,o),
(191,-60,cs),
(285,-60,o),
(372,-20,o),
(433,48,c),
(479,-19,o),
(554,-60,o),
(640,-60,cs),
(734,-60,o),
(844,-22,o),
(903,31,c),
(818,132,l),
(777,94,o),
(712,72,o),
(645,72,cs),
(576,72,o),
(526,122,o),
(520,194,c),
(693,194,ls),
(872,194,o),
(984,266,o),
(984,387,cs),
(984,498,o),
(885,577,o),
(751,577,cs),
(667,577,o),
(582,541,o),
(515,480,c),
(481,541,o),
(415,577,o),
(330,577,cs),
(266,577,o),
(186,556,o),
(121,523,c),
(177,405,l),
(226,431,o),
(277,445,o),
(323,445,cs),
(386,445,o),
(414,413,o),
(408,350,c),
(359,365,o),
(310,373,o),
(267,373,cs),
(124,373,o),
(6,289,o),
(-20,167,cs)
);
}
);
width = 960;
},
{
anchors = (
{
name = bottom;
position = "{645, -12}";
},
{
name = top;
position = "{752, 517}";
}
);
layerId = "35051489-9DA7-4E90-8534-9CC313302D4A";
shapes = (
{
closed = 1;
nodes = (
(300,-12,o),
(395,50,o),
(442,145,c),
(465,53,o),
(540,-12,o),
(640,-12,cs),
(721,-12,o),
(819,20,o),
(871,67,c),
(850,96,l),
(798,49,o),
(720,24,o),
(645,24,cs),
(543,24,o),
(471,105,o),
(471,209,cs),
(471,350,o),
(599,493,o),
(745,493,cs),
(836,493,o),
(900,448,o),
(900,385,cs),
(900,318,o),
(826,278,o),
(700,278,cs),
(465,278,l),
(458,242,l),
(693,242,ls),
(846,242,o),
(936,296,o),
(936,387,cs),
(936,470,o),
(859,529,o),
(751,529,cs),
(649,529,o),
(552,468,o),
(493,382,c),
(488,471,o),
(431,529,o),
(330,529,cs),
(277,529,o),
(207,513,o),
(143,480,c),
(154,447,l),
(208,476,o),
(269,493,o),
(323,493,cs),
(444,493,o),
(469,403,o),
(451,316,cs),
(445,287,l),
(391,309,o),
(326,325,o),
(267,325,cs),
(144,325,o),
(48,255,o),
(27,157,cs),
(6,58,o),
(75,-12,o),
(191,-12,cs)
);
},
{
closed = 1;
nodes = (
(102,24,o),
(46,77,o),
(62,152,cs),
(79,232,o),
(163,289,o),
(270,289,cs),
(328,289,o),
(389,272,o),
(439,254,c),
(431,217,ls),
(407,105,o),
(310,24,o),
(197,24,cs)
);
}
);
width = 960;
}
);
leftKerningGroup = _R_a;
rightKerningGroup = _L_e;
unicode = 230;
},
{
color = 1;
glyphname = b;
layers = (
{
layerId = "9EC2A313-F861-4A0B-B22D-531AADAE0B73";
name = ItalicBlack.bubble;
shapes = (
{
closed = 1;
nodes = (
(253,0,l),
(253,2,l),
(287,-21,o),
(330,-34,o),
(378,-34,cs),
(548,-34,o),
(686,125,o),
(686,318,cs),
(686,458,o),
(598,551,o),
(466,551,cs),
(430,551,o),
(395,543,o),
(363,530,c),
(398,699,l),
(92,699,l),
(-53,0,l)
);
}
);
width = 682;
},
{
layerId = "4574EF20-24B0-4ACA-8F83-7A663124D906";
shapes = (
{
closed = 1;
nodes = (
(544,-12,o),
(664,147,o),
(664,318,cs),
(664,444,o),
(588,529,o),
(466,529,cs),
(303,529,o),
(184,368,o),
(184,199,cs),
(184,73,o),
(258,-12,o),
(378,-12,cs)
);
},
{
closed = 1;
nodes = (
(279,148,o),
(251,175,o),
(251,219,cs),
(251,292,o),
(317,369,o),
(397,369,cs),
(449,369,o),
(480,341,o),
(480,296,cs),
(480,221,o),
(409,148,o),
(326,148,cs)
);
},
{
closed = 1;
nodes = (
(203,0,l),
(348,699,l),
(155,699,l),
(10,0,l)
);
}
);
width = 682;
},
{
layerId = "66606BEF-A73D-42AA-BCC4-03AD2ED94557";
associatedMasterId = "F208817E-C060-4D60-AB62-CCF376900793";
name = bubble;
shapes = (
{
closed = 1;
nodes = (
(137,0,l),
(172,-29,o),
(215,-47,o),
(261,-47,cs),
(447,-47,o),
(602,123,o),
(602,324,cs),
(602,454,o),
(497,564,o),
(373,564,cs),
(329,564,o),
(287,553,o),
(249,534,c),
(283,699,l),
(91,699,l),
(-54,0,l)
);
}
);
width = 597;
},
{
layerId = "F208817E-C060-4D60-AB62-CCF376900793";
shapes = (
{
closed = 1;
nodes = (
(427,-12,o),
(567,142,o),
(567,324,cs),
(567,435,o),
(478,529,o),
(373,529,cs),
(218,529,o),
(88,373,o),
(88,187,cs),
(88,79,o),
(167,-12,o),
(261,-12,cs)
);
},
{
closed = 1;
nodes = (
(194,55,o),
(127,121,o),
(127,199,cs),
(127,342,o),
(233,462,o),
(359,462,cs),
(430,462,o),
(489,396,o),
(489,318,cs),
(489,175,o),
(391,55,o),
(274,55,cs)
);
},
{
closed = 1;
nodes = (
(80,0,l),
(225,699,l),
(150,699,l),
(5,0,l)
);
}
);
width = 597;
},
{
layerId = "E5262BFA-468F-43E5-B452-C67934931082";
name = ItalicThin.bubble;
shapes = (
{
closed = 1;
nodes = (
(83,0,l),
(125,-39,o),
(183,-61,o),
(254,-61,cs),
(427,-61,o),
(595,126,o),
(595,318,cs),
(595,468,o),
(497,578,o),
(361,578,cs),
(314,578,o),
(270,568,o),
(229,549,c),
(260,699,l),
(91,699,l),
(-53,0,l)
);
}
);
width = 590;
},
{
layerId = "35051489-9DA7-4E90-8534-9CC313302D4A";
shapes = (
{
closed = 1;
nodes = (
(400,-12,o),
(546,153,o),
(546,318,cs),
(546,442,o),
(469,529,o),
(361,529,cs),
(198,529,o),
(60,374,o),
(60,190,cs),
(60,63,o),
(132,-12,o),
(254,-12,cs)
);
},
{
closed = 1;
nodes = (
(153,24,o),
(96,86,o),
(96,192,cs),
(96,355,o),
(213,493,o),
(352,493,cs),
(444,493,o),
(509,419,o),
(509,314,cs),
(509,169,o),
(379,24,o),
(249,24,cs)
);
},
{
closed = 1;
nodes = (
(49,0,l),
(194,699,l),
(158,699,l),
(13,0,l)
);
}
);
width = 590;
}
);
leftKerningGroup = _R_b;
rightKerningGroup = _L_b;
unicode = 98;
},
{
color = 1;
glyphname = c;
layers = (
{
anchors = (
{
name = bottom;
position = "{247, 0}";
},
{
name = top;
position = "{340, 517}";
}
);
layerId = "9EC2A313-F861-4A0B-B22D-531AADAE0B73";
name = ItalicBlack.bubble;
shapes = (
{
closed = 1;
nodes = (
(351,-30,o),
(432,0,o),
(498,58,c),
(576,434,l),
(527,507,o),
(449,547,o),
(355,547,cs),
(169,547,o),
(-2,393,o),
(-2,222,cs),
(-2,79,o),
(113,-30,o),
(264,-30,cs)
);
}
);
width = 540;
},
{
anchors = (
{
name = bottom;
position = "{247, 0}";
},
{
name = top;
position = "{340, 517}";
}
);
layerId = "4574EF20-24B0-4ACA-8F83-7A663124D906";
shapes = (
{
closed = 1;
nodes = (
(354,-12,o),
(432,21,o),
(496,81,c),
(383,195,l),
(359,171,o),
(314,148,o),
(275,148,cs),
(229,148,o),
(197,181,o),
(197,225,cs),
(197,293,o),
(270,369,o),
(345,369,cs),
(371,369,o),
(404,358,o),
(419,335,c),
(559,427,l),
(519,485,o),
(453,529,o),
(355,529,cs),
(188,529,o),
(16,391,o),
(16,222,cs),
(16,91,o),
(120,-12,o),
(264,-12,cs)
);
}
);
width = 540;
},
{
anchors = (
{
name = bottom;
position = "{243, 0}";
},
{
name = top;
position = "{344, 517}";
}
);
layerId = "66606BEF-A73D-42AA-BCC4-03AD2ED94557";
associatedMasterId = "F208817E-C060-4D60-AB62-CCF376900793";
name = bubble;
shapes = (
{
closed = 1;
nodes = (
(331,-46,o),
(407,-17,o),
(474,40,c),
(562,461,l),
(519,520,o),
(433,563,o),
(358,563,cs),
(162,563,o),
(-3,401,o),
(-3,208,cs),
(-3,70,o),
(111,-46,o),
(246,-46,cs)
);
}
);
width = 520;
},
{
anchors = (
{
name = bottom;
position = "{243, 0}";
},
{
name = top;
position = "{344, 517}";
}
);
layerId = "F208817E-C060-4D60-AB62-CCF376900793";
shapes = (
{
closed = 1;
nodes = (
(322,-12,o),
(390,13,o),
(452,65,c),
(407,120,l),
(360,76,o),
(311,55,o),
(259,55,cs),
(178,55,o),
(109,127,o),
(109,213,cs),
(109,348,o),
(216,462,o),
(344,462,cs),
(392,462,o),
(443,438,o),
(467,404,c),
(526,451,l),
(487,497,o),
(418,529,o),
(358,529,cs),
(180,529,o),
(31,382,o),
(31,208,cs),
(31,89,o),
(129,-12,o),
(246,-12,cs)
);
}
);
width = 520;
},
{
anchors = (
{
name = bottom;
position = "{253, 0}";
},
{
name = top;
position = "{354, 517}";
}
);
layerId = "E5262BFA-468F-43E5-B452-C67934931082";
name = ItalicThin.bubble;
shapes = (
{
closed = 1;
nodes = (
(328,-61,o),
(424,-23,o),
(484,32,c),
(575,466,l),
(534,531,o),
(442,578,o),
(362,578,cs),
(162,578,o),
(-5,403,o),
(-5,195,cs),
(-5,47,o),
(104,-61,o),
(255,-61,cs)
);
}
);
width = 532;
},
{
anchors = (
{
name = bottom;
position = "{253, 0}";
},
{
name = top;
position = "{354, 517}";
}
);
layerId = "35051489-9DA7-4E90-8534-9CC313302D4A";
shapes = (
{
closed = 1;
nodes = (
(315,-12,o),
(394,19,o),
(446,63,c),
(424,90,l),
(378,51,o),
(308,24,o),
(257,24,cs),
(153,24,o),
(80,96,o),
(80,198,cs),
(80,358,o),
(208,493,o),
(360,493,cs),
(411,493,o),
(467,466,o),
(496,429,c),
(525,452,l),
(489,497,o),
(422,529,o),
(362,529,cs),
(189,529,o),
(44,376,o),
(44,195,cs),
(44,74,o),
(131,-12,o),
(255,-12,cs)
);
}
);
width = 532;
}
);
leftKerningGroup = _R_c;
rightKerningGroup = _L_c;
unicode = 99;
},
{
color = 1;
glyphname = d;
layers = (
{
layerId = "9EC2A313-F861-4A0B-B22D-531AADAE0B73";
name = ItalicBlack.bubble;
shapes = (
{
closed = 1;
nodes = (
(-4,60,o),
(84,-34,o),
(216,-34,cs),
(262,-34,o),
(306,-22,o),
(346,0,c),
(629,0,l),
(774,699,l),
(453,699,l),
(416,523,l),
(385,541,o),
(347,551,o),
(304,551,cs),
(134,551,o),
(-4,391,o),
(-4,200,cs)
);
}
);
width = 683;
},
{
layerId = "4574EF20-24B0-4ACA-8F83-7A663124D906";
shapes = (
{
closed = 1;
nodes = (
(380,-12,o),
(498,148,o),
(498,319,cs),
(498,444,o),
(423,529,o),
(304,529,cs),
(138,529,o),
(18,369,o),
(18,200,cs),
(18,74,o),
(94,-12,o),
(216,-12,cs)
);
},
{
closed = 1;
nodes = (
(233,148,o),
(202,176,o),
(202,221,cs),
(202,298,o),
(273,369,o),
(357,369,cs),
(403,369,o),
(431,342,o),
(431,298,cs),
(431,226,o),
(366,148,o),
(286,148,cs)
);
},
{
closed = 1;
nodes = (
(565,0,l),
(710,699,l),
(517,699,l),
(372,0,l)
);
}
);
width = 683;
},
{
layerId = "66606BEF-A73D-42AA-BCC4-03AD2ED94557";
associatedMasterId = "F208817E-C060-4D60-AB62-CCF376900793";
name = bubble;
shapes = (
{
closed = 1;
nodes = (
(-5,63,o),
(99,-47,o),
(224,-47,cs),
(279,-47,o),
(331,-30,o),
(377,0,c),
(544,0,l),
(689,699,l),
(495,699,l),
(458,519,l),
(423,547,o),
(381,564,o),
(336,564,cs),
(150,564,o),
(-5,395,o),
(-5,194,cs)
);
}
);
width = 598;
},
{
layerId = "F208817E-C060-4D60-AB62-CCF376900793";
shapes = (
{
closed = 1;
nodes = (
(379,-12,o),
(509,145,o),
(509,331,cs),
(509,438,o),
(430,529,o),
(336,529,cs),
(170,529,o),
(30,376,o),
(30,194,cs),
(30,82,o),
(119,-12,o),
(224,-12,cs)
);
},
{
closed = 1;
nodes = (
(167,55,o),
(108,121,o),
(108,199,cs),
(108,342,o),
(206,462,o),
(322,462,cs),
(402,462,o),
(470,396,o),
(470,318,cs),
(470,175,o),
(364,55,o),
(238,55,cs)
);
},
{
closed = 1;
nodes = (
(485,0,l),
(630,699,l),
(555,699,l),
(410,0,l)
);
}
);
width = 598;
},
{
layerId = "E5262BFA-468F-43E5-B452-C67934931082";
name = ItalicThin.bubble;
shapes = (
{
closed = 1;
nodes = (
(-5,49,o),
(93,-61,o),
(230,-61,cs),
(297,-61,o),
(361,-39,o),
(415,0,c),
(536,0,l),
(681,699,l),
(511,699,l),
(478,541,l),
(441,565,o),
(395,578,o),
(342,578,cs),
(165,578,o),
(-5,392,o),
(-5,200,cs)
);
}
);
width = 590;
},
{
layerId = "35051489-9DA7-4E90-8534-9CC313302D4A";
shapes = (
{
closed = 1;
nodes = (
(393,-12,o),
(530,145,o),
(530,331,cs),
(530,455,o),
(460,529,o),
(342,529,cs),
(193,529,o),
(44,365,o),
(44,200,cs),
(44,76,o),
(121,-12,o),
(230,-12,cs)
);
},
{
closed = 1;
nodes = (
(145,24,o),
(80,98,o),
(80,202,cs),
(80,348,o),
(208,493,o),
(335,493,cs),
(434,493,o),
(493,429,o),
(493,321,cs),
(493,160,o),
(376,24,o),
(237,24,cs)
);
},
{
closed = 1;
nodes = (
(469,0,l),
(614,699,l),
(578,699,l),
(433,0,l)
);
}
);
width = 590;
}
);
leftKerningGroup = _R_d;
rightKerningGroup = _L_d;
unicode = 100;
},
{
color = 1;
glyphname = eth;
layers = (
{
layerId = "9EC2A313-F861-4A0B-B22D-531AADAE0B73";
name = ItalicBlack.bubble;
shapes = (
{
closed = 1;
nodes = (
(-4,63,o),
(101,-33,o),
(260,-33,cs),
(463,-33,o),
(624,139,o),
(624,358,cs),
(624,445,o),
(595,520,o),
(523,608,c),
(547,618,l),
(513,747,l),
(427,711,l),
(402,735,l),
(183,655,l),
(223,626,l),
(207,619,l),
(236,510,l),
(100,488,o),
(-4,359,o),
(-4,205,cs)
);
}
);
width = 613;
},
{
layerId = "4574EF20-24B0-4ACA-8F83-7A663124D906";
shapes = (
{
closed = 1;
nodes = (
(224,149,o),
(196,172,o),
(196,211,cs),
(196,275,o),
(260,338,o),
(333,338,cs),
(380,338,o),
(407,313,o),
(407,277,cs),
(407,211,o),
(344,149,o),
(270,149,cs)
);
},
{
closed = 1;
nodes = (
(207,664,l),
(311,588,o),
(397,520,o),
(416,427,c),
(385,461,o),
(346,492,o),
(276,492,cs),
(127,492,o),
(15,355,o),
(15,205,cs),
(15,76,o),
(111,-12,o),
(260,-12,cs),
(456,-12,o),
(601,156,o),
(601,358,cs),
(601,492,o),
(523,594,o),
(379,727,c)
);
},
{
closed = 1;
nodes = (
(542,638,l),
(519,726,l),
(212,599,l),
(235,511,l)
);
}
);
width = 613;
},
{
layerId = "66606BEF-A73D-42AA-BCC4-03AD2ED94557";
associatedMasterId = "F208817E-C060-4D60-AB62-CCF376900793";
name = bubble;
shapes = (
{
closed = 1;
nodes = (
(-6,49,o),
(94,-47,o),
(241,-47,cs),
(432,-47,o),
(590,130,o),
(590,342,cs),
(590,428,o),
(561,506,o),
(494,593,c),
(525,606,l),
(494,737,l),
(399,698,l),
(369,727,l),
(214,673,l),
(229,662,o),
(243,650,o),
(257,639,c),
(213,621,l),
(237,522,l),
(99,484,o),
(-6,348,o),
(-6,192,cs)
);
}
);
width = 582;
},
{
layerId = "F208817E-C060-4D60-AB62-CCF376900793";
shapes = (
{
closed = 1;
nodes = (
(159,56,o),
(107,110,o),
(107,193,cs),
(107,320,o),
(207,432,o),
(331,432,cs),
(420,432,o),
(468,373,o),
(468,294,cs),
(468,170,o),
(366,56,o),
(245,56,cs)
);
},
{
closed = 1;
nodes = (
(254,687,l),
(352,611,o),
(440,522,o),
(470,417,c),
(435,466,o),
(387,498,o),
(315,498,cs),
(155,498,o),
(29,352,o),
(29,192,cs),
(29,70,o),
(111,-12,o),
(241,-12,cs),
(421,-12,o),
(554,159,o),
(554,342,cs),
(554,477,o),
(473,584,o),
(332,714,c)
);
},
{
closed = 1;
nodes = (
(517,640,l),
(502,702,l),
(222,587,l),
(237,525,l)
);
}
);
width = 582;
},
{
layerId = "E5262BFA-468F-43E5-B452-C67934931082";
name = ItalicThin.bubble;
shapes = (
{
closed = 1;
nodes = (
(-7,38,o),
(94,-61,o),
(244,-61,cs),
(438,-61,o),
(598,114,o),
(598,325,cs),
(598,418,o),
(565,512,o),
(505,595,c),
(526,604,l),
(492,732,l),
(411,699,l),
(396,712,o),
(382,724,o),
(366,735,c),
(227,674,l),
(242,664,o),
(257,653,o),
(272,643,c),
(230,626,l),
(254,539,l),
(105,496,o),
(-7,352,o),
(-7,186,cs)
);
}
);
width = 593;
},
{
layerId = "35051489-9DA7-4E90-8534-9CC313302D4A";
shapes = (
{
closed = 1;
nodes = (
(142,24,o),
(78,90,o),
(78,188,cs),
(78,332,o),
(193,467,o),
(344,467,cs),
(449,467,o),
(511,403,o),
(511,306,cs),
(511,162,o),
(395,24,o),
(245,24,cs)
);
},
{
closed = 1;
nodes = (
(280,697,l),
(384,623,o),
(473,525,o),
(507,414,c),
(472,478,o),
(412,503,o),
(345,503,cs),
(176,503,o),
(42,353,o),
(42,186,cs),
(42,67,o),
(119,-12,o),
(244,-12,cs),
(418,-12,o),
(549,149,o),
(549,325,cs),
(549,483,o),
(443,625,o),
(314,712,c)
);
},
{
closed = 1;
nodes = (
(513,652,l),
(504,685,l),
(243,578,l),
(252,545,l)
);
}
);
width = 593;
}
);
leftKerningGroup = _R_eth;
rightKerningGroup = _L_eth;
unicode = 240;
},
{
color = 1;
glyphname = dcaron;
layers = (
{
layerId = "9EC2A313-F861-4A0B-B22D-531AADAE0B73";
name = ItalicBlack.bubble;
shapes = (
{
closed = 1;
nodes = (
(-4,60,o),
(84,-34,o),
(216,-34,cs),
(262,-34,o),
(306,-22,o),
(346,0,c),
(736,0,l),
(820,400,l),
(903,460,o),
(949,533,o),
(949,605,cs),
(949,673,o),
(909,721,o),
(850,721,cs),
(827,721,o),
(805,713,o),
(787,699,c),
(457,699,l),
(420,520,l),
(388,540,o),
(348,551,o),
(304,551,cs),
(134,551,o),
(-4,391,o),
(-4,200,cs)
);
}
);
width = 865;
},
{
layerId = "4574EF20-24B0-4ACA-8F83-7A663124D906";
shapes = (
{
closed = 1;
nodes = (
(380,-12,o),
(498,148,o),
(498,319,cs),
(498,444,o),
(423,529,o),
(304,529,cs),
(138,529,o),
(18,369,o),
(18,200,cs),
(18,74,o),
(94,-12,o),
(216,-12,cs)
);
},
{
closed = 1;
nodes = (
(233,148,o),
(202,176,o),
(202,221,cs),
(202,298,o),
(273,369,o),
(357,369,cs),
(403,369,o),
(431,342,o),
(431,298,cs),
(431,226,o),
(366,148,o),
(286,148,cs)
);
},
{
closed = 1;
nodes = (
(565,0,l),
(710,699,l),
(517,699,l),
(372,0,l)
);
},
{
closed = 1;
nodes = (
(804,416,l),
(870,463,o),
(927,529,o),
(927,605,cs),
(927,660,o),
(897,699,o),
(850,699,cs),
(804,699,o),
(762,657,o),
(762,607,cs),
(762,566,o),
(781,534,o),
(829,534,c),
(812,510,o),
(786,482,o),
(756,462,c)
);
}
);
width = 865;
},
{
layerId = "66606BEF-A73D-42AA-BCC4-03AD2ED94557";
associatedMasterId = "F208817E-C060-4D60-AB62-CCF376900793";
name = bubble;
shapes = (
{
closed = 1;
nodes = (
(-5,63,o),
(99,-47,o),
(224,-47,cs),
(279,-47,o),
(331,-30,o),
(377,0,c),
(648,0,l),
(748,480,l),
(802,535,o),
(847,581,o),
(847,647,cs),
(847,698,o),
(816,734,o),
(768,734,cs),
(741,734,o),
(716,720,o),
(700,699,c),
(475,699,l),
(440,532,l),
(409,552,o),
(374,564,o),
(336,564,cs),
(150,564,o),
(-5,395,o),
(-5,194,cs)
);
}
);
width = 739;
},
{
layerId = "F208817E-C060-4D60-AB62-CCF376900793";
shapes = (
{
closed = 1;
nodes = (
(379,-12,o),
(509,145,o),
(509,331,cs),
(509,438,o),
(430,529,o),
(336,529,cs),
(170,529,o),
(30,376,o),
(30,194,cs),
(30,82,o),
(119,-12,o),
(224,-12,cs)
);
},
{
closed = 1;
nodes = (
(167,55,o),
(108,121,o),
(108,199,cs),
(108,342,o),
(206,462,o),
(322,462,cs),
(402,462,o),
(470,396,o),
(470,318,cs),
(470,175,o),
(364,55,o),
(238,55,cs)
);
},
{
closed = 1;
nodes = (
(485,0,l),
(630,699,l),
(555,699,l),
(410,0,l)
);
},
{
closed = 1;
nodes = (
(722,504,l),
(776,559,o),
(812,595,o),
(812,647,cs),
(812,678,o),
(797,699,o),
(768,699,cs),
(741,699,o),
(718,674,o),
(718,649,cs),
(718,626,o),
(734,608,o),
(756,611,c),
(742,584,o),
(720,557,o),
(692,531,c)
);
}
);
width = 739;
},
{
layerId = "E5262BFA-468F-43E5-B452-C67934931082";
name = ItalicThin.bubble;
shapes = (
{
closed = 1;
nodes = (
(-5,49,o),
(93,-61,o),
(230,-61,cs),
(297,-61,o),
(361,-39,o),
(415,0,c),
(612,0,l),
(714,494,l),
(780,562,o),
(813,620,o),
(813,669,cs),
(813,715,o),
(780,748,o),
(736,748,cs),
(702,748,o),
(674,728,o),
(661,699,c),
(478,699,l),
(449,557,l),
(418,571,o),
(382,578,o),
(342,578,cs),
(165,578,o),
(-5,392,o),
(-5,200,cs)
);
}
);
width = 680;
},
{
layerId = "35051489-9DA7-4E90-8534-9CC313302D4A";
shapes = (
{
closed = 1;
nodes = (
(393,-12,o),
(530,145,o),
(530,331,cs),
(530,455,o),
(460,529,o),
(342,529,cs),
(193,529,o),
(44,365,o),
(44,200,cs),
(44,76,o),
(121,-12,o),
(230,-12,cs)
);
},
{
closed = 1;
nodes = (
(145,24,o),
(80,98,o),
(80,202,cs),
(80,348,o),
(208,493,o),
(335,493,cs),
(434,493,o),
(493,429,o),
(493,321,cs),
(493,160,o),
(376,24,o),
(237,24,cs)
);
},
{
closed = 1;
nodes = (
(469,0,l),
(614,699,l),
(578,699,l),
(433,0,l)
);
},
{
closed = 1;
nodes = (
(679,527,l),
(735,586,o),
(764,634,o),
(764,669,cs),
(764,688,o),
(753,699,o),
(736,699,cs),
(717,699,o),
(702,683,o),
(702,664,cs),
(702,649,o),
(712,639,o),
(728,640,c),
(714,612,o),
(687,578,o),
(655,548,c)
);
}
);
width = 680;
}
);
leftKerningGroup = _R_dcaron;
rightKerningGroup = _L_dcaron;
unicode = 271;
},
{
color = 1;
glyphname = dcroat;
layers = (
{
layerId = "9EC2A313-F861-4A0B-B22D-531AADAE0B73";
name = ItalicBlack.bubble;
shapes = (
{
closed = 1;
nodes = (
(-4,60,o),
(84,-34,o),
(216,-34,cs),
(262,-34,o),
(306,-22,o),
(346,0,c),
(642,0,l),
(755,543,l),
(762,543,l),
(790,677,l),
(782,677,l),
(787,699,l),
(437,699,l),
(432,677,l),
(378,677,l),
(351,547,l),
(336,550,o),
(320,551,o),
(304,551,cs),
(134,551,o),
(-4,391,o),
(-4,200,cs)
);
}
);
width = 695;
},
{
layerId = "4574EF20-24B0-4ACA-8F83-7A663124D906";
shapes = (
{
closed = 1;
nodes = (
(744,565,l),
(763,655,l),
(373,655,l),
(354,565,l)
);
},
{
closed = 1;
nodes = (
(380,-12,o),
(498,148,o),
(498,319,cs),
(498,444,o),
(423,529,o),
(304,529,cs),
(138,529,o),
(18,369,o),
(18,200,cs),
(18,74,o),
(94,-12,o),
(216,-12,cs)
);
},
{
closed = 1;
nodes = (
(233,148,o),
(202,176,o),
(202,221,cs),
(202,298,o),
(273,369,o),
(357,369,cs),
(403,369,o),
(431,342,o),
(431,298,cs),
(431,226,o),
(366,148,o),
(286,148,cs)
);
},
{
closed = 1;
nodes = (
(565,0,l),
(710,699,l),
(517,699,l),
(372,0,l)
);
}
);
width = 695;
},
{
layerId = "66606BEF-A73D-42AA-BCC4-03AD2ED94557";
associatedMasterId = "F208817E-C060-4D60-AB62-CCF376900793";
name = bubble;
shapes = (
{
closed = 1;
nodes = (
(-5,63,o),
(99,-47,o),
(224,-47,cs),
(276,-47,o),
(332,-29,o),
(377,0,c),
(544,0,l),
(659,550,l),
(679,550,l),
(706,670,l),
(684,670,l),
(690,699,l),
(520,699,l),
(514,670,l),
(396,670,l),
(371,560,l),
(360,563,o),
(348,564,o),
(336,564,cs),
(150,564,o),
(-5,395,o),
(-5,194,cs)
);
}
);
width = 598;
},
{
layerId = "F208817E-C060-4D60-AB62-CCF376900793";
shapes = (
{
closed = 1;
nodes = (
(687,585,l),
(698,635,l),
(388,635,l),
(377,585,l)
);
},
{
closed = 1;
nodes = (
(379,-12,o),
(509,145,o),
(509,331,cs),
(509,438,o),
(430,529,o),
(336,529,cs),
(170,529,o),
(30,376,o),
(30,194,cs),
(30,82,o),
(119,-12,o),
(224,-12,cs)
);
},
{
closed = 1;
nodes = (
(167,55,o),
(108,121,o),
(108,199,cs),
(108,342,o),
(206,462,o),
(322,462,cs),
(402,462,o),
(470,396,o),
(470,318,cs),
(470,175,o),
(364,55,o),
(238,55,cs)
);
},
{
closed = 1;
nodes = (
(485,0,l),
(630,699,l),
(555,699,l),
(410,0,l)
);
}
);
width = 598;
},
{
layerId = "E5262BFA-468F-43E5-B452-C67934931082";
name = ItalicThin.bubble;
shapes = (
{
closed = 1;
nodes = (
(-5,49,o),
(93,-61,o),
(230,-61,cs),
(297,-61,o),
(361,-39,o),
(415,0,c),
(536,0,l),
(681,699,l),
(508,699,l),
(503,677,l),
(386,677,l),
(367,577,l),
(359,578,o),
(350,578,o),
(342,578,cs),
(165,578,o),
(-5,392,o),
(-5,200,cs)
);
}
);
width = 590;
},
{
layerId = "35051489-9DA7-4E90-8534-9CC313302D4A";
shapes = (
{
closed = 1;
nodes = (
(659,592,l),
(666,628,l),
(376,628,l),
(369,592,l)
);
},
{
closed = 1;
nodes = (
(393,-12,o),
(530,145,o),
(530,331,cs),
(530,455,o),
(460,529,o),
(342,529,cs),
(193,529,o),
(44,365,o),
(44,200,cs),
(44,76,o),
(121,-12,o),
(230,-12,cs)
);
},
{
closed = 1;
nodes = (
(145,24,o),
(80,98,o),
(80,202,cs),
(80,348,o),
(208,493,o),
(335,493,cs),
(434,493,o),
(493,429,o),
(493,321,cs),
(493,160,o),
(376,24,o),
(237,24,cs)
);
},
{
closed = 1;
nodes = (
(469,0,l),
(614,699,l),
(578,699,l),
(433,0,l)
);
}
);
width = 590;
}
);
leftKerningGroup = _R_dcroat;
rightKerningGroup = _L_dcroat;
unicode = 273;
},
{
color = 1;
glyphname = e;
layers = (
{
anchors = (
{
name = bottom;
position = "{258, -12}";
},
{
name = top;
position = "{340, 517}";
}
);
layerId = "9EC2A313-F861-4A0B-B22D-531AADAE0B73";
name = ItalicBlack.bubble;
shapes = (
{
closed = 1;
nodes = (
(-3,64,o),
(101,-33,o),
(258,-33,cs),
(340,-33,o),
(436,-1,o),
(492,46,c),
(373,196,l),
(333,168,o),
(292,153,o),
(255,153,cs),
(227,153,o),
(209,167,o),
(203,192,c),
(284,192,l),
(456,186,o),
(561,259,o),
(561,388,cs),
(561,483,o),
(468,550,o),
(338,550,cs),
(148,550,o),
(-3,400,o),
(-3,210,cs)
);
}
);
width = 539;
},
{
anchors = (
{
name = bottom;
position = "{258, -12}";
},
{
name = top;
position = "{343, 517}";
}
);
layerId = "4574EF20-24B0-4ACA-8F83-7A663124D906";
shapes = (
{
closed = 1;
nodes = (
(331,-12,o),
(423,16,o),
(479,63,c),
(386,180,l),
(348,153,o),
(301,132,o),
(255,132,cs),
(208,132,o),
(180,163,o),
(180,213,cs),
(180,295,o),
(248,385,o),
(333,385,cs),
(363,385,o),
(385,374,o),
(385,359,c),
(384,331,o),
(354,314,o),
(305,314,c),
(87,314,l),
(66,213,l),
(284,213,l),
(445,207,o),
(540,272,o),
(540,388,cs),
(540,471,o),
(456,529,o),
(338,529,cs),
(158,529,o),
(18,387,o),
(18,210,cs),
(18,78,o),
(110,-12,o),
(258,-12,cs)
);
}
);
width = 539;
},
{
anchors = (
{
name = bottom;
position = "{227, -12}";
},
{
name = top;
position = "{333, 517}";
}
);
layerId = "66606BEF-A73D-42AA-BCC4-03AD2ED94557";
associatedMasterId = "F208817E-C060-4D60-AB62-CCF376900793";
name = bubble;
shapes = (
{
closed = 1;
nodes = (
(-4,57,o),
(97,-47,o),
(240,-47,cs),
(326,-47,o),
(433,-11,o),
(489,38,c),
(407,147,l),
(374,115,o),
(307,90,o),
(253,90,cs),
(187,90,o),
(146,128,o),
(141,195,c),
(288,195,ls),
(455,195,o),
(565,270,o),
(565,386,cs),
(565,489,o),
(473,564,o),
(348,564,cs),
(164,564,o),
(-4,393,o),
(-4,204,cs)
);
}
);
width = 542;
},
{
anchors = (
{
name = bottom;
position = "{240, -12}";
},
{
name = top;
position = "{350, 517}";
}
);
layerId = "F208817E-C060-4D60-AB62-CCF376900793";
shapes = (
{
closed = 1;
nodes = (
(310,-12,o),
(413,17,o),
(468,66,c),
(428,119,l),
(390,84,o),
(317,55,o),
(253,55,cs),
(161,55,o),
(105,116,o),
(105,210,cs),
(105,334,o),
(203,462,o),
(342,462,cs),
(409,462,o),
(459,432,o),
(459,382,cs),
(459,328,o),
(402,297,o),
(302,297,c),
(95,297,l),
(81,230,l),
(288,230,l),
(442,230,o),
(533,295,o),
(533,386,cs),
(533,475,o),
(445,529,o),
(348,529,cs),
(185,529,o),
(31,376,o),
(31,204,cs),
(31,75,o),
(118,-12,o),
(240,-12,cs)
);
}
);
width = 542;
},
{
anchors = (
{
name = bottom;
position = "{234, -12}";
},
{
name = top;
position = "{341, 517}";
}
);
layerId = "E5262BFA-468F-43E5-B452-C67934931082";
name = ItalicThin.bubble;
shapes = (
{
closed = 1;
nodes = (
(-4,52,o),
(104,-62,o),
(250,-62,cs),
(343,-62,o),
(449,-26,o),
(511,26,c),
(430,137,l),
(389,98,o),
(324,74,o),
(255,74,cs),
(188,74,o),
(139,122,o),
(132,192,c),
(303,192,ls),
(484,192,o),
(593,265,o),
(593,387,cs),
(593,499,o),
(496,579,o),
(361,579,cs),
(170,579,o),
(-4,400,o),
(-4,205,cs)
);
}
);
width = 570;
},
{
anchors = (
{
name = bottom;
position = "{251, -12}";
},
{
name = top;
position = "{365, 517}";
}
);
layerId = "35051489-9DA7-4E90-8534-9CC313302D4A";
shapes = (
{
closed = 1;
nodes = (
(331,-12,o),
(429,20,o),
(481,67,c),
(460,96,l),
(408,49,o),
(330,24,o),
(255,24,cs),
(153,24,o),
(81,105,o),
(81,209,cs),
(81,350,o),
(209,493,o),
(355,493,cs),
(446,493,o),
(510,448,o),
(510,385,cs),
(510,318,o),
(436,278,o),
(310,278,c),
(75,278,l),
(68,242,l),
(303,242,l),
(456,242,o),
(546,296,o),
(546,387,cs),
(546,470,o),
(469,529,o),
(361,529,cs),
(196,529,o),
(45,371,o),
(45,205,cs),
(45,82,o),
(129,-12,o),
(250,-12,cs)
);
}
);
width = 570;
}
);
leftKerningGroup = _R_e;
rightKerningGroup = _L_e;
unicode = 101;
},
{
color = 1;
glyphname = f;
layers = (
{
layerId = "9EC2A313-F861-4A0B-B22D-531AADAE0B73";
name = ItalicBlack.bubble;
shapes = (
{
closed = 1;
nodes = (
(269,0,l),
(373,498,ls),
(376,511,o),
(387,520,o),
(399,520,cs),
(407,520,o),
(408,520,o),
(413,519,c),
(499,710,l),
(458,748,o),
(400,770,o),
(342,770,cs),
(225,770,o),
(126,685,o),
(100,563,cs),
(-17,0,l)
);
},
{
closed = 1;
nodes = (
(415,315,l),
(457,517,l),
(54,517,l),
(12,315,l)
);
}
);
width = 403;
},
{
layerId = "4574EF20-24B0-4ACA-8F83-7A663124D906";
shapes = (
{
closed = 1;
nodes = (
(218,0,l),
(324,509,ls),
(330,535,o),
(354,570,o),
(399,570,cs),
(407,570,o),
(420,569,o),
(431,560,c),
(477,662,l),
(450,693,o),
(401,720,o),
(342,720,cs),
(252,720,o),
(171,656,o),
(149,553,cs),
(34,0,l)
);
},
{
closed = 1;
nodes = (
(396,365,l),
(428,517,l),
(77,517,l),
(45,365,l)
);
}
);
width = 403;
},
{
layerId = "66606BEF-A73D-42AA-BCC4-03AD2ED94557";
associatedMasterId = "F208817E-C060-4D60-AB62-CCF376900793";
name = bubble;
shapes = (
{
closed = 1;
nodes = (
(186,0,l),
(306,574,ls),
(309,588,o),
(320,600,o),
(337,600,cs),
(340,600,o),
(343,600,o),
(345,599,c),
(456,725,l),
(421,755,o),
(374,773,o),
(328,773,cs),
(231,773,o),
(149,703,o),
(128,602,cs),
(3,0,l)
);
},
{
closed = 1;
nodes = (
(371,397,l),
(396,517,l),
(54,517,l),
(29,397,l)
);
}
);
width = 342;
},
{
layerId = "F208817E-C060-4D60-AB62-CCF376900793";
shapes = (
{
closed = 1;
nodes = (
(132,0,l),
(254,585,ls),
(262,623,o),
(296,653,o),
(332,653,cs),
(349,653,o),
(368,646,o),
(376,634,c),
(421,685,l),
(397,706,o),
(365,720,o),
(328,720,cs),
(256,720,o),
(196,668,o),
(180,591,cs),
(57,0,l)
);
},
{
closed = 1;
nodes = (
(353,450,l),
(367,517,l),
(84,517,l),
(70,450,l)
);
}
);
width = 342;
},
{
layerId = "E5262BFA-468F-43E5-B452-C67934931082";
name = ItalicThin.bubble;
shapes = (
{
closed = 1;
nodes = (
(176,0,l),
(295,575,ls),
(302,609,o),
(320,628,o),
(341,628,cs),
(352,628,o),
(361,624,o),
(364,618,c),
(465,727,l),
(430,759,o),
(385,776,o),
(335,776,cs),
(247,776,o),
(171,703,o),
(150,600,cs),
(25,0,l)
);
},
{
closed = 1;
nodes = (
(397,425,l),
(415,517,l),
(54,517,l),
(36,425,l)
);
}
);
width = 363;
},
{
layerId = "35051489-9DA7-4E90-8534-9CC313302D4A";
shapes = (
{
closed = 1;
nodes = (
(118,0,l),
(240,587,ls),
(252,643,o),
(290,684,o),
(341,684,cs),
(362,684,o),
(386,677,o),
(403,660,c),
(427,686,l),
(403,708,o),
(373,720,o),
(335,720,cs),
(275,720,o),
(221,666,o),
(205,589,cs),
(82,0,l)
);
},
{
closed = 1;
nodes = (
(364,481,l),
(371,517,l),
(99,517,l),
(92,481,l)
);
}
);
width = 363;
}
);
leftKerningGroup = _R_f;
rightKerningGroup = _L_f;
unicode = 102;
},
{
color = 1;
glyphname = g;
layers = (
{
anchors = (
{
name = bottom;
position = "{229, -172}";
},
{
name = top;
position = "{386, 517}";
}
);
layerId = "9EC2A313-F861-4A0B-B22D-531AADAE0B73";
name = ItalicBlack.bubble;
shapes = (
{
closed = 1;
nodes = (
(-38,-148,l),
(29,-200,o),
(128,-230,o),
(229,-230,cs),
(425,-230,o),
(580,-124,o),
(613,35,cs),
(713,517,l),
(409,517,l),
(375,538,o),
(332,551,o),
(287,551,cs),
(135,551,o),
(3,405,o),
(3,238,cs),
(3,156,o),
(36,89,o),
(92,51,c)
);
}
);
width = 659;
},
{
anchors = (
{
name = bottom;
position = "{229, -172}";
},
{
name = top;
position = "{386, 517}";
}
);
layerId = "4574EF20-24B0-4ACA-8F83-7A663124D906";
shapes = (
{
closed = 1;
nodes = (
(368,73,ls),
(358,28,o),
(289,-12,o),
(204,-12,cs),
(157,-12,o),
(100,0,o),
(75,25,c),
(-6,-99,l),
(43,-139,o),
(127,-172,o),
(229,-172,cs),
(393,-172,o),
(528,-88,o),
(556,47,cs),
(654,517,l),
(460,517,l)
);
},
{
closed = 1;
nodes = (
(249,198,o),
(221,216,o),
(221,256,cs),
(221,316,o),
(284,369,o),
(350,369,cs),
(391,369,o),
(416,349,o),
(416,312,cs),
(416,252,o),
(352,198,o),
(287,198,cs)
);
},
{
closed = 1;
nodes = (
(453,432,l),
(439,483,o),
(369,529,o),
(287,529,cs),
(140,529,o),
(24,385,o),
(24,238,cs),
(24,120,o),
(99,38,o),
(212,38,cs),
(277,38,o),
(349,66,o),
(401,123,c)
);
}
);
width = 659;
},
{
anchors = (
{
name = bottom;
position = "{198, -172}";
},
{
name = top;
position = "{355, 517}";
}
);
layerId = "66606BEF-A73D-42AA-BCC4-03AD2ED94557";
associatedMasterId = "F208817E-C060-4D60-AB62-CCF376900793";
name = bubble;
shapes = (
{
closed = 1;
nodes = (
(-32,-146,l),
(22,-197,o),
(109,-227,o),
(198,-227,cs),
(372,-227,o),
(514,-118,o),
(548,41,cs),
(648,517,l),
(468,517,l),
(430,547,o),
(381,563,o),
(324,563,cs),
(150,563,o),
(2,411,o),
(2,234,cs),
(2,96,o),
(94,4,o),
(232,4,cs),
(275,4,o),
(315,13,o),
(353,30,c),
(326,-20,o),
(270,-50,o),
(196,-50,cs),
(136,-50,o),
(94,-32,o),
(76,0,c)
);
}
);
width = 594;
},
{
anchors = (
{
name = bottom;
position = "{198, -172}";
},
{
name = top;
position = "{355, 517}";
}
);
layerId = "F208817E-C060-4D60-AB62-CCF376900793";
shapes = (
{
closed = 1;
nodes = (
(421,58,ls),
(400,-43,o),
(312,-105,o),
(196,-105,cs),
(129,-105,o),
(74,-84,o),
(42,-46,c),
(1,-101,l),
(40,-141,o),
(112,-172,o),
(198,-172,cs),
(341,-172,o),
(465,-86,o),
(494,52,cs),
(591,517,l),
(516,517,l)
);
},
{
closed = 1;
nodes = (
(166,105,o),
(115,157,o),
(115,240,cs),
(115,356,o),
(216,462,o),
(337,462,cs),
(421,462,o),
(473,411,o),
(473,328,cs),
(473,215,o),
(375,105,o),
(251,105,cs)
);
},
{
closed = 1;
nodes = (
(505,398,l),
(485,473,o),
(426,529,o),
(324,529,cs),
(163,529,o),
(36,387,o),
(36,234,cs),
(36,114,o),
(113,38,o),
(232,38,cs),
(325,38,o),
(404,84,o),
(459,163,c)
);
}
);
width = 594;
},
{
anchors = (
{
name = bottom;
position = "{206, -172}";
},
{
name = top;
position = "{351, 517}";
}
);
layerId = "E5262BFA-468F-43E5-B452-C67934931082";
name = ItalicThin.bubble;
shapes = (
{
closed = 1;
nodes = (
(-30,-155,l),
(25,-204,o),
(118,-237,o),
(206,-237,cs),
(373,-237,o),
(514,-122,o),
(549,41,cs),
(647,517,l),
(502,517,l),
(461,555,o),
(403,577,o),
(337,577,cs),
(161,577,o),
(1,413,o),
(1,232,cs),
(1,93,o),
(101,-10,o),
(238,-10,cs),
(282,-10,o),
(325,0,o),
(366,18,c),
(334,-36,o),
(273,-71,o),
(206,-71,cs),
(150,-71,o),
(89,-48,o),
(71,-18,c)
);
}
);
width = 594;
},
{
anchors = (
{
name = bottom;
position = "{206, -172}";
},
{
name = top;
position = "{351, 517}";
}
);
layerId = "35051489-9DA7-4E90-8534-9CC313302D4A";
shapes = (
{
closed = 1;
nodes = (
(449,56,ls),
(426,-56,o),
(323,-136,o),
(206,-136,cs),
(140,-136,o),
(68,-110,o),
(31,-72,c),
(9,-102,l),
(48,-142,o),
(129,-172,o),
(206,-172,cs),
(342,-172,o),
(457,-79,o),
(485,54,cs),
(581,517,l),
(545,517,l)
);
},
{
closed = 1;
nodes = (
(147,74,o),
(85,145,o),
(85,237,cs),
(85,365,o),
(204,493,o),
(339,493,cs),
(436,493,o),
(502,426,o),
(502,332,cs),
(502,199,o),
(380,74,o),
(246,74,cs)
);
},
{
closed = 1;
nodes = (
(521,381,l),
(508,476,o),
(429,529,o),
(337,529,cs),
(186,529,o),
(49,385,o),
(49,232,cs),
(49,121,o),
(125,38,o),
(238,38,cs),
(323,38,o),
(426,86,o),
(481,185,c)
);
}
);
width = 594;
}
);
leftKerningGroup = _R_g;
rightKerningGroup = _L_g;
unicode = 103;
},
{
color = 1;
glyphname = h;
layers = (
{
layerId = "9EC2A313-F861-4A0B-B22D-531AADAE0B73";
name = ItalicBlack.bubble;
shapes = (
{
closed = 1;
nodes = (
(579,0,l),
(614,164,ls),
(644,309,o),
(650,336,o),
(650,369,cs),
(650,488,o),
(565,571,o),
(444,571,cs),
(415,571,o),
(388,567,o),
(362,558,c),
(391,699,l),
(92,699,l),
(-53,0,l)
);
}
);
width = 634;
},
{
layerId = "4574EF20-24B0-4ACA-8F83-7A663124D906";
shapes = (
{
closed = 1;
nodes = (
(203,0,l),
(348,699,l),
(155,699,l),
(10,0,l)
);
},
{
closed = 1;
nodes = (
(536,0,l),
(600,305,o),
(608,331,o),
(608,369,cs),
(608,462,o),
(545,529,o),
(444,529,cs),
(351,529,o),
(272,475,o),
(249,387,c),
(261,282,l),
(269,328,o),
(314,369,o),
(364,369,cs),
(396,369,o),
(416,351,o),
(416,317,cs),
(416,302,o),
(413,289,o),
(352,0,c)
);
}
);
width = 634;
},
{
layerId = "66606BEF-A73D-42AA-BCC4-03AD2ED94557";
associatedMasterId = "F208817E-C060-4D60-AB62-CCF376900793";
name = bubble;
shapes = (
{
closed = 1;
nodes = (
(492,0,l),
(529,175,ls),
(558,314,o),
(564,340,o),
(564,374,cs),
(564,495,o),
(478,578,o),
(353,578,cs),
(316,578,o),
(279,570,o),
(245,555,c),
(275,699,l),
(92,699,l),
(-53,0,l)
);
}
);
width = 546;
},
{
layerId = "F208817E-C060-4D60-AB62-CCF376900793";
shapes = (
{
closed = 1;
nodes = (
(80,0,l),
(225,699,l),
(150,699,l),
(5,0,l)
);
},
{
closed = 1;
nodes = (
(442,0,l),
(507,311,o),
(515,336,o),
(515,374,cs),
(515,466,o),
(453,529,o),
(353,529,cs),
(260,529,o),
(164,463,o),
(142,382,c),
(147,326,l),
(162,398,o),
(250,462,o),
(340,462,cs),
(401,462,o),
(438,423,o),
(438,361,cs),
(438,330,o),
(431,308,o),
(367,0,c)
);
}
);
width = 546;
},
{
layerId = "E5262BFA-468F-43E5-B452-C67934931082";
name = ItalicThin.bubble;
shapes = (
{
closed = 1;
nodes = (
(472,0,l),
(512,190,ls),
(545,344,o),
(547,355,o),
(547,381,cs),
(547,504,o),
(456,589,o),
(326,589,cs),
(292,589,o),
(260,583,o),
(229,573,c),
(255,699,l),
(91,699,l),
(-53,0,l)
);
}
);
width = 527;
},
{
layerId = "35051489-9DA7-4E90-8534-9CC313302D4A";
shapes = (
{
closed = 1;
nodes = (
(49,0,l),
(194,699,l),
(158,699,l),
(13,0,l)
);
},
{
closed = 1;
nodes = (
(411,0,l),
(482,339,o),
(487,353,o),
(487,381,cs),
(487,469,o),
(425,529,o),
(326,529,cs),
(220,529,o),
(131,460,o),
(111,361,c),
(117,329,l),
(137,424,o),
(220,493,o),
(319,493,cs),
(399,493,o),
(449,445,o),
(449,372,cs),
(449,343,o),
(443,322,o),
(375,0,c)
);
}
);
width = 527;
}
);
leftKerningGroup = _R_h;
rightKerningGroup = _L_h;
unicode = 104;
},
{
color = 1;
glyphname = dotlessi;
layers = (
{
anchors = (
{
name = bottom;
position = "{197, 0}";
},
{
name = loop_left;
position = "{63, 298}";
},
{
name = r_shoulder;
position = "{241, 211}";
},
{
name = shoulder;
position = "{255, 282}";
},
{
name = top;
position = "{209, 517}";
}
);
guides = (
{
position = "{0, 0}";
}
);
layerId = "9EC2A313-F861-4A0B-B22D-531AADAE0B73";
name = ItalicBlack.bubble;
shapes = (
{
closed = 1;
nodes = (
(251,0,l),
(359,517,l),
(54,517,l),
(-54,0,l)
);
}
);
width = 305;
},
{
anchors = (
{
name = bottom;
position = "{195, 0}";
},
{
name = top;
position = "{207, 517}";
}
);
guides = (
{
position = "{0, 0}";
}
);
layerId = "4574EF20-24B0-4ACA-8F83-7A663124D906";
shapes = (
{
closed = 1;
nodes = (
(195,0,l),
(303,517,l),
(110,517,l),
(2,0,l)
);
}
);
width = 305;
},
{
anchors = (
{
name = bottom;
position = "{89, 0}";
},
{
name = loop_left;
position = "{74, 318}";
},
{
name = r_shoulder;
position = "{149, 287}";
},
{
name = shoulder;
position = "{157, 326}";
},
{
name = top;
position = "{160, 517}";
}
);
guides = (
{
position = "{0, 0}";
}
);
layerId = "66606BEF-A73D-42AA-BCC4-03AD2ED94557";
associatedMasterId = "F208817E-C060-4D60-AB62-CCF376900793";
name = bubble;
shapes = (
{
closed = 1;
nodes = (
(135,0,l),
(243,517,l),
(54,517,l),
(-54,0,l)
);
}
);
width = 189;
},
{
anchors = (
{
name = bottom;
position = "{78, 0}";
},
{
name = top;
position = "{149, 517}";
}
);
guides = (
{
position = "{0, 0}";
}
);
layerId = "F208817E-C060-4D60-AB62-CCF376900793";
shapes = (
{
closed = 1;
nodes = (
(78,0,l),
(186,517,l),
(111,517,l),
(3,0,l)
);
}
);
width = 189;
},
{
anchors = (
{
name = top;
position = "{150, 517}";
}
);
guides = (
{
position = "{0, 0}";
}
);
layerId = "E5262BFA-468F-43E5-B452-C67934931082";
name = ItalicThin.bubble;
shapes = (
{
closed = 1;
nodes = (
(114,0,l),
(222,517,l),
(54,517,l),
(-54,0,l)
);
}
);
width = 168;
},
{
anchors = (
{
name = bottom;
position = "{48, 0}";
},
{
name = top;
position = "{138, 517}";
}
);
guides = (
{
position = "{0, 0}";
}
);
layerId = "35051489-9DA7-4E90-8534-9CC313302D4A";
shapes = (
{
closed = 1;
nodes = (
(48,0,l),
(156,517,l),
(120,517,l),
(12,0,l)
);
}
);
width = 168;
}
);
leftKerningGroup = _R_i;
rightKerningGroup = _L_i;
unicode = 305;
},
{
color = 1;
glyphname = dotlessj;
layers = (
{
anchors = (
{
name = top;
position = "{214, 517}";
}
);
layerId = "9EC2A313-F861-4A0B-B22D-531AADAE0B73";
name = ItalicBlack.bubble;
shapes = (
{
closed = 1;
nodes = (
(127,-239,o),
(234,-148,o),
(262,-14,cs),
(372,517,l),
(54,517,l),
(-54,0,ls),
(-55,-3,o),
(-62,-5,o),
(-69,-5,cs),
(-74,-5,o),
(-81,-4,o),
(-86,0,c),
(-142,-211,l),
(-104,-228,o),
(-51,-239,o),
(-6,-239,cs)
);
}
);
width = 319;
},
{
anchors = (
{
name = top;
position = "{214, 517}";
}
);
layerId = "4574EF20-24B0-4ACA-8F83-7A663124D906";
shapes = (
{
closed = 1;
nodes = (
(96,-178,o),
(180,-110,o),
(202,-2,cs),
(310,517,l),
(117,517,l),
(17,38,ls),
(11,7,o),
(-20,-23,o),
(-52,-23,cs),
(-62,-23,o),
(-80,-23,o),
(-91,-18,c),
(-126,-151,l),
(-100,-165,o),
(-53,-178,o),
(-6,-178,cs)
);
}
);
width = 319;
},
{
anchors = (
{
name = top;
position = "{151, 517}";
}
);
layerId = "66606BEF-A73D-42AA-BCC4-03AD2ED94557";
associatedMasterId = "F208817E-C060-4D60-AB62-CCF376900793";
name = bubble;
shapes = (
{
closed = 1;
nodes = (
(22,-236,o),
(105,-164,o),
(127,-61,cs),
(247,517,l),
(54,517,l),
(-60,-31,l),
(-62,-44,o),
(-82,-53,o),
(-95,-53,cs),
(-102,-53,o),
(-111,-51,o),
(-120,-46,c),
(-176,-216,l),
(-149,-228,o),
(-108,-236,o),
(-77,-236,cs)
);
}
);
width = 193;
},
{
anchors = (
{
name = top;
position = "{151, 517}";
}
);
layerId = "F208817E-C060-4D60-AB62-CCF376900793";
shapes = (
{
closed = 1;
nodes = (
(-6,-178,o),
(54,-126,o),
(70,-49,cs),
(188,517,l),
(113,517,l),
(-3,-43,ls),
(-11,-81,o),
(-43,-111,o),
(-79,-111,cs),
(-97,-111,o),
(-123,-107,o),
(-138,-101,c),
(-158,-161,l),
(-139,-170,o),
(-108,-178,o),
(-77,-178,cs)
);
}
);
width = 193;
},
{
anchors = (
{
name = top;
position = "{139, 517}";
}
);
layerId = "E5262BFA-468F-43E5-B452-C67934931082";
name = ItalicThin.bubble;
shapes = (
{
closed = 1;
nodes = (
(2,-243,o),
(80,-171,o),
(102,-70,cs),
(223,517,l),
(54,517,l),
(-62,-42,ls),
(-66,-63,o),
(-81,-77,o),
(-92,-77,cs),
(-113,-77,o),
(-132,-72,o),
(-139,-67,c),
(-192,-223,l),
(-164,-234,o),
(-123,-243,o),
(-92,-243,cs)
);
}
);
width = 170;
},
{
anchors = (
{
name = top;
position = "{139, 517}";
}
);
layerId = "35051489-9DA7-4E90-8534-9CC313302D4A";
shapes = (
{
closed = 1;
nodes = (
(-30,-178,o),
(23,-128,o),
(38,-57,cs),
(157,517,l),
(121,517,l),
(2,-55,ls),
(-8,-105,o),
(-48,-142,o),
(-92,-142,cs),
(-115,-142,o),
(-143,-137,o),
(-160,-129,c),
(-171,-161,l),
(-152,-170,o),
(-120,-178,o),
(-92,-178,cs)
);
}
);
width = 170;
}
);
leftKerningGroup = _R_j;
rightKerningGroup = _L_j;
unicode = 567;
},
{
color = 1;
glyphname = k;
layers = (
{
anchors = (
{
name = bottom;
position = "{271, 0}";
}
);
layerId = "9EC2A313-F861-4A0B-B22D-531AADAE0B73";
name = ItalicBlack.bubble;
shapes = (
{
closed = 1;
nodes = (
(562,0,l),
(565,299,l),
(670,517,l),
(373,517,l),
(411,699,l),
(91,699,l),
(-54,0,l)
);
}
);
width = 616;
},
{
anchors = (
{
name = bottom;
position = "{271, 0}";
}
);
layerId = "4574EF20-24B0-4ACA-8F83-7A663124D906";
shapes = (
{
closed = 1;
nodes = (
(203,0,l),
(228,120,l),
(282,171,l),
(339,0,l),
(550,0,l),
(429,294,l),
(658,517,l),
(438,517,l),
(274,343,l),
(348,699,l),
(155,699,l),
(10,0,l)
);
}
);
width = 616;
},
{
anchors = (
{
name = bottom;
position = "{200, 0}";
}
);
layerId = "66606BEF-A73D-42AA-BCC4-03AD2ED94557";
associatedMasterId = "F208817E-C060-4D60-AB62-CCF376900793";
name = bubble;
shapes = (
{
closed = 1;
nodes = (
(485,0,l),
(474,288,l),
(593,517,l),
(246,517,l),
(284,699,l),
(91,699,l),
(-54,0,l)
);
}
);
width = 539;
},
{
anchors = (
{
name = bottom;
position = "{200, 0}";
}
);
layerId = "F208817E-C060-4D60-AB62-CCF376900793";
shapes = (
{
closed = 1;
nodes = (
(80,0,l),
(109,138,l),
(220,229,l),
(351,0,l),
(442,0,l),
(282,280,l),
(565,517,l),
(467,517,l),
(129,234,l),
(225,699,l),
(150,699,l),
(5,0,l)
);
}
);
width = 539;
},
{
anchors = (
{
name = bottom;
position = "{199, 0}";
}
);
layerId = "E5262BFA-468F-43E5-B452-C67934931082";
name = ItalicThin.bubble;
shapes = (
{
closed = 1;
nodes = (
(467,0,l),
(458,303,l),
(575,517,l),
(223,517,l),
(260,699,l),
(92,699,l),
(-54,0,l)
);
}
);
width = 521;
},
{
anchors = (
{
name = bottom;
position = "{199, 0}";
}
);
layerId = "35051489-9DA7-4E90-8534-9CC313302D4A";
shapes = (
{
closed = 1;
nodes = (
(49,0,l),
(77,134,l),
(220,255,l),
(365,0,l),
(410,0,l),
(249,280,l),
(531,517,l),
(479,517,l),
(88,187,l),
(194,699,l),
(158,699,l),
(13,0,l)
);
}
);
width = 521;
}
);
leftKerningGroup = _R_k;
rightKerningGroup = _L_k;
unicode = 107;
},
{
color = 1;
glyphname = l;
layers = (
{
anchors = (
{
name = bottom;
position = "{163, 0}";
},
{
name = top;
position = "{250, 699}";
}
);
layerId = "9EC2A313-F861-4A0B-B22D-531AADAE0B73";
name = ItalicBlack.bubble;
shapes = (
{
closed = 1;
nodes = (
(267,0,l),
(412,699,l),
(92,699,l),
(-53,0,l)
);
}
);
width = 321;
},
{
anchors = (
{
name = bottom;
position = "{163, 0}";
},
{
name = top;
position = "{250, 699}";
}
);
layerId = "4574EF20-24B0-4ACA-8F83-7A663124D906";
shapes = (
{
closed = 1;
nodes = (
(203,0,l),
(348,699,l),
(155,699,l),
(10,0,l)
);
}
);
width = 321;
},
{
anchors = (
{
name = bottom;
position = "{73, 0}";
},
{
name = top;
position = "{187, 699}";
}
);
layerId = "66606BEF-A73D-42AA-BCC4-03AD2ED94557";
associatedMasterId = "F208817E-C060-4D60-AB62-CCF376900793";
name = bubble;
shapes = (
{
closed = 1;
nodes = (
(139,0,l),
(284,699,l),
(92,699,l),
(-53,0,l)
);
}
);
width = 193;
},
{
anchors = (
{
name = bottom;
position = "{73, 0}";
},
{
name = top;
position = "{187, 699}";
}
);
layerId = "F208817E-C060-4D60-AB62-CCF376900793";
shapes = (
{
closed = 1;
nodes = (
(80,0,l),
(225,699,l),
(150,699,l),
(5,0,l)
);
}
);
width = 193;
},
{
anchors = (
{
name = bottom;
position = "{42, 0}";
},
{
name = top;
position = "{176, 699}";
}
);
layerId = "E5262BFA-468F-43E5-B452-C67934931082";
name = ItalicThin.bubble;
shapes = (
{
closed = 1;
nodes = (
(116,0,l),
(261,699,l),
(92,699,l),
(-53,0,l)
);
}
);
width = 170;
},
{
anchors = (
{
name = bottom;
position = "{42, 0}";
},
{
name = top;
position = "{176, 699}";
}
);
layerId = "35051489-9DA7-4E90-8534-9CC313302D4A";
shapes = (
{
closed = 1;
nodes = (
(49,0,l),
(194,699,l),
(158,699,l),
(13,0,l)
);
}
);
width = 170;
}
);
leftKerningGroup = _R_l;
rightKerningGroup = _L_l;
unicode = 108;
},
{
color = 1;
glyphname = lcaron;
layers = (
{
layerId = "9EC2A313-F861-4A0B-B22D-531AADAE0B73";
name = ItalicBlack.bubble;
shapes = (
{
closed = 1;
nodes = (
(392,0,l),
(472,384,l),
(558,448,o),
(607,526,o),
(607,605,cs),
(607,684,o),
(558,744,o),
(485,744,cs),
(447,744,o),
(412,726,o),
(388,699,c),
(92,699,l),
(-53,0,l)
);
}
);
width = 500;
},
{
layerId = "4574EF20-24B0-4ACA-8F83-7A663124D906";
shapes = (
{
closed = 1;
nodes = (
(439,416,l),
(505,463,o),
(562,529,o),
(562,605,cs),
(562,660,o),
(532,699,o),
(485,699,cs),
(439,699,o),
(397,657,o),
(397,607,cs),
(397,566,o),
(416,534,o),
(464,534,c),
(447,510,o),
(421,482,o),
(391,462,c)
);
},
{
closed = 1;
nodes = (
(203,0,l),
(348,699,l),
(155,699,l),
(10,0,l)
);
}
);
width = 500;
},
{
layerId = "66606BEF-A73D-42AA-BCC4-03AD2ED94557";
associatedMasterId = "F208817E-C060-4D60-AB62-CCF376900793";
name = bubble;
shapes = (
{
closed = 1;
nodes = (
(230,0,l),
(327,465,l),
(403,542,o),
(432,582,o),
(432,647,cs),
(432,710,o),
(392,757,o),
(330,757,cs),
(290,757,o),
(253,733,o),
(235,699,c),
(92,699,l),
(-53,0,l)
);
}
);
width = 299;
},
{
layerId = "F208817E-C060-4D60-AB62-CCF376900793";
shapes = (
{
closed = 1;
nodes = (
(284,504,l),
(338,559,o),
(374,595,o),
(374,647,cs),
(374,678,o),
(359,699,o),
(330,699,cs),
(303,699,o),
(280,674,o),
(280,649,cs),
(280,626,o),
(296,608,o),
(318,611,c),
(304,584,o),
(282,557,o),
(254,531,c)
);
},
{
closed = 1;
nodes = (
(80,0,l),
(225,699,l),
(150,699,l),
(5,0,l)
);
}
);
width = 299;
},
{
layerId = "E5262BFA-468F-43E5-B452-C67934931082";
name = ItalicThin.bubble;
shapes = (
{
closed = 1;
nodes = (
(155,0,l),
(255,482,l),
(318,549,o),
(360,613,o),
(360,669,cs),
(360,723,o),
(321,764,o),
(267,764,cs),
(224,764,o),
(188,737,o),
(174,699,c),
(92,699,l),
(-53,0,l)
);
}
);
width = 209;
},
{
layerId = "35051489-9DA7-4E90-8534-9CC313302D4A";
shapes = (
{
closed = 1;
nodes = (
(210,527,l),
(266,586,o),
(295,634,o),
(295,669,cs),
(295,688,o),
(284,699,o),
(267,699,cs),
(248,699,o),
(233,683,o),
(233,664,cs),
(233,649,o),
(243,639,o),
(259,640,c),
(245,612,o),
(218,578,o),
(186,548,c)
);
},
{
closed = 1;
nodes = (
(49,0,l),
(194,699,l),
(158,699,l),
(13,0,l)
);
}
);
width = 209;
}
);
leftKerningGroup = _R_lcaron;
rightKerningGroup = _L_lcaron;
unicode = 318;
},
{
color = 1;
glyphname = lslash;
layers = (
{
layerId = "9EC2A313-F861-4A0B-B22D-531AADAE0B73";
name = ItalicBlack.bubble;
shapes = (
{
closed = 1;
nodes = (
(334,0,l),
(479,699,l),
(92,699,l),
(-53,0,l)
);
}
);
width = 388;
},
{
layerId = "4574EF20-24B0-4ACA-8F83-7A663124D906";
shapes = (
{
closed = 1;
nodes = (
(386,350,l),
(419,517,l),
(35,345,l),
(3,178,l)
);
},
{
closed = 1;
nodes = (
(240,0,l),
(385,699,l),
(192,699,l),
(47,0,l)
);
}
);
width = 388;
},
{
layerId = "66606BEF-A73D-42AA-BCC4-03AD2ED94557";
associatedMasterId = "F208817E-C060-4D60-AB62-CCF376900793";
name = bubble;
shapes = (
{
closed = 1;
nodes = (
(243,0,l),
(388,699,l),
(92,699,l),
(-53,0,l)
);
}
);
width = 297;
},
{
layerId = "F208817E-C060-4D60-AB62-CCF376900793";
shapes = (
{
closed = 1;
nodes = (
(286,354,l),
(300,429,l),
(42,309,l),
(28,234,l)
);
},
{
closed = 1;
nodes = (
(137,0,l),
(282,699,l),
(207,699,l),
(62,0,l)
);
}
);
width = 297;
},
{
layerId = "E5262BFA-468F-43E5-B452-C67934931082";
name = ItalicThin.bubble;
shapes = (
{
closed = 1;
nodes = (
(231,0,l),
(376,699,l),
(92,699,l),
(-53,0,l)
);
}
);
width = 285;
},
{
layerId = "35051489-9DA7-4E90-8534-9CC313302D4A";
shapes = (
{
closed = 1;
nodes = (
(259,349,l),
(267,390,l),
(52,290,l),
(44,249,l)
);
},
{
closed = 1;
nodes = (
(109,0,l),
(254,699,l),
(218,699,l),
(73,0,l)
);
}
);
width = 285;
}
);
leftKerningGroup = _R_lslash;
rightKerningGroup = _L_lslash;
unicode = 322;
},
{
color = 1;
glyphname = m;
layers = (
{
anchors = (
{
name = bottom;
position = "{195, 0}";
},
{
name = top;
position = "{207, 517}";
}
);
layerId = "9EC2A313-F861-4A0B-B22D-531AADAE0B73";
name = ItalicBlack.bubble;
shapes = (
{
closed = 1;
nodes = (
(898,0,l),
(936,182,l),
(967,329,o),
(969,341,o),
(969,365,cs),
(969,484,o),
(879,572,o),
(758,572,cs),
(690,572,o),
(633,544,o),
(594,497,c),
(556,543,o),
(497,572,o),
(428,572,cs),
(371,572,o),
(320,552,o),
(283,517,c),
(54,517,l),
(-54,0,l)
);
}
);
width = 952;
},
{
anchors = (
{
name = bottom;
position = "{195, 0}";
},
{
name = top;
position = "{207, 517}";
}
);
layerId = "4574EF20-24B0-4ACA-8F83-7A663124D906";
shapes = (
{
closed = 1;
nodes = (
(195,0,l),
(303,517,l),
(110,517,l),
(2,0,l)
);
},
{
closed = 1;
nodes = (
(525,0,l),
(591,318,o),
(597,337,o),
(597,365,cs),
(597,461,o),
(525,530,o),
(428,530,cs),
(343,530,o),
(276,476,o),
(258,388,c),
(256,293,l),
(263,331,o),
(307,370,o),
(358,370,cs),
(398,370,o),
(404,345,o),
(406,323,cs),
(407,312,o),
(388,227,o),
(341,0,c)
);
},
{
closed = 1;
nodes = (
(855,0,l),
(921,318,o),
(927,337,o),
(927,365,cs),
(927,461,o),
(855,530,o),
(758,530,cs),
(673,530,o),
(606,476,o),
(588,388,c),
(586,293,l),
(593,331,o),
(637,370,o),
(688,370,cs),
(728,370,o),
(734,345,o),
(736,323,cs),
(737,312,o),
(718,227,o),
(671,0,c)
);
}
);
width = 952;
},
{
anchors = (
{
name = bottom;
position = "{78, 0}";
},
{
name = top;
position = "{149, 517}";
}
);
layerId = "66606BEF-A73D-42AA-BCC4-03AD2ED94557";
associatedMasterId = "F208817E-C060-4D60-AB62-CCF376900793";
name = bubble;
shapes = (
{
closed = 1;
nodes = (
(796,0,l),
(810,66,o),
(821,120,o),
(830,163,cs),
(866,333,o),
(869,347,o),
(869,376,cs),
(869,495,o),
(787,578,o),
(668,578,cs),
(600,578,o),
(538,551,o),
(493,506,c),
(457,551,o),
(402,578,o),
(334,578,cs),
(272,578,o),
(214,555,o),
(170,517,c),
(54,517,l),
(-54,0,l)
);
}
);
width = 850;
},
{
anchors = (
{
name = bottom;
position = "{78, 0}";
},
{
name = top;
position = "{149, 517}";
}
);
layerId = "F208817E-C060-4D60-AB62-CCF376900793";
shapes = (
{
closed = 1;
nodes = (
(78,0,l),
(186,517,l),
(111,517,l),
(3,0,l)
);
},
{
closed = 1;
nodes = (
(412,0,l),
(479,320,o),
(486,344,o),
(486,376,cs),
(486,467,o),
(427,529,o),
(334,529,cs),
(245,529,o),
(166,472,o),
(142,382,c),
(146,326,l),
(162,406,o),
(240,462,o),
(316,462,cs),
(378,462,o),
(409,424,o),
(409,359,cs),
(409,339,o),
(406,331,o),
(337,0,c)
);
},
{
closed = 1;
nodes = (
(746,0,l),
(813,320,o),
(820,344,o),
(820,376,cs),
(820,467,o),
(761,529,o),
(668,529,cs),
(579,529,o),
(500,472,o),
(476,382,c),
(480,326,l),
(496,406,o),
(574,462,o),
(650,462,cs),
(712,462,o),
(743,424,o),
(743,359,cs),
(743,339,o),
(740,331,o),
(671,0,c)
);
}
);
width = 850;
},
{
anchors = (
{
name = bottom;
position = "{48, 0}";
},
{
name = top;
position = "{138, 517}";
}
);
layerId = "E5262BFA-468F-43E5-B452-C67934931082";
name = ItalicThin.bubble;
shapes = (
{
closed = 1;
nodes = (
(780,0,l),
(825,216,l),
(852,344,o),
(854,355,o),
(854,381,cs),
(854,507,o),
(773,590,o),
(648,590,cs),
(579,590,o),
(516,566,o),
(469,526,c),
(433,567,o),
(379,590,o),
(313,590,cs),
(239,590,o),
(171,562,o),
(124,517,c),
(54,517,l),
(-54,0,l)
);
}
);
width = 834;
},
{
anchors = (
{
name = bottom;
position = "{48, 0}";
},
{
name = top;
position = "{138, 517}";
}
);
layerId = "35051489-9DA7-4E90-8534-9CC313302D4A";
shapes = (
{
closed = 1;
nodes = (
(48,0,l),
(156,517,l),
(120,517,l),
(12,0,l)
);
},
{
closed = 1;
nodes = (
(383,0,l),
(453,336,o),
(459,351,o),
(459,381,cs),
(459,471,o),
(407,529,o),
(313,529,cs),
(221,529,o),
(138,474,o),
(121,392,c),
(119,340,l),
(137,429,o),
(218,493,o),
(306,493,cs),
(380,493,o),
(422,447,o),
(422,372,cs),
(422,352,o),
(419,344,o),
(347,0,c)
);
},
{
closed = 1;
nodes = (
(718,0,l),
(788,336,o),
(794,351,o),
(794,381,cs),
(794,471,o),
(742,529,o),
(648,529,cs),
(556,529,o),
(473,474,o),
(456,392,c),
(454,340,l),
(472,429,o),
(553,493,o),
(641,493,cs),
(715,493,o),
(757,447,o),
(757,372,cs),
(757,352,o),
(754,344,o),
(682,0,c)
);
}
);
width = 834;
}
);
leftKerningGroup = _R_m;
rightKerningGroup = _L_m;
unicode = 109;
},
{
color = 1;
glyphname = n;
layers = (
{
anchors = (
{
name = bottom;
position = "{267, 0}";
},
{
name = top;
position = "{372, 517}";
}
);
layerId = "9EC2A313-F861-4A0B-B22D-531AADAE0B73";
name = ItalicBlack.bubble;
shapes = (
{
closed = 1;
nodes = (
(571,0,l),
(606,164,l),
(636,309,o),
(642,336,o),
(642,369,cs),
(642,488,o),
(557,571,o),
(436,571,cs),
(375,571,o),
(319,551,o),
(277,517,c),
(54,517,l),
(-54,0,l)
);
}
);
width = 626;
},
{
anchors = (
{
name = bottom;
position = "{267, 0}";
},
{
name = top;
position = "{372, 517}";
}
);
layerId = "4574EF20-24B0-4ACA-8F83-7A663124D906";
shapes = (
{
closed = 1;
nodes = (
(195,0,l),
(303,517,l),
(110,517,l),
(2,0,l)
);
},
{
closed = 1;
nodes = (
(528,0,l),
(592,305,o),
(600,331,o),
(600,369,cs),
(600,462,o),
(537,529,o),
(436,529,cs),
(343,529,o),
(264,475,o),
(241,387,c),
(253,282,l),
(261,328,o),
(306,369,o),
(356,369,cs),
(388,369,o),
(408,351,o),
(408,317,cs),
(408,302,o),
(405,289,o),
(344,0,c)
);
}
);
width = 626;
},
{
anchors = (
{
name = bottom;
position = "{227, 0}";
},
{
name = top;
position = "{358, 517}";
}
);
layerId = "66606BEF-A73D-42AA-BCC4-03AD2ED94557";
associatedMasterId = "F208817E-C060-4D60-AB62-CCF376900793";
name = bubble;
shapes = (
{
closed = 1;
nodes = (
(491,0,l),
(528,175,l),
(557,314,o),
(563,340,o),
(563,374,cs),
(563,495,o),
(477,578,o),
(352,578,cs),
(290,578,o),
(228,555,o),
(180,517,c),
(54,517,l),
(-54,0,l)
);
}
);
width = 545;
},
{
anchors = (
{
name = bottom;
position = "{227, 0}";
},
{
name = top;
position = "{358, 517}";
}
);
layerId = "F208817E-C060-4D60-AB62-CCF376900793";
shapes = (
{
closed = 1;
nodes = (
(78,0,l),
(186,517,l),
(111,517,l),
(3,0,l)
);
},
{
closed = 1;
nodes = (
(441,0,l),
(506,311,o),
(514,336,o),
(514,374,cs),
(514,466,o),
(452,529,o),
(352,529,cs),
(259,529,o),
(163,463,o),
(141,382,c),
(146,326,l),
(161,398,o),
(249,462,o),
(339,462,cs),
(400,462,o),
(437,423,o),
(437,361,cs),
(437,330,o),
(430,308,o),
(366,0,c)
);
}
);
width = 545;
},
{
anchors = (
{
name = bottom;
position = "{239, 0}";
},
{
name = top;
position = "{344, 517}";
}
);
layerId = "E5262BFA-468F-43E5-B452-C67934931082";
name = ItalicThin.bubble;
shapes = (
{
closed = 1;
nodes = (
(472,0,l),
(511,190,ls),
(544,344,o),
(546,355,o),
(546,381,cs),
(546,504,o),
(455,589,o),
(325,589,cs),
(251,589,o),
(184,562,o),
(134,517,c),
(54,517,l),
(-54,0,l)
);
}
);
width = 526;
},
{
anchors = (
{
name = bottom;
position = "{239, 0}";
},
{
name = top;
position = "{344, 517}";
}
);
layerId = "35051489-9DA7-4E90-8534-9CC313302D4A";
shapes = (
{
closed = 1;
nodes = (
(48,0,l),
(156,517,l),
(120,517,l),
(12,0,l)
);
},
{
closed = 1;
nodes = (
(410,0,l),
(481,339,o),
(486,353,o),
(486,381,cs),
(486,469,o),
(424,529,o),
(325,529,cs),
(219,529,o),
(130,460,o),
(110,361,c),
(116,329,l),
(136,424,o),
(219,493,o),
(318,493,cs),
(398,493,o),
(448,445,o),
(448,372,cs),
(448,343,o),
(442,322,o),
(374,0,c)
);
}
);
width = 526;
}
);
leftKerningGroup = _R_n;
rightKerningGroup = _L_n;
unicode = 110;
},
{
color = 1;
glyphname = o;
layers = (
{
anchors = (
{
name = top;
position = "{348, 517}";
}
);
layerId = "9EC2A313-F861-4A0B-B22D-531AADAE0B73";
name = ItalicBlack.bubble;
shapes = (
{
closed = 1;
nodes = (
(465,-30,o),
(627,117,o),
(627,296,cs),
(627,444,o),
(515,547,o),
(357,547,cs),
(161,547,o),
(-1,401,o),
(-1,222,cs),
(-1,73,o),
(110,-30,o),
(269,-30,cs)
);
}
);
width = 626;
},
{
anchors = (
{
name = top;
position = "{363, 517}";
}
);
layerId = "4574EF20-24B0-4ACA-8F83-7A663124D906";
shapes = (
{
closed = 1;
nodes = (
(456,-12,o),
(609,127,o),
(609,296,cs),
(609,434,o),
(506,529,o),
(357,529,cs),
(170,529,o),
(17,391,o),
(17,222,cs),
(17,83,o),
(120,-12,o),
(269,-12,cs)
);
},
{
closed = 1;
nodes = (
(231,148,o),
(199,179,o),
(199,225,cs),
(199,304,o),
(266,369,o),
(349,369,cs),
(395,369,o),
(427,338,o),
(427,293,cs),
(427,213,o),
(360,148,o),
(278,148,cs)
);
}
);
width = 626;
},
{
anchors = (
{
name = top;
position = "{339, 517}";
}
);
layerId = "66606BEF-A73D-42AA-BCC4-03AD2ED94557";
associatedMasterId = "F208817E-C060-4D60-AB62-CCF376900793";
name = bubble;
shapes = (
{
closed = 1;
nodes = (
(443,-47,o),
(610,116,o),
(610,309,cs),
(610,447,o),
(494,564,o),
(357,564,cs),
(161,564,o),
(-4,401,o),
(-4,208,cs),
(-4,70,o),
(110,-47,o),
(245,-47,cs)
);
}
);
width = 606;
},
{
anchors = (
{
name = top;
position = "{353, 517}";
}
);
layerId = "F208817E-C060-4D60-AB62-CCF376900793";
shapes = (
{
closed = 1;
nodes = (
(424,-12,o),
(575,135,o),
(575,309,cs),
(575,428,o),
(475,529,o),
(357,529,cs),
(180,529,o),
(31,382,o),
(31,208,cs),
(31,89,o),
(129,-12,o),
(245,-12,cs)
);
},
{
closed = 1;
nodes = (
(178,55,o),
(109,127,o),
(109,213,cs),
(109,348,o),
(216,462,o),
(343,462,cs),
(427,462,o),
(497,389,o),
(497,303,cs),
(497,168,o),
(388,55,o),
(259,55,cs)
);
}
);
width = 606;
},
{
anchors = (
{
name = top;
position = "{354, 517}";
}
);
layerId = "E5262BFA-468F-43E5-B452-C67934931082";
name = ItalicThin.bubble;
shapes = (
{
closed = 1;
nodes = (
(470,-61,o),
(640,109,o),
(640,311,cs),
(640,456,o),
(519,578,o),
(373,578,cs),
(168,578,o),
(-3,409,o),
(-3,207,cs),
(-3,61,o),
(120,-61,o),
(266,-61,cs)
);
}
);
width = 637;
},
{
anchors = (
{
name = top;
position = "{386, 517}";
}
);
layerId = "35051489-9DA7-4E90-8534-9CC313302D4A";
shapes = (
{
closed = 1;
nodes = (
(443,-12,o),
(592,136,o),
(592,311,cs),
(592,429,o),
(492,529,o),
(373,529,cs),
(195,529,o),
(46,382,o),
(46,207,cs),
(46,88,o),
(147,-12,o),
(266,-12,cs)
);
},
{
closed = 1;
nodes = (
(167,24,o),
(82,109,o),
(82,209,cs),
(82,363,o),
(214,493,o),
(371,493,cs),
(471,493,o),
(556,408,o),
(556,308,cs),
(556,154,o),
(424,24,o),
(268,24,cs)
);
}
);
width = 637;
}
);
leftKerningGroup = _R_o;
rightKerningGroup = _L_o;
unicode = 111;
},
{
color = 1;
glyphname = oslash;
layers = (
{
layerId = "9EC2A313-F861-4A0B-B22D-531AADAE0B73";
name = ItalicBlack.bubble;
shapes = (
{
closed = 1;
nodes = (
(121,0,l),
(164,-25,o),
(217,-39,o),
(276,-39,cs),
(478,-39,o),
(643,112,o),
(643,296,cs),
(643,348,o),
(630,394,o),
(606,433,c),
(696,517,l),
(519,517,l),
(476,542,o),
(423,556,o),
(364,556,cs),
(162,556,o),
(-1,406,o),
(-1,222,cs),
(-1,172,o),
(11,127,o),
(33,89,c),
(-46,0,l)
);
}
);
width = 642;
},
{
layerId = "4574EF20-24B0-4ACA-8F83-7A663124D906";
shapes = (
{
closed = 1;
nodes = (
(109,0,l),
(666,517,l),
(542,517,l),
(-16,0,l)
);
},
{
closed = 1;
nodes = (
(463,-12,o),
(616,127,o),
(616,296,cs),
(616,434,o),
(513,529,o),
(364,529,cs),
(177,529,o),
(24,391,o),
(24,222,cs),
(24,83,o),
(127,-12,o),
(276,-12,cs)
);
},
{
closed = 1;
nodes = (
(238,148,o),
(206,179,o),
(206,225,cs),
(206,304,o),
(273,369,o),
(356,369,cs),
(402,369,o),
(434,338,o),
(434,293,cs),
(434,213,o),
(367,148,o),
(285,148,cs)
);
}
);
width = 642;
},
{
layerId = "66606BEF-A73D-42AA-BCC4-03AD2ED94557";
associatedMasterId = "F208817E-C060-4D60-AB62-CCF376900793";
name = bubble;
shapes = (
{
closed = 1;
nodes = (
(101,0,l),
(143,-32,o),
(195,-51,o),
(250,-51,cs),
(450,-51,o),
(619,113,o),
(619,309,cs),
(619,355,o),
(607,398,o),
(585,436,c),
(670,517,l),
(514,517,l),
(471,549,o),
(418,568,o),
(362,568,cs),
(164,568,o),
(-3,404,o),
(-3,208,cs),
(-3,159,o),
(11,112,o),
(36,72,c),
(-41,0,l)
);
}
);
width = 616;
},
{
layerId = "F208817E-C060-4D60-AB62-CCF376900793";
shapes = (
{
closed = 1;
nodes = (
(86,0,l),
(635,517,l),
(548,517,l),
(-1,0,l)
);
},
{
closed = 1;
nodes = (
(425,-12,o),
(576,135,o),
(576,309,cs),
(576,428,o),
(476,529,o),
(358,529,cs),
(181,529,o),
(32,382,o),
(32,208,cs),
(32,89,o),
(130,-12,o),
(246,-12,cs)
);
},
{
closed = 1;
nodes = (
(179,55,o),
(110,127,o),
(110,213,cs),
(110,348,o),
(217,462,o),
(344,462,cs),
(428,462,o),
(498,389,o),
(498,303,cs),
(498,168,o),
(389,55,o),
(260,55,cs)
);
}
);
width = 616;
},
{
layerId = "E5262BFA-468F-43E5-B452-C67934931082";
name = ItalicThin.bubble;
shapes = (
{
closed = 1;
nodes = (
(97,0,l),
(144,-38,o),
(203,-61,o),
(266,-61,cs),
(470,-61,o),
(641,109,o),
(641,311,cs),
(641,363,o),
(625,412,o),
(598,454,c),
(665,517,l),
(542,517,l),
(495,555,o),
(436,578,o),
(373,578,cs),
(168,578,o),
(-3,409,o),
(-3,207,cs),
(-3,156,o),
(12,108,o),
(38,67,c),
(-33,0,l)
);
}
);
width = 638;
},
{
layerId = "35051489-9DA7-4E90-8534-9CC313302D4A";
shapes = (
{
closed = 1;
nodes = (
(66,0,l),
(615,517,l),
(565,517,l),
(17,0,l)
);
},
{
closed = 1;
nodes = (
(443,-12,o),
(592,136,o),
(592,311,cs),
(592,429,o),
(492,529,o),
(373,529,cs),
(195,529,o),
(46,382,o),
(46,207,cs),
(46,88,o),
(147,-12,o),
(266,-12,cs)
);
},
{
closed = 1;
nodes = (
(167,24,o),
(82,109,o),
(82,209,cs),
(82,363,o),
(214,493,o),
(371,493,cs),
(471,493,o),
(556,408,o),
(556,308,cs),
(556,154,o),
(424,24,o),
(268,24,cs)
);
}
);
width = 638;
}
);
leftKerningGroup = _R_oslash;
rightKerningGroup = _L_oslash;
unicode = 248;
},
{
color = 1;
glyphname = oe;
layers = (
{
anchors = (
{
name = bottom;
position = "{670, -12}";
},
{
name = top;
position = "{358, 517}";
}
);
layerId = "9EC2A313-F861-4A0B-B22D-531AADAE0B73";
name = ItalicBlack.bubble;
shapes = (
{
closed = 1;
nodes = (
(-1,73,o),
(109,-31,o),
(269,-31,cs),
(349,-31,o),
(423,-7,o),
(483,34,c),
(528,-7,o),
(593,-31,o),
(670,-31,cs),
(752,-31,o),
(847,1,o),
(903,48,c),
(786,195,l),
(746,167,o),
(703,151,o),
(667,151,cs),
(637,151,o),
(618,166,o),
(613,194,c),
(696,194,l),
(867,188,o),
(973,260,o),
(973,388,cs),
(973,482,o),
(879,548,o),
(750,548,cs),
(674,548,o),
(604,524,o),
(548,482,c),
(500,524,o),
(434,548,o),
(357,548,cs),
(159,548,o),
(-1,402,o),
(-1,222,cs)
);
}
);
width = 951;
},
{
anchors = (
{
name = bottom;
position = "{670, -12}";
},
{
name = top;
position = "{358, 517}";
}
);
layerId = "4574EF20-24B0-4ACA-8F83-7A663124D906";
shapes = (
{
closed = 1;
nodes = (
(456,-12,o),
(609,127,o),
(609,296,cs),
(609,434,o),
(506,529,o),
(357,529,cs),
(170,529,o),
(17,391,o),
(17,222,cs),
(17,83,o),
(120,-12,o),
(269,-12,cs)
);
},
{
closed = 1;
nodes = (
(231,148,o),
(199,179,o),
(199,225,cs),
(199,304,o),
(266,369,o),
(349,369,cs),
(395,369,o),
(427,338,o),
(427,293,cs),
(427,213,o),
(360,148,o),
(278,148,cs)
);
},
{
closed = 1;
nodes = (
(743,-12,o),
(835,16,o),
(891,63,c),
(798,180,l),
(760,153,o),
(713,132,o),
(667,132,cs),
(620,132,o),
(592,163,o),
(592,213,cs),
(592,295,o),
(660,385,o),
(745,385,cs),
(775,385,o),
(797,374,o),
(797,359,c),
(796,331,o),
(766,314,o),
(717,314,c),
(499,314,l),
(478,213,l),
(696,213,l),
(857,207,o),
(952,272,o),
(952,388,cs),
(952,471,o),
(868,529,o),
(750,529,cs),
(570,529,o),
(430,387,o),
(430,210,cs),
(430,78,o),
(522,-12,o),
(670,-12,cs)
);
}
);
width = 951;
},
{
anchors = (
{
name = bottom;
position = "{699, -12}";
},
{
name = top;
position = "{353, 517}";
}
);
layerId = "66606BEF-A73D-42AA-BCC4-03AD2ED94557";
associatedMasterId = "F208817E-C060-4D60-AB62-CCF376900793";
name = bubble;
shapes = (
{
closed = 1;
nodes = (
(-3,70,o),
(110,-46,o),
(245,-46,cs),
(343,-46,o),
(432,-7,o),
(498,56,c),
(541,-7,o),
(612,-46,o),
(699,-46,cs),
(785,-46,o),
(892,-9,o),
(948,39,c),
(866,146,l),
(833,114,o),
(766,89,o),
(712,89,cs),
(644,89,o),
(603,128,o),
(598,196,c),
(747,196,ls),
(914,196,o),
(1024,271,o),
(1024,386,cs),
(1024,488,o),
(932,563,o),
(807,563,cs),
(715,563,o),
(627,520,o),
(563,454,c),
(517,519,o),
(441,563,o),
(357,563,cs),
(161,563,o),
(-3,401,o),
(-3,208,cs)
);
}
);
width = 1001;
},
{
anchors = (
{
name = bottom;
position = "{699, -12}";
},
{
name = top;
position = "{353, 517}";
}
);
layerId = "F208817E-C060-4D60-AB62-CCF376900793";
shapes = (
{
closed = 1;
nodes = (
(424,-12,o),
(575,135,o),
(575,309,cs),
(575,428,o),
(475,529,o),
(357,529,cs),
(180,529,o),
(31,382,o),
(31,208,cs),
(31,89,o),
(129,-12,o),
(245,-12,cs)
);
},
{
closed = 1;
nodes = (
(178,55,o),
(109,127,o),
(109,213,cs),
(109,348,o),
(216,462,o),
(343,462,cs),
(427,462,o),
(497,389,o),
(497,303,cs),
(497,168,o),
(388,55,o),
(259,55,cs)
);
},
{
closed = 1;
nodes = (
(769,-12,o),
(872,17,o),
(927,66,c),
(887,119,l),
(849,84,o),
(776,55,o),
(712,55,cs),
(620,55,o),
(564,116,o),
(564,210,cs),
(564,334,o),
(662,462,o),
(801,462,cs),
(868,462,o),
(918,432,o),
(918,382,cs),
(918,328,o),
(861,297,o),
(761,297,c),
(554,297,l),
(540,230,l),
(747,230,l),
(901,230,o),
(992,295,o),
(992,386,cs),
(992,475,o),
(904,529,o),
(807,529,cs),
(644,529,o),
(490,376,o),
(490,204,cs),
(490,75,o),
(577,-12,o),
(699,-12,cs)
);
}
);
width = 1001;
},
{
anchors = (
{
name = bottom;
position = "{753, -12}";
},
{
name = top;
position = "{373, 517}";
}
);
layerId = "E5262BFA-468F-43E5-B452-C67934931082";
name = ItalicThin.bubble;
shapes = (
{
closed = 1;
nodes = (
(-3,61,o),
(120,-61,o),
(266,-61,cs),
(372,-61,o),
(469,-15,o),
(538,57,c),
(582,-15,o),
(659,-61,o),
(752,-61,cs),
(845,-61,o),
(952,-25,o),
(1012,27,c),
(933,136,l),
(892,97,o),
(826,73,o),
(757,73,cs),
(690,73,o),
(639,122,o),
(633,193,c),
(805,193,ls),
(985,193,o),
(1095,265,o),
(1095,387,cs),
(1095,498,o),
(998,578,o),
(863,578,cs),
(762,578,o),
(667,529,o),
(598,454,c),
(550,528,o),
(467,578,o),
(373,578,cs),
(168,578,o),
(-3,409,o),
(-3,207,cs)
);
}
);
width = 1072;
},
{
anchors = (
{
name = bottom;
position = "{753, -12}";
},
{
name = top;
position = "{373, 517}";
}
);
layerId = "35051489-9DA7-4E90-8534-9CC313302D4A";
shapes = (
{
closed = 1;
nodes = (
(443,-12,o),
(592,136,o),
(592,311,cs),
(592,429,o),
(492,529,o),
(373,529,cs),
(195,529,o),
(46,382,o),
(46,207,cs),
(46,88,o),
(147,-12,o),
(266,-12,cs)
);
},
{
closed = 1;
nodes = (
(167,24,o),
(82,109,o),
(82,209,cs),
(82,363,o),
(214,493,o),
(371,493,cs),
(471,493,o),
(556,408,o),
(556,308,cs),
(556,154,o),
(424,24,o),
(268,24,cs)
);
},
{
closed = 1;
nodes = (
(833,-12,o),
(931,20,o),
(983,67,c),
(962,96,l),
(910,49,o),
(832,24,o),
(757,24,cs),
(655,24,o),
(583,105,o),
(583,209,cs),
(583,350,o),
(711,493,o),
(857,493,cs),
(948,493,o),
(1012,448,o),
(1012,385,cs),
(1012,318,o),
(938,278,o),
(812,278,c),
(577,278,l),
(570,242,l),
(805,242,l),
(958,242,o),
(1048,296,o),
(1048,387,cs),
(1048,470,o),
(971,529,o),
(863,529,cs),
(698,529,o),
(547,371,o),
(547,205,cs),
(547,82,o),
(631,-12,o),
(752,-12,cs)
);
}
);
width = 1072;
}
);
leftKerningGroup = _R_o;
rightKerningGroup = _L_e;
unicode = 339;
},
{
color = 1;
glyphname = p;
layers = (
{
layerId = "9EC2A313-F861-4A0B-B22D-531AADAE0B73";
name = ItalicBlack.bubble;
shapes = (
{
closed = 1;
nodes = (
(232,-172,l),
(267,-5,l),
(298,-24,o),
(336,-34,o),
(379,-34,cs),
(549,-34,o),
(687,125,o),
(687,318,cs),
(687,458,o),
(599,551,o),
(467,551,cs),
(421,551,o),
(377,539,o),
(338,517,c),
(54,517,l),
(-89,-172,l)
);
}
);
width = 683;
},
{
layerId = "4574EF20-24B0-4ACA-8F83-7A663124D906";
shapes = (
{
closed = 1;
nodes = (
(168,-172,l),
(311,517,l),
(118,517,l),
(-25,-172,l)
);
},
{
closed = 1;
nodes = (
(545,-12,o),
(665,147,o),
(665,318,cs),
(665,444,o),
(589,529,o),
(467,529,cs),
(304,529,o),
(185,368,o),
(185,199,cs),
(185,73,o),
(259,-12,o),
(379,-12,cs)
);
},
{
closed = 1;
nodes = (
(280,148,o),
(252,175,o),
(252,219,cs),
(252,292,o),
(318,369,o),
(398,369,cs),
(450,369,o),
(481,341,o),
(481,296,cs),
(481,221,o),
(410,148,o),
(327,148,cs)
);
}
);
width = 683;
},
{
layerId = "66606BEF-A73D-42AA-BCC4-03AD2ED94557";
associatedMasterId = "F208817E-C060-4D60-AB62-CCF376900793";
name = bubble;
shapes = (
{
closed = 1;
nodes = (
(102,-172,l),
(138,0,l),
(172,-30,o),
(215,-47,o),
(261,-47,cs),
(447,-47,o),
(602,123,o),
(602,324,cs),
(602,454,o),
(497,564,o),
(373,564,cs),
(318,564,o),
(266,547,o),
(220,517,c),
(54,517,l),
(-89,-172,l)
);
}
);
width = 597;
},
{
layerId = "F208817E-C060-4D60-AB62-CCF376900793";
shapes = (
{
closed = 1;
nodes = (
(44,-172,l),
(187,517,l),
(112,517,l),
(-31,-172,l)
);
},
{
closed = 1;
nodes = (
(427,-12,o),
(567,142,o),
(567,324,cs),
(567,435,o),
(478,529,o),
(373,529,cs),
(218,529,o),
(88,373,o),
(88,187,cs),
(88,79,o),
(167,-12,o),
(261,-12,cs)
);
},
{
closed = 1;
nodes = (
(194,55,o),
(127,121,o),
(127,199,cs),
(127,342,o),
(233,462,o),
(359,462,cs),
(430,462,o),
(489,396,o),
(489,318,cs),
(489,175,o),
(391,55,o),
(274,55,cs)
);
}
);
width = 597;
},
{
layerId = "E5262BFA-468F-43E5-B452-C67934931082";
name = ItalicThin.bubble;
shapes = (
{
closed = 1;
nodes = (
(82,-172,l),
(113,-22,l),
(151,-47,o),
(199,-61,o),
(255,-61,cs),
(428,-61,o),
(596,126,o),
(596,318,cs),
(596,468,o),
(498,578,o),
(362,578,cs),
(294,578,o),
(230,556,o),
(176,517,c),
(54,517,l),
(-89,-172,l)
);
}
);
width = 591;
},
{
layerId = "35051489-9DA7-4E90-8534-9CC313302D4A";
shapes = (
{
closed = 1;
nodes = (
(14,-172,l),
(157,517,l),
(121,517,l),
(-22,-172,l)
);
},
{
closed = 1;
nodes = (
(401,-12,o),
(547,153,o),
(547,318,cs),
(547,442,o),
(470,529,o),
(362,529,cs),
(199,529,o),
(61,374,o),
(61,190,cs),
(61,63,o),
(133,-12,o),
(255,-12,cs)
);
},
{
closed = 1;
nodes = (
(154,24,o),
(97,86,o),
(97,192,cs),
(97,355,o),
(214,493,o),
(353,493,cs),
(445,493,o),
(510,419,o),
(510,314,cs),
(510,169,o),
(380,24,o),
(250,24,cs)
);
}
);
width = 591;
}
);
leftKerningGroup = _R_p;
rightKerningGroup = _L_p;
unicode = 112;
},
{
color = 1;
glyphname = thorn;
layers = (
{
layerId = "9EC2A313-F861-4A0B-B22D-531AADAE0B73";
name = ItalicBlack.bubble;
shapes = (
{
closed = 1;
nodes = (
(245,-172,l),
(279,-8,l),
(310,-25,o),
(346,-34,o),
(387,-34,cs),
(557,-34,o),
(695,125,o),
(695,318,cs),
(695,458,o),
(607,551,o),
(475,551,cs),
(446,551,o),
(419,546,o),
(392,538,c),
(426,699,l),
(92,699,l),
(-89,-172,l)
);
}
);
width = 691;
},
{
layerId = "4574EF20-24B0-4ACA-8F83-7A663124D906";
shapes = (
{
closed = 1;
nodes = (
(175,-172,l),
(356,699,l),
(163,699,l),
(-18,-172,l)
);
},
{
closed = 1;
nodes = (
(553,-12,o),
(673,147,o),
(673,318,cs),
(673,444,o),
(597,529,o),
(475,529,cs),
(312,529,o),
(193,369,o),
(193,199,cs),
(193,73,o),
(267,-12,o),
(387,-12,cs)
);
},
{
closed = 1;
nodes = (
(288,148,o),
(260,175,o),
(260,219,cs),
(260,292,o),
(326,369,o),
(406,369,cs),
(458,369,o),
(489,341,o),
(489,296,cs),
(489,221,o),
(418,148,o),
(335,148,cs)
);
}
);
width = 691;
},
{
layerId = "66606BEF-A73D-42AA-BCC4-03AD2ED94557";
associatedMasterId = "F208817E-C060-4D60-AB62-CCF376900793";
name = bubble;
shapes = (
{
closed = 1;
nodes = (
(105,-172,l),
(140,-1,l),
(175,-30,o),
(217,-47,o),
(263,-47,cs),
(449,-47,o),
(604,123,o),
(604,324,cs),
(604,454,o),
(499,564,o),
(375,564,cs),
(331,564,o),
(290,553,o),
(252,534,c),
(286,699,l),
(92,699,l),
(-89,-172,l)
);
}
);
width = 599;
},
{
layerId = "F208817E-C060-4D60-AB62-CCF376900793";
shapes = (
{
closed = 1;
nodes = (
(45,-172,l),
(226,699,l),
(151,699,l),
(-30,-172,l)
);
},
{
closed = 1;
nodes = (
(429,-12,o),
(569,142,o),
(569,324,cs),
(569,435,o),
(480,529,o),
(375,529,cs),
(220,529,o),
(90,373,o),
(90,187,cs),
(90,79,o),
(169,-12,o),
(263,-12,cs)
);
},
{
closed = 1;
nodes = (
(196,55,o),
(129,121,o),
(129,199,cs),
(129,342,o),
(235,462,o),
(361,462,cs),
(432,462,o),
(491,396,o),
(491,318,cs),
(491,175,o),
(393,55,o),
(276,55,cs)
);
}
);
width = 599;
},
{
layerId = "E5262BFA-468F-43E5-B452-C67934931082";
name = ItalicThin.bubble;
shapes = (
{
closed = 1;
nodes = (
(84,-172,l),
(115,-23,l),
(153,-48,o),
(201,-61,o),
(256,-61,cs),
(429,-61,o),
(597,126,o),
(597,318,cs),
(597,468,o),
(499,578,o),
(363,578,cs),
(318,578,o),
(274,568,o),
(234,550,c),
(265,699,l),
(92,699,l),
(-89,-172,l)
);
}
);
width = 592;
},
{
layerId = "35051489-9DA7-4E90-8534-9CC313302D4A";
shapes = (
{
closed = 1;
nodes = (
(14,-172,l),
(195,699,l),
(159,699,l),
(-22,-172,l)
);
},
{
closed = 1;
nodes = (
(402,-12,o),
(548,153,o),
(548,318,cs),
(548,442,o),
(471,529,o),
(363,529,cs),
(200,529,o),
(62,374,o),
(62,190,cs),
(62,63,o),
(134,-12,o),
(256,-12,cs)
);
},
{
closed = 1;
nodes = (
(155,24,o),
(98,86,o),
(98,192,cs),
(98,355,o),
(215,493,o),
(354,493,cs),
(446,493,o),
(511,419,o),
(511,314,cs),
(511,169,o),
(381,24,o),
(251,24,cs)
);
}
);
width = 592;
}
);
leftKerningGroup = _R_thorn;
rightKerningGroup = _L_thorn;
unicode = 254;
},
{
color = 1;
glyphname = q;
layers = (
{
layerId = "9EC2A313-F861-4A0B-B22D-531AADAE0B73";
name = ItalicBlack.bubble;
shapes = (
{
closed = 1;
nodes = (
(-4,60,o),
(84,-34,o),
(216,-34,cs),
(247,-34,o),
(277,-29,o),
(305,-19,c),
(273,-172,l),
(592,-172,l),
(735,517,l),
(425,517,l),
(392,539,o),
(351,551,o),
(304,551,cs),
(134,551,o),
(-4,391,o),
(-4,200,cs)
);
}
);
width = 682;
},
{
layerId = "4574EF20-24B0-4ACA-8F83-7A663124D906";
shapes = (
{
closed = 1;
nodes = (
(380,-12,o),
(498,148,o),
(498,319,cs),
(498,444,o),
(423,529,o),
(304,529,cs),
(138,529,o),
(18,369,o),
(18,200,cs),
(18,74,o),
(94,-12,o),
(216,-12,cs)
);
},
{
closed = 1;
nodes = (
(233,148,o),
(202,176,o),
(202,221,cs),
(202,298,o),
(273,369,o),
(357,369,cs),
(403,369,o),
(431,342,o),
(431,298,cs),
(431,226,o),
(366,148,o),
(286,148,cs)
);
},
{
closed = 1;
nodes = (
(529,-172,l),
(672,517,l),
(479,517,l),
(336,-172,l)
);
}
);
width = 682;
},
{
layerId = "66606BEF-A73D-42AA-BCC4-03AD2ED94557";
associatedMasterId = "F208817E-C060-4D60-AB62-CCF376900793";
name = bubble;
shapes = (
{
closed = 1;
nodes = (
(-5,63,o),
(99,-47,o),
(224,-47,cs),
(268,-47,o),
(311,-36,o),
(349,-16,c),
(317,-172,l),
(506,-172,l),
(649,517,l),
(460,517,l),
(425,546,o),
(382,564,o),
(336,564,cs),
(150,564,o),
(-5,395,o),
(-5,194,cs)
);
}
);
width = 596;
},
{
layerId = "F208817E-C060-4D60-AB62-CCF376900793";
shapes = (
{
closed = 1;
nodes = (
(379,-12,o),
(509,145,o),
(509,331,cs),
(509,438,o),
(430,529,o),
(336,529,cs),
(170,529,o),
(30,376,o),
(30,194,cs),
(30,82,o),
(119,-12,o),
(224,-12,cs)
);
},
{
closed = 1;
nodes = (
(167,55,o),
(108,121,o),
(108,199,cs),
(108,342,o),
(206,462,o),
(322,462,cs),
(402,462,o),
(470,396,o),
(470,318,cs),
(470,175,o),
(364,55,o),
(238,55,cs)
);
},
{
closed = 1;
nodes = (
(449,-172,l),
(592,517,l),
(517,517,l),
(374,-172,l)
);
}
);
width = 596;
},
{
layerId = "E5262BFA-468F-43E5-B452-C67934931082";
name = ItalicThin.bubble;
shapes = (
{
closed = 1;
nodes = (
(-5,49,o),
(93,-61,o),
(230,-61,cs),
(275,-61,o),
(319,-51,o),
(359,-32,c),
(330,-172,l),
(500,-172,l),
(643,517,l),
(509,517,l),
(468,556,o),
(411,578,o),
(342,578,cs),
(165,578,o),
(-5,392,o),
(-5,200,cs)
);
}
);
width = 590;
},
{
layerId = "35051489-9DA7-4E90-8534-9CC313302D4A";
shapes = (
{
closed = 1;
nodes = (
(393,-12,o),
(530,145,o),
(530,331,cs),
(530,455,o),
(460,529,o),
(342,529,cs),
(193,529,o),
(44,365,o),
(44,200,cs),
(44,76,o),
(121,-12,o),
(230,-12,cs)
);
},
{
closed = 1;
nodes = (
(145,24,o),
(80,98,o),
(80,202,cs),
(80,348,o),
(208,493,o),
(335,493,cs),
(434,493,o),
(493,429,o),
(493,321,cs),
(493,160,o),
(376,24,o),
(237,24,cs)
);
},
{
closed = 1;
nodes = (
(433,-172,l),
(576,517,l),
(540,517,l),
(397,-172,l)
);
}
);
width = 590;
}
);
leftKerningGroup = _R_q;
rightKerningGroup = _L_q;
unicode = 113;
},
{
color = 1;
glyphname = r;
layers = (
{
anchors = (
{
name = bottom;
position = "{175, 0}";
},
{
name = top;
position = "{280, 517}";
}
);
layerId = "9EC2A313-F861-4A0B-B22D-531AADAE0B73";
name = ItalicBlack.bubble;
shapes = (
{
closed = 1;
nodes = (
(253,0,l),
(297,212,l),
(316,275,o),
(372,314,o),
(442,313,c),
(499,583,l),
(419,594,o),
(345,569,o),
(286,517,c),
(54,517,l),
(-54,0,l)
);
}
);
width = 431;
},
{
anchors = (
{
name = bottom;
position = "{175, 0}";
},
{
name = top;
position = "{280, 517}";
}
);
layerId = "4574EF20-24B0-4ACA-8F83-7A663124D906";
shapes = (
{
closed = 1;
nodes = (
(195,0,l),
(303,517,l),
(110,517,l),
(2,0,l)
);
},
{
closed = 1;
nodes = (
(239,211,l),
(259,305,o),
(338,369,o),
(440,369,c),
(461,529,l),
(347,529,o),
(252,433,o),
(222,287,c)
);
}
);
width = 431;
},
{
anchors = (
{
name = bottom;
position = "{150, 0}";
},
{
name = top;
position = "{258, 517}";
}
);
layerId = "66606BEF-A73D-42AA-BCC4-03AD2ED94557";
associatedMasterId = "F208817E-C060-4D60-AB62-CCF376900793";
name = bubble;
shapes = (
{
closed = 1;
nodes = (
(136,0,l),
(196,286,l),
(217,359,o),
(301,412,o),
(394,404,c),
(432,584,l),
(334,596,o),
(244,570,o),
(178,517,c),
(54,517,l),
(-54,0,l)
);
}
);
width = 364;
},
{
anchors = (
{
name = bottom;
position = "{150, 0}";
},
{
name = top;
position = "{258, 517}";
}
);
layerId = "F208817E-C060-4D60-AB62-CCF376900793";
shapes = (
{
closed = 1;
nodes = (
(78,0,l),
(186,517,l),
(111,517,l),
(3,0,l)
);
},
{
closed = 1;
nodes = (
(137,287,l),
(158,388,o),
(259,462,o),
(376,462,c),
(385,529,l),
(258,529,o),
(156,453,o),
(133,342,c)
);
}
);
width = 364;
},
{
anchors = (
{
name = bottom;
position = "{146, 0}";
},
{
name = top;
position = "{251, 517}";
}
);
layerId = "E5262BFA-468F-43E5-B452-C67934931082";
name = ItalicThin.bubble;
shapes = (
{
closed = 1;
nodes = (
(115,0,l),
(174,281,l),
(199,378,o),
(287,441,o),
(383,425,c),
(417,590,l),
(307,608,o),
(205,579,o),
(137,517,c),
(54,517,l),
(-54,0,l)
);
}
);
width = 348;
},
{
anchors = (
{
name = bottom;
position = "{146, 0}";
},
{
name = top;
position = "{251, 517}";
}
);
layerId = "35051489-9DA7-4E90-8534-9CC313302D4A";
shapes = (
{
closed = 1;
nodes = (
(48,0,l),
(156,517,l),
(120,517,l),
(12,0,l)
);
},
{
closed = 1;
nodes = (
(108,288,l),
(134,407,o),
(235,493,o),
(352,493,c),
(357,529,l),
(250,529,o),
(141,471,o),
(117,360,c)
);
}
);
width = 348;
}
);
leftKerningGroup = _R_r;
rightKerningGroup = _L_r;
unicode = 114;
},
{
color = 1;
glyphname = s;
layers = (
{
anchors = (
{
name = bottom;
position = "{202, 0}";
},
{
name = top;
position = "{310, 517}";
}
);
layerId = "9EC2A313-F861-4A0B-B22D-531AADAE0B73";
name = ItalicBlack.bubble;
shapes = (
{
closed = 1;
nodes = (
(376,-34,o),
(485,54,o),
(485,181,cs),
(485,305,o),
(382,330,o),
(292,351,cs),
(275,355,o),
(269,359,o),
(269,366,cs),
(269,372,o),
(281,376,o),
(298,376,cs),
(330,376,o),
(379,356,o),
(415,329,c),
(521,474,l),
(453,525,o),
(375,551,o),
(298,551,cs),
(148,551,o),
(35,457,o),
(35,332,cs),
(35,213,o),
(133,190,o),
(229,168,c),
(243,164,o),
(254,158,o),
(254,153,cs),
(254,148,o),
(241,144,o),
(224,144,cs),
(177,144,o),
(115,167,o),
(79,196,c),
(-36,54,l),
(26,-1,o),
(121,-34,o),
(216,-34,cs)
);
}
);
width = 506;
},
{
anchors = (
{
name = bottom;
position = "{202, 0}";
},
{
name = top;
position = "{310, 517}";
}
);
layerId = "4574EF20-24B0-4ACA-8F83-7A663124D906";
shapes = (
{
closed = 1;
nodes = (
(356,-12,o),
(466,61,o),
(466,181,cs),
(466,288,o),
(377,309,o),
(287,330,cs),
(235,342,o),
(228,347,o),
(228,356,cs),
(228,375,o),
(259,398,o),
(298,398,cs),
(336,398,o),
(391,375,o),
(428,347,c),
(508,457,l),
(454,496,o),
(383,529,o),
(298,529,cs),
(165,529,o),
(56,449,o),
(56,332,cs),
(56,230,o),
(138,211,o),
(234,189,cs),
(291,176,o),
(294,169,o),
(294,162,cs),
(294,140,o),
(268,122,o),
(224,122,cs),
(176,122,o),
(107,144,o),
(65,179,c),
(-22,71,l),
(33,22,o),
(120,-12,o),
(216,-12,cs)
);
}
);
width = 506;
},
{
anchors = (
{
name = bottom;
position = "{184, 0}";
},
{
name = top;
position = "{292, 517}";
}
);
layerId = "66606BEF-A73D-42AA-BCC4-03AD2ED94557";
associatedMasterId = "F208817E-C060-4D60-AB62-CCF376900793";
name = bubble;
shapes = (
{
closed = 1;
nodes = (
(328,-46,o),
(441,51,o),
(441,168,cs),
(441,244,o),
(392,289,o),
(275,326,cs),
(209,347,o),
(196,370,o),
(196,393,cs),
(196,413,o),
(232,428,o),
(282,428,cs),
(321,428,o),
(362,414,o),
(396,389,c),
(483,495,l),
(428,537,o),
(353,563,o),
(285,563,cs),
(144,563,o),
(42,476,o),
(42,354,cs),
(42,280,o),
(95,235,o),
(216,200,c),
(276,180,o),
(299,163,o),
(299,139,cs),
(299,110,o),
(255,89,o),
(194,89,cs),
(148,89,o),
(99,109,o),
(59,143,c),
(-34,42,l),
(24,-13,o),
(109,-46,o),
(191,-46,cs)
);
}
);
width = 464;
},
{
anchors = (
{
name = bottom;
position = "{184, 0}";
},
{
name = top;
position = "{292, 517}";
}
);
layerId = "F208817E-C060-4D60-AB62-CCF376900793";
shapes = (
{
closed = 1;
nodes = (
(309,-12,o),
(409,70,o),
(409,165,cs),
(409,226,o),
(351,278,o),
(264,294,c),
(197,315,o),
(152,345,o),
(152,382,cs),
(152,423,o),
(206,462,o),
(279,462,cs),
(327,462,o),
(383,443,o),
(418,415,c),
(462,469,l),
(416,505,o),
(345,529,o),
(278,529,cs),
(163,529,o),
(76,457,o),
(76,364,cs),
(76,298,o),
(136,245,o),
(226,232,c),
(290,216,o),
(333,185,o),
(333,147,cs),
(333,101,o),
(269,55,o),
(194,55,cs),
(141,55,o),
(78,80,o),
(36,118,c),
(-11,67,l),
(37,20,o),
(117,-12,o),
(189,-12,cs)
);
}
);
width = 464;
},
{
anchors = (
{
name = bottom;
position = "{199, 0}";
},
{
name = top;
position = "{307, 517}";
}
);
layerId = "E5262BFA-468F-43E5-B452-C67934931082";
name = ItalicThin.bubble;
shapes = (
{
closed = 1;
nodes = (
(341,-61,o),
(458,34,o),
(458,149,cs),
(458,232,o),
(404,286,o),
(285,324,c),
(224,346,o),
(200,365,o),
(200,392,cs),
(200,422,o),
(242,444,o),
(301,444,cs),
(340,444,o),
(382,431,o),
(417,409,c),
(513,505,l),
(455,550,o),
(374,578,o),
(303,578,cs),
(171,578,o),
(56,485,o),
(56,373,cs),
(56,293,o),
(115,240,o),
(236,201,cs),
(304,178,o),
(325,159,o),
(325,133,cs),
(325,109,o),
(269,73,o),
(206,73,cs),
(157,73,o),
(105,93,o),
(63,127,c),
(-29,32,l),
(31,-25,o),
(118,-61,o),
(204,-61,cs)
);
}
);
width = 484;
},
{
anchors = (
{
name = bottom;
position = "{199, 0}";
},
{
name = top;
position = "{307, 517}";
}
);
layerId = "35051489-9DA7-4E90-8534-9CC313302D4A";
shapes = (
{
closed = 1;
nodes = (
(301,-12,o),
(411,53,o),
(411,148,cs),
(411,208,o),
(354,260,o),
(269,278,c),
(192,299,o),
(141,341,o),
(141,386,cs),
(141,441,o),
(219,493,o),
(303,493,cs),
(352,493,o),
(412,473,o),
(452,444,c),
(478,470,l),
(435,505,o),
(365,529,o),
(306,529,cs),
(210,529,o),
(105,466,o),
(105,376,cs),
(105,318,o),
(163,267,o),
(251,248,c),
(325,230,o),
(374,188,o),
(374,138,cs),
(374,70,o),
(284,24,o),
(205,24,cs),
(146,24,o),
(76,51,o),
(29,92,c),
(4,66,l),
(50,19,o),
(128,-12,o),
(198,-12,cs)
);
}
);
width = 484;
}
);
leftKerningGroup = _R_s;
rightKerningGroup = _L_s;
unicode = 115;
},
{
color = 1;
glyphname = germandbls;
layers = (
{
layerId = "9EC2A313-F861-4A0B-B22D-531AADAE0B73";
name = ItalicBlack.bubble;
shapes = (
{
closed = 1;
nodes = (
(270,0,l),
(262,-40,l),
(322,-40,ls),
(503,-40,o),
(635,64,o),
(635,209,cs),
(635,260,o),
(616,308,o),
(583,344,c),
(650,390,o),
(689,461,o),
(689,542,cs),
(689,674,o),
(576,764,o),
(413,764,cs),
(242,764,o),
(86,671,o),
(57,530,cs),
(-54,0,l)
);
}
);
width = 650;
},
{
layerId = "4574EF20-24B0-4ACA-8F83-7A663124D906";
shapes = (
{
closed = 1;
nodes = (
(201,0,l),
(296,455,ls),
(304,494,o),
(347,524,o),
(393,524,cs),
(427,524,o),
(443,512,o),
(443,493,cs),
(443,460,o),
(398,420,o),
(353,420,c),
(358,420,l),
(327,273,l),
(363,273,ls),
(405,273,o),
(426,258,o),
(421,233,cs),
(413,194,o),
(370,163,o),
(328,163,cs),
(304,163,l),
(270,0,l),
(339,0,ls),
(483,0,o),
(612,76,o),
(612,209,cs),
(612,274,o),
(576,328,o),
(519,354,c),
(601,390,o),
(649,459,o),
(649,542,cs),
(649,649,o),
(557,724,o),
(413,724,cs),
(263,724,o),
(143,645,o),
(117,522,cs),
(8,0,l)
);
}
);
width = 650;
},
{
layerId = "66606BEF-A73D-42AA-BCC4-03AD2ED94557";
associatedMasterId = "F208817E-C060-4D60-AB62-CCF376900793";
name = bubble;
shapes = (
{
closed = 1;
nodes = (
(157,0,l),
(147,-48,l),
(232,-48,ls),
(392,-48,o),
(523,73,o),
(523,220,cs),
(523,270,o),
(506,315,o),
(473,352,c),
(543,405,o),
(582,476,o),
(582,558,cs),
(582,676,o),
(490,755,o),
(355,755,cs),
(212,755,o),
(86,667,o),
(59,539,cs),
(-54,0,l)
);
}
);
width = 536;
},
{
layerId = "F208817E-C060-4D60-AB62-CCF376900793";
shapes = (
{
closed = 1;
nodes = (
(82,0,l),
(189,510,ls),
(204,582,o),
(272,636,o),
(350,636,cs),
(414,636,o),
(454,600,o),
(454,547,cs),
(454,470,o),
(377,396,o),
(292,396,cs),
(240,396,l),
(225,325,l),
(295,325,ls),
(369,325,o),
(415,287,o),
(415,229,cs),
(415,145,o),
(332,71,o),
(236,71,cs),
(172,71,l),
(157,0,l),
(247,0,ls),
(378,0,o),
(490,95,o),
(490,220,cs),
(490,281,o),
(456,330,o),
(399,362,c),
(480,404,o),
(534,472,o),
(534,558,cs),
(534,647,o),
(465,707,o),
(355,707,cs),
(236,707,o),
(137,635,o),
(115,529,cs),
(4,0,l)
);
}
);
width = 536;
},
{
layerId = "E5262BFA-468F-43E5-B452-C67934931082";
name = ItalicThin.bubble;
shapes = (
{
closed = 1;
nodes = (
(134,0,l),
(122,-56,l),
(225,-56,ls),
(368,-56,o),
(506,81,o),
(506,224,cs),
(506,273,o),
(490,319,o),
(463,355,c),
(518,406,o),
(557,485,o),
(557,557,cs),
(557,674,o),
(466,763,o),
(346,763,cs),
(218,763,o),
(85,661,o),
(59,535,cs),
(-53,0,l)
);
}
);
width = 518;
},
{
layerId = "35051489-9DA7-4E90-8534-9CC313302D4A";
shapes = (
{
closed = 1;
nodes = (
(49,0,l),
(157,516,ls),
(174,600,o),
(260,671,o),
(344,671,cs),
(415,671,o),
(464,619,o),
(464,552,cs),
(464,459,o),
(382,379,o),
(281,379,cs),
(214,379,l),
(207,343,l),
(282,343,ls),
(370,343,o),
(424,296,o),
(424,228,cs),
(424,132,o),
(322,36,o),
(218,36,cs),
(143,36,l),
(135,0,l),
(234,0,ls),
(347,0,o),
(459,113,o),
(459,224,cs),
(459,285,o),
(427,340,o),
(377,364,c),
(445,392,o),
(501,482,o),
(501,557,cs),
(501,641,o),
(437,707,o),
(346,707,cs),
(245,707,o),
(143,624,o),
(123,524,cs),
(13,0,l)
);
}
);
width = 518;
}
);
leftKerningGroup = _R_germandbls;
rightKerningGroup = _L_germandbls;
unicode = 223;
},
{
color = 1;
glyphname = t;
layers = (
{
anchors = (
{
name = bottom;
position = "{235, 0}";
}
);
layerId = "9EC2A313-F861-4A0B-B22D-531AADAE0B73";
name = ItalicBlack.bubble;
shapes = (
{
closed = 1;
nodes = (
(45,315,l),
(15,173,o),
(13,158,o),
(13,132,cs),
(13,19,o),
(97,-62,o),
(212,-62,cs),
(262,-62,o),
(315,-46,o),
(357,-20,c),
(330,223,l),
(324,218,o),
(312,216,o),
(313,223,cs),
(332,315,l),
(431,315,l),
(473,517,l),
(375,517,l),
(404,659,l),
(118,659,l),
(88,517,l),
(54,517,l),
(12,315,l)
);
}
);
width = 419;
},
{
anchors = (
{
name = bottom;
position = "{195, 0}";
}
);
layerId = "4574EF20-24B0-4ACA-8F83-7A663124D906";
shapes = (
{
closed = 1;
nodes = (
(262,-12,o),
(315,7,o),
(351,36,c),
(336,169,l),
(326,160,o),
(301,148,o),
(279,148,cs),
(263,148,o),
(254,155,o),
(254,175,cs),
(254,193,o),
(261,219,o),
(353,659,c),
(169,659,l),
(73,198,o),
(63,167,o),
(63,132,cs),
(63,48,o),
(123,-12,o),
(212,-12,cs)
);
},
{
closed = 1;
nodes = (
(393,365,l),
(425,517,l),
(74,517,l),
(42,365,l)
);
}
);
width = 419;
},
{
anchors = (
{
name = bottom;
position = "{189, 0}";
}
);
layerId = "66606BEF-A73D-42AA-BCC4-03AD2ED94557";
associatedMasterId = "F208817E-C060-4D60-AB62-CCF376900793";
name = bubble;
shapes = (
{
closed = 1;
nodes = (
(27,0,o),
(93,-65,o),
(186,-65,cs),
(228,-65,o),
(273,-52,o),
(310,-28,c),
(233,122,l),
(224,111,o),
(210,110,o),
(212,119,cs),
(270,397,l),
(394,397,l),
(419,517,l),
(295,517,l),
(324,659,l),
(141,659,l),
(111,517,l),
(54,517,l),
(29,397,l),
(86,397,l),
(73,337,ls),
(29,128,o),
(27,118,o),
(27,92,cs)
);
}
);
width = 365;
},
{
anchors = (
{
name = bottom;
position = "{179, 0}";
}
);
layerId = "F208817E-C060-4D60-AB62-CCF376900793";
shapes = (
{
closed = 1;
nodes = (
(219,-12,o),
(254,-2,o),
(286,19,c),
(256,78,l),
(244,66,o),
(220,55,o),
(194,55,cs),
(171,55,o),
(155,72,o),
(155,100,cs),
(155,110,o),
(150,82,o),
(270,659,c),
(195,659,l),
(86,138,o),
(80,121,o),
(80,92,cs),
(80,31,o),
(121,-12,o),
(186,-12,cs)
);
},
{
closed = 1;
nodes = (
(353,450,l),
(367,517,l),
(84,517,l),
(70,450,l)
);
}
);
width = 365;
},
{
anchors = (
{
name = bottom;
position = "{191, 0}";
}
);
layerId = "E5262BFA-468F-43E5-B452-C67934931082";
name = ItalicThin.bubble;
shapes = (
{
closed = 1;
nodes = (
(115,428,l),
(92,321,ls),
(50,122,o),
(48,111,o),
(48,84,cs),
(48,-4,o),
(105,-68,o),
(189,-68,cs),
(231,-68,o),
(279,-53,o),
(317,-29,c),
(246,101,l),
(227,86,o),
(217,80,o),
(210,80,cs),
(202,80,o),
(196,84,o),
(196,89,cs),
(196,100,o),
(197,104,o),
(232,272,cs),
(265,428,l),
(419,428,l),
(436,517,l),
(283,517,l),
(313,659,l),
(163,659,l),
(133,517,l),
(54,517,l),
(37,428,l)
);
}
);
width = 384;
},
{
anchors = (
{
name = bottom;
position = "{192, 0}";
}
);
layerId = "35051489-9DA7-4E90-8534-9CC313302D4A";
shapes = (
{
closed = 1;
nodes = (
(221,-12,o),
(258,-1,o),
(290,20,c),
(273,51,l),
(250,35,o),
(220,24,o),
(193,24,cs),
(160,24,o),
(140,50,o),
(140,89,cs),
(140,115,o),
(145,126,o),
(256,659,c),
(220,659,l),
(111,135,o),
(104,115,o),
(104,84,cs),
(104,27,o),
(136,-12,o),
(189,-12,cs)
);
},
{
closed = 1;
nodes = (
(355,481,l),
(362,517,l),
(99,517,l),
(92,481,l)
);
}
);
width = 384;
}
);
leftKerningGroup = _R_t;
rightKerningGroup = _L_t;
unicode = 116;
},
{
color = 1;
glyphname = tcaron;
layers = (
{
anchors = (
{
name = _top;
position = "{715, 1239}";
},
{
name = bottom;
position = "{235, 0}";
}
);
layerId = "9EC2A313-F861-4A0B-B22D-531AADAE0B73";
name = ItalicBlack.bubble;
shapes = (
{
closed = 1;
nodes = (
(262,-62,o),
(315,-46,o),
(357,-20,c),
(330,223,l),
(324,218,o),
(312,216,o),
(313,223,cs),
(332,315,l),
(431,315,l),
(468,494,l),
(587,381,l),
(674,446,o),
(723,524,o),
(723,605,cs),
(723,687,o),
(671,749,o),
(596,749,cs),
(521,749,o),
(458,684,o),
(458,607,cs),
(458,569,o),
(470,538,o),
(491,516,c),
(470,503,l),
(473,517,l),
(375,517,l),
(404,659,l),
(118,659,l),
(88,517,l),
(54,517,l),
(12,315,l),
(45,315,l),
(15,173,o),
(13,158,o),
(13,132,cs),
(13,19,o),
(97,-62,o),
(212,-62,cs)
);
}
);
width = 611;
},
{
anchors = (
{
name = bottom;
position = "{225, 0}";
}
);
layerId = "4574EF20-24B0-4ACA-8F83-7A663124D906";
shapes = (
{
closed = 1;
nodes = (
(262,-12,o),
(315,7,o),
(351,36,c),
(336,169,l),
(326,160,o),
(301,148,o),
(279,148,cs),
(263,148,o),
(254,155,o),
(254,175,cs),
(254,193,o),
(261,219,o),
(353,659,c),
(169,659,l),
(73,198,o),
(63,167,o),
(63,132,cs),
(63,48,o),
(123,-12,o),
(212,-12,cs)
);
},
{
closed = 1;
nodes = (
(393,365,l),
(425,517,l),
(74,517,l),
(42,365,l)
);
},
{
closed = 1;
nodes = (
(550,416,l),
(616,463,o),
(673,529,o),
(673,605,cs),
(673,660,o),
(643,699,o),
(596,699,cs),
(550,699,o),
(508,657,o),
(508,607,cs),
(508,566,o),
(527,534,o),
(575,534,c),
(558,510,o),
(532,482,o),
(502,462,c)
);
}
);
width = 611;
},
{
anchors = (
{
name = _top;
position = "{658, 1298}";
},
{
name = bottom;
position = "{189, 0}";
}
);
layerId = "66606BEF-A73D-42AA-BCC4-03AD2ED94557";
associatedMasterId = "F208817E-C060-4D60-AB62-CCF376900793";
name = bubble;
shapes = (
{
closed = 1;
nodes = (
(27,0,o),
(93,-65,o),
(186,-65,cs),
(228,-65,o),
(273,-52,o),
(310,-28,c),
(233,122,l),
(224,111,o),
(210,110,o),
(212,119,cs),
(270,397,l),
(394,397,l),
(419,517,l),
(295,517,l),
(324,659,l),
(141,659,l),
(111,517,l),
(54,517,l),
(29,397,l),
(86,397,l),
(73,337,ls),
(29,128,o),
(27,118,o),
(27,92,cs)
);
},
{
closed = 1;
nodes = (
(524,468,l),
(599,544,o),
(628,583,o),
(628,647,cs),
(628,707,o),
(590,752,o),
(531,752,cs),
(475,752,o),
(428,703,o),
(428,649,cs),
(428,629,o),
(434,610,o),
(444,595,c),
(436,586,o),
(426,577,o),
(416,566,c)
);
}
);
width = 502;
},
{
anchors = (
{
name = bottom;
position = "{189, 0}";
}
);
layerId = "F208817E-C060-4D60-AB62-CCF376900793";
shapes = (
{
closed = 1;
nodes = (
(219,-12,o),
(254,-2,o),
(286,19,c),
(256,78,l),
(244,66,o),
(220,55,o),
(194,55,cs),
(171,55,o),
(155,72,o),
(155,100,cs),
(155,110,o),
(150,82,o),
(270,659,c),
(195,659,l),
(86,138,o),
(80,121,o),
(80,92,cs),
(80,31,o),
(121,-12,o),
(186,-12,cs)
);
},
{
closed = 1;
nodes = (
(353,450,l),
(367,517,l),
(84,517,l),
(70,450,l)
);
},
{
closed = 1;
nodes = (
(485,504,l),
(539,559,o),
(575,595,o),
(575,647,cs),
(575,678,o),
(560,699,o),
(531,699,cs),
(504,699,o),
(481,674,o),
(481,649,cs),
(481,626,o),
(497,608,o),
(519,611,c),
(505,584,o),
(483,557,o),
(455,531,c)
);
}
);
width = 502;
},
{
anchors = (
{
name = _top;
position = "{633, 1313}";
},
{
name = bottom;
position = "{191, 0}";
}
);
layerId = "E5262BFA-468F-43E5-B452-C67934931082";
name = ItalicThin.bubble;
shapes = (
{
closed = 1;
nodes = (
(115,428,l),
(92,321,ls),
(50,122,o),
(48,111,o),
(48,84,cs),
(48,-4,o),
(105,-68,o),
(189,-68,cs),
(231,-68,o),
(279,-53,o),
(317,-29,c),
(246,101,l),
(227,86,o),
(217,80,o),
(210,80,cs),
(202,80,o),
(196,84,o),
(196,89,cs),
(196,100,o),
(197,104,o),
(232,272,cs),
(265,428,l),
(419,428,l),
(436,517,l),
(283,517,l),
(313,659,l),
(163,659,l),
(133,517,l),
(54,517,l),
(37,428,l)
);
},
{
closed = 1;
nodes = (
(493,490,l),
(554,555,o),
(591,616,o),
(591,669,cs),
(591,718,o),
(555,755,o),
(507,755,cs),
(457,755,o),
(417,713,o),
(417,664,cs),
(417,651,o),
(420,639,o),
(425,629,c),
(413,614,o),
(400,599,o),
(383,585,c)
);
}
);
width = 451;
},
{
anchors = (
{
name = bottom;
position = "{191, 0}";
}
);
layerId = "35051489-9DA7-4E90-8534-9CC313302D4A";
shapes = (
{
closed = 1;
nodes = (
(221,-12,o),
(258,-1,o),
(290,20,c),
(273,51,l),
(250,35,o),
(220,24,o),
(193,24,cs),
(160,24,o),
(140,50,o),
(140,89,cs),
(140,115,o),
(145,126,o),
(256,659,c),
(220,659,l),
(111,135,o),
(104,115,o),
(104,84,cs),
(104,27,o),
(136,-12,o),
(189,-12,cs)
);
},
{
closed = 1;
nodes = (
(355,481,l),
(362,517,l),
(99,517,l),
(92,481,l)
);
},
{
closed = 1;
nodes = (
(450,527,l),
(506,586,o),
(535,634,o),
(535,669,cs),
(535,688,o),
(524,699,o),
(507,699,cs),
(488,699,o),
(473,683,o),
(473,664,cs),
(473,649,o),
(483,639,o),
(499,640,c),
(485,612,o),
(458,578,o),
(426,548,c)
);
}
);
width = 451;
}
);
leftKerningGroup = _R_tcaron;
rightKerningGroup = _L_tcaron;
unicode = 357;
},
{
color = 1;
glyphname = u;
layers = (
{
anchors = (
{
name = bottom;
position = "{520, 0}";
},
{
name = top;
position = "{355, 517}";
}
);
layerId = "9EC2A313-F861-4A0B-B22D-531AADAE0B73";
name = ItalicBlack.bubble;
shapes = (
{
closed = 1;
nodes = (
(-16,29,o),
(68,-53,o),
(189,-53,cs),
(250,-53,o),
(304,-34,o),
(346,0,c),
(570,0,l),
(678,517,l),
(55,517,l),
(20,353,ls),
(-10,208,o),
(-16,181,o),
(-16,148,cs)
);
}
);
width = 624;
},
{
anchors = (
{
name = bottom;
position = "{520, 0}";
},
{
name = top;
position = "{355, 517}";
}
);
layerId = "4574EF20-24B0-4ACA-8F83-7A663124D906";
shapes = (
{
closed = 1;
nodes = (
(430,517,l),
(322,0,l),
(515,0,l),
(623,517,l)
);
},
{
closed = 1;
nodes = (
(97,517,l),
(33,212,o),
(25,186,o),
(25,148,cs),
(25,55,o),
(88,-12,o),
(189,-12,cs),
(282,-12,o),
(361,42,o),
(384,130,c),
(372,235,l),
(364,189,o),
(319,148,o),
(269,148,cs),
(237,148,o),
(217,166,o),
(217,200,cs),
(217,215,o),
(220,228,o),
(281,517,c)
);
}
);
width = 624;
},
{
anchors = (
{
name = bottom;
position = "{459, 0}";
},
{
name = top;
position = "{342, 519}";
}
);
layerId = "66606BEF-A73D-42AA-BCC4-03AD2ED94557";
associatedMasterId = "F208817E-C060-4D60-AB62-CCF376900793";
name = bubble;
shapes = (
{
closed = 1;
nodes = (
(-18,22,o),
(68,-61,o),
(193,-61,cs),
(255,-61,o),
(317,-38,o),
(365,0,c),
(491,0,l),
(599,517,l),
(54,517,l),
(39,444,o),
(27,386,o),
(17,342,cs),
(-12,203,o),
(-18,177,o),
(-18,143,cs)
);
}
);
width = 545;
},
{
anchors = (
{
name = bottom;
position = "{459, 0}";
},
{
name = top;
position = "{342, 519}";
}
);
layerId = "F208817E-C060-4D60-AB62-CCF376900793";
shapes = (
{
closed = 1;
nodes = (
(467,517,l),
(359,0,l),
(434,0,l),
(542,517,l)
);
},
{
closed = 1;
nodes = (
(104,517,l),
(39,206,o),
(31,181,o),
(31,143,cs),
(31,51,o),
(93,-12,o),
(193,-12,cs),
(286,-12,o),
(382,54,o),
(404,135,c),
(399,191,l),
(384,119,o),
(296,55,o),
(206,55,cs),
(145,55,o),
(108,94,o),
(108,156,cs),
(108,187,o),
(115,209,o),
(179,517,c)
);
}
);
width = 545;
},
{
anchors = (
{
name = bottom;
position = "{431, 0}";
},
{
name = top;
position = "{336, 517}";
}
);
layerId = "E5262BFA-468F-43E5-B452-C67934931082";
name = ItalicThin.bubble;
shapes = (
{
closed = 1;
nodes = (
(-20,13,o),
(71,-72,o),
(201,-72,cs),
(275,-72,o),
(342,-45,o),
(392,0,c),
(472,0,l),
(580,517,l),
(54,517,l),
(37,437,o),
(25,375,o),
(15,327,cs),
(-18,173,o),
(-20,162,o),
(-20,136,cs)
);
}
);
width = 526;
},
{
anchors = (
{
name = bottom;
position = "{431, 0}";
},
{
name = top;
position = "{336, 517}";
}
);
layerId = "35051489-9DA7-4E90-8534-9CC313302D4A";
shapes = (
{
closed = 1;
nodes = (
(478,517,l),
(370,0,l),
(406,0,l),
(514,517,l)
);
},
{
closed = 1;
nodes = (
(116,517,l),
(45,178,o),
(40,164,o),
(40,136,cs),
(40,48,o),
(102,-12,o),
(201,-12,cs),
(307,-12,o),
(396,57,o),
(416,156,c),
(410,188,l),
(390,93,o),
(307,24,o),
(208,24,cs),
(128,24,o),
(78,72,o),
(78,145,cs),
(78,174,o),
(84,195,o),
(152,517,c)
);
}
);
width = 526;
}
);
leftKerningGroup = _R_u;
rightKerningGroup = _L_u;
unicode = 117;
},
{
color = 1;
glyphname = v;
layers = (
{
layerId = "9EC2A313-F861-4A0B-B22D-531AADAE0B73";
name = ItalicBlack.bubble;
shapes = (
{
closed = 1;
nodes = (
(541,0,l),
(691,517,l),
(54,517,l),
(-7,0,l)
);
}
);
width = 637;
},
{
layerId = "4574EF20-24B0-4ACA-8F83-7A663124D906";
shapes = (
{
closed = 1;
nodes = (
(356,0,l),
(686,517,l),
(484,517,l),
(307,221,l),
(253,517,l),
(59,517,l),
(178,0,l)
);
}
);
width = 637;
},
{
layerId = "66606BEF-A73D-42AA-BCC4-03AD2ED94557";
associatedMasterId = "F208817E-C060-4D60-AB62-CCF376900793";
name = bubble;
shapes = (
{
closed = 1;
nodes = (
(454,0,l),
(619,517,l),
(54,517,l),
(6,0,l)
);
}
);
width = 565;
},
{
layerId = "F208817E-C060-4D60-AB62-CCF376900793";
shapes = (
{
closed = 1;
nodes = (
(266,0,l),
(591,517,l),
(505,517,l),
(246,88,l),
(164,517,l),
(82,517,l),
(194,0,l)
);
}
);
width = 565;
},
{
layerId = "E5262BFA-468F-43E5-B452-C67934931082";
name = ItalicThin.bubble;
shapes = (
{
closed = 1;
nodes = (
(453,0,l),
(638,517,l),
(54,517,l),
(23,0,l)
);
}
);
width = 584;
},
{
layerId = "35051489-9DA7-4E90-8534-9CC313302D4A";
shapes = (
{
closed = 1;
nodes = (
(249,0,l),
(594,517,l),
(553,517,l),
(249,61,l),
(135,517,l),
(98,517,l),
(227,0,l)
);
}
);
width = 584;
}
);
leftKerningGroup = _R_v;
rightKerningGroup = _L_v;
unicode = 118;
},
{
color = 1;
glyphname = w;
layers = (
{
anchors = (
{
name = top;
position = "{476, 517}";
}
);
layerId = "9EC2A313-F861-4A0B-B22D-531AADAE0B73";
name = ItalicBlack.bubble;
shapes = (
{
closed = 1;
nodes = (
(730,0,l),
(904,517,l),
(54,517,l),
(14,0,l)
);
}
);
width = 850;
},
{
anchors = (
{
name = top;
position = "{476, 517}";
}
);
layerId = "4574EF20-24B0-4ACA-8F83-7A663124D906";
shapes = (
{
closed = 1;
nodes = (
(303,0,l),
(428,266,l),
(441,0,l),
(612,0,l),
(896,517,l),
(707,517,l),
(576,259,l),
(555,517,l),
(397,517,l),
(265,259,l),
(243,517,l),
(62,517,l),
(132,0,l)
);
}
);
width = 850;
},
{
anchors = (
{
name = top;
position = "{464, 517}";
}
);
layerId = "66606BEF-A73D-42AA-BCC4-03AD2ED94557";
associatedMasterId = "F208817E-C060-4D60-AB62-CCF376900793";
name = bubble;
shapes = (
{
closed = 1;
nodes = (
(695,0,l),
(877,517,l),
(54,517,l),
(19,0,l)
);
}
);
width = 823;
},
{
anchors = (
{
name = top;
position = "{464, 517}";
}
);
layerId = "F208817E-C060-4D60-AB62-CCF376900793";
shapes = (
{
closed = 1;
nodes = (
(219,0,l),
(445,413,l),
(495,0,l),
(566,0,l),
(848,517,l),
(766,517,l),
(550,100,l),
(496,517,l),
(431,517,l),
(203,100,l),
(161,517,l),
(83,517,l),
(148,0,l)
);
}
);
width = 823;
},
{
anchors = (
{
name = top;
position = "{462, 517}";
}
);
layerId = "E5262BFA-468F-43E5-B452-C67934931082";
name = ItalicThin.bubble;
shapes = (
{
closed = 1;
nodes = (
(692,0,l),
(869,517,l),
(54,517,l),
(16,0,l)
);
}
);
width = 815;
},
{
anchors = (
{
name = top;
position = "{462, 517}";
}
);
layerId = "35051489-9DA7-4E90-8534-9CC313302D4A";
shapes = (
{
closed = 1;
nodes = (
(206,0,l),
(448,450,l),
(502,0,l),
(547,0,l),
(824,517,l),
(787,517,l),
(534,48,l),
(477,517,l),
(446,517,l),
(193,48,l),
(136,517,l),
(99,517,l),
(161,0,l)
);
}
);
width = 815;
}
);
leftKerningGroup = _R_w;
rightKerningGroup = _L_w;
unicode = 119;
},
{
color = 1;
glyphname = x;
layers = (
{
layerId = "9EC2A313-F861-4A0B-B22D-531AADAE0B73";
name = ItalicBlack.bubble;
shapes = (
{
closed = 1;
nodes = (
(534,0,l),
(537,264,l),
(636,517,l),
(67,517,l),
(56,267,l),
(-54,0,l)
);
}
);
width = 588;
},
{
layerId = "4574EF20-24B0-4ACA-8F83-7A663124D906";
shapes = (
{
closed = 1;
nodes = (
(524,0,l),
(275,517,l),
(75,517,l),
(325,0,l)
);
},
{
closed = 1;
nodes = (
(158,0,l),
(626,517,l),
(423,517,l),
(-46,0,l)
);
}
);
width = 588;
},
{
layerId = "66606BEF-A73D-42AA-BCC4-03AD2ED94557";
associatedMasterId = "F208817E-C060-4D60-AB62-CCF376900793";
name = bubble;
shapes = (
{
closed = 1;
nodes = (
(490,0,l),
(478,262,l),
(592,517,l),
(64,517,l),
(70,265,l),
(-54,0,l)
);
}
);
width = 544;
},
{
layerId = "F208817E-C060-4D60-AB62-CCF376900793";
shapes = (
{
closed = 1;
nodes = (
(461,0,l),
(178,517,l),
(92,517,l),
(376,0,l)
);
},
{
closed = 1;
nodes = (
(65,0,l),
(563,517,l),
(473,517,l),
(-26,0,l)
);
}
);
width = 544;
},
{
layerId = "E5262BFA-468F-43E5-B452-C67934931082";
name = ItalicThin.bubble;
shapes = (
{
closed = 1;
nodes = (
(477,0,l),
(459,263,l),
(578,517,l),
(63,517,l),
(75,265,l),
(-54,0,l)
);
}
);
width = 531;
},
{
layerId = "35051489-9DA7-4E90-8534-9CC313302D4A";
shapes = (
{
closed = 1;
nodes = (
(433,0,l),
(149,517,l),
(107,517,l),
(390,0,l)
);
},
{
closed = 1;
nodes = (
(35,0,l),
(534,517,l),
(488,517,l),
(-10,0,l)
);
}
);
width = 531;
}
);
leftKerningGroup = _R_x;
rightKerningGroup = _L_x;
unicode = 120;
},
{
color = 1;
glyphname = y;
layers = (
{
anchors = (
{
name = top;
position = "{363, 517}";
}
);
layerId = "9EC2A313-F861-4A0B-B22D-531AADAE0B73";
name = ItalicBlack.bubble;
shapes = (
{
closed = 1;
nodes = (
(276,-230,o),
(399,-182,o),
(458,-28,cs),
(668,517,l),
(54,517,l),
(41,27,l),
(-55,-180,l),
(-6,-209,o),
(66,-230,o),
(121,-230,cs)
);
}
);
width = 614;
},
{
anchors = (
{
name = top;
position = "{363, 517}";
}
);
layerId = "4574EF20-24B0-4ACA-8F83-7A663124D906";
shapes = (
{
closed = 1;
nodes = (
(207,-180,o),
(291,-123,o),
(356,-11,cs),
(661,517,l),
(463,517,l),
(295,198,l),
(257,517,l),
(64,517,l),
(162,-7,l),
(145,-20,l),
(140,-29,o),
(106,-43,o),
(85,-43,cs),
(68,-43,o),
(44,-34,o),
(19,-18,c),
(-35,-134,l),
(4,-159,o),
(69,-180,o),
(121,-180,cs)
);
}
);
width = 614;
},
{
anchors = (
{
name = top;
position = "{344, 517}";
}
);
layerId = "66606BEF-A73D-42AA-BCC4-03AD2ED94557";
associatedMasterId = "F208817E-C060-4D60-AB62-CCF376900793";
name = bubble;
shapes = (
{
closed = 1;
nodes = (
(235,-233,o),
(354,-155,o),
(402,-36,cs),
(626,517,l),
(54,517,l),
(29,-50,l),
(-37,-211,l),
(-8,-225,o),
(29,-233,o),
(64,-233,cs)
);
}
);
width = 572;
},
{
anchors = (
{
name = top;
position = "{344, 517}";
}
);
layerId = "F208817E-C060-4D60-AB62-CCF376900793";
shapes = (
{
closed = 1;
nodes = (
(131,-180,o),
(188,-149,o),
(242,-61,cs),
(598,517,l),
(515,517,l),
(254,87,l),
(163,517,l),
(82,517,l),
(198,-2,l),
(153,-63,l),
(126,-99,o),
(100,-112,o),
(64,-112,cs),
(46,-112,o),
(25,-109,o),
(9,-100,c),
(-17,-162,l),
(5,-173,o),
(32,-180,o),
(64,-180,cs)
);
}
);
width = 572;
},
{
anchors = (
{
name = top;
position = "{347, 517}";
}
);
layerId = "E5262BFA-468F-43E5-B452-C67934931082";
name = ItalicThin.bubble;
shapes = (
{
closed = 1;
nodes = (
(216,-236,o),
(342,-176,o),
(399,-39,cs),
(632,517,l),
(54,517,l),
(10,-75,l),
(-49,-214,l),
(-20,-228,o),
(18,-236,o),
(54,-236,cs)
);
}
);
width = 578;
},
{
anchors = (
{
name = top;
position = "{347, 517}";
}
);
layerId = "35051489-9DA7-4E90-8534-9CC313302D4A";
shapes = (
{
closed = 1;
nodes = (
(122,-180,o),
(180,-146,o),
(222,-77,cs),
(588,517,l),
(549,517,l),
(244,25,l),
(137,517,l),
(98,517,l),
(216,-21,l),
(169,-93,l),
(145,-124,o),
(101,-144,o),
(56,-144,cs),
(32,-144,o),
(9,-138,o),
(-12,-127,c),
(-27,-162,l),
(-6,-173,o),
(23,-180,o),
(54,-180,cs)
);
}
);
width = 578;
}
);
leftKerningGroup = _R_y;
rightKerningGroup = _L_y;
unicode = 121;
},
{
color = 1;
glyphname = z;
layers = (
{
anchors = (
{
name = top;
position = "{338, 517}";
}
);
layerId = "9EC2A313-F861-4A0B-B22D-531AADAE0B73";
name = ItalicBlack.bubble;
shapes = (
{
closed = 1;
nodes = (
(504,0,l),
(612,517,l),
(54,517,l),
(-54,0,l)
);
}
);
width = 558;
},
{
anchors = (
{
name = top;
position = "{338, 517}";
}
);
layerId = "4574EF20-24B0-4ACA-8F83-7A663124D906";
shapes = (
{
closed = 1;
nodes = (
(465,0,l),
(499,160,l),
(269,160,l),
(544,384,l),
(571,517,l),
(99,517,l),
(66,357,l),
(286,357,l),
(10,133,l),
(-15,0,l)
);
}
);
width = 558;
},
{
anchors = (
{
name = top;
position = "{300, 517}";
}
);
layerId = "66606BEF-A73D-42AA-BCC4-03AD2ED94557";
associatedMasterId = "F208817E-C060-4D60-AB62-CCF376900793";
name = bubble;
shapes = (
{
closed = 1;
nodes = (
(426,0,l),
(534,517,l),
(54,517,l),
(-54,0,l)
);
}
);
width = 480;
},
{
anchors = (
{
name = top;
position = "{300, 517}";
}
);
layerId = "F208817E-C060-4D60-AB62-CCF376900793";
shapes = (
{
closed = 1;
nodes = (
(390,0,l),
(405,71,l),
(98,71,l),
(485,458,l),
(496,517,l),
(96,517,l),
(81,446,l),
(379,446,l),
(-6,59,l),
(-17,0,l)
);
}
);
width = 480;
},
{
anchors = (
{
name = top;
position = "{306, 517}";
}
);
layerId = "E5262BFA-468F-43E5-B452-C67934931082";
name = ItalicThin.bubble;
shapes = (
{
closed = 1;
nodes = (
(448,0,l),
(556,517,l),
(54,517,l),
(-54,0,l)
);
}
);
width = 502;
},
{
anchors = (
{
name = top;
position = "{306, 517}";
}
);
layerId = "35051489-9DA7-4E90-8534-9CC313302D4A";
shapes = (
{
closed = 1;
nodes = (
(401,0,l),
(409,36,l),
(49,36,l),
(501,487,l),
(507,517,l),
(107,517,l),
(100,481,l),
(452,481,l),
(-1,30,l),
(-6,0,l)
);
}
);
width = 502;
}
);
leftKerningGroup = _R_z;
rightKerningGroup = _L_z;
unicode = 122;
},
{
color = 1;
glyphname = a;
layers = (
{
anchors = (
{
name = bottom;
position = "{478, 0}";
},
{
name = top;
position = "{326, 517}";
}
);
layerId = "9EC2A313-F861-4A0B-B22D-531AADAE0B73";
name = ItalicBlack.bubble;
shapes = (
{
closed = 1;
nodes = (
(-22,40,o),
(58,-27,o),
(170,-27,cs),
(209,-27,o),
(247,-17,o),
(280,0,c),
(518,0,l),
(550,153,l),
(582,306,o),
(585,320,o),
(585,347,cs),
(585,478,o),
(483,569,o),
(337,569,cs),
(257,569,o),
(171,548,o),
(82,508,c),
(151,328,l),
(49,301,o),
(-22,226,o),
(-22,135,cs)
);
}
);
width = 572;
},
{
anchors = (
{
name = bottom;
position = "{478, 0}";
},
{
name = top;
position = "{326, 517}";
}
);
layerId = "4574EF20-24B0-4ACA-8F83-7A663124D906";
shapes = (
{
closed = 1;
nodes = (
(478,0,l),
(539,292,o),
(546,316,o),
(546,347,cs),
(546,459,o),
(457,529,o),
(337,529,cs),
(256,529,o),
(175,507,o),
(96,471,c),
(144,343,l),
(183,362,o),
(227,376,o),
(278,376,cs),
(331,376,o),
(360,362,o),
(360,329,cs),
(360,322,o),
(368,362,o),
(293,0,c)
);
},
{
closed = 1;
nodes = (
(244,-12,o),
(327,27,o),
(363,106,c),
(326,171,l),
(318,141,o),
(272,112,o),
(218,112,cs),
(193,112,o),
(177,121,o),
(177,137,cs),
(177,171,o),
(221,208,o),
(267,208,cs),
(291,208,o),
(319,205,o),
(340,192,c),
(399,270,l),
(352,304,o),
(296,325,o),
(240,325,cs),
(114,325,o),
(-7,252,o),
(-7,135,cs),
(-7,48,o),
(66,-12,o),
(170,-12,cs)
);
}
);
width = 572;
},
{
anchors = (
{
name = bottom;
position = "{424, 0}";
},
{
name = top;
position = "{326, 517}";
}
);
layerId = "66606BEF-A73D-42AA-BCC4-03AD2ED94557";
associatedMasterId = "F208817E-C060-4D60-AB62-CCF376900793";
name = bubble;
shapes = (
{
closed = 1;
nodes = (
(-24,22,o),
(54,-44,o),
(170,-44,cs),
(225,-44,o),
(279,-28,o),
(324,0,c),
(473,0,l),
(512,187,ls),
(538,312,o),
(543,335,o),
(543,371,cs),
(543,499,o),
(458,577,o),
(319,577,cs),
(259,577,o),
(185,559,o),
(109,525,c),
(166,372,l),
(234,404,o),
(276,417,o),
(312,417,cs),
(358,417,o),
(373,403,o),
(373,365,cs),
(373,358,o),
(373,353,o),
(371,340,c),
(328,351,o),
(285,357,o),
(244,357,cs),
(96,357,o),
(-24,253,o),
(-24,121,cs)
);
}
);
width = 527;
},
{
anchors = (
{
name = bottom;
position = "{424, 0}";
},
{
name = top;
position = "{326, 517}";
}
);
layerId = "F208817E-C060-4D60-AB62-CCF376900793";
shapes = (
{
closed = 1;
nodes = (
(424,0,l),
(488,311,o),
(495,328,o),
(495,371,cs),
(495,465,o),
(439,529,o),
(319,529,cs),
(272,529,o),
(208,517,o),
(126,480,c),
(149,417,l),
(200,441,o),
(257,465,o),
(312,465,cs),
(397,465,o),
(421,418,o),
(421,365,cs),
(421,333,o),
(418,331,o),
(349,0,c)
);
},
{
closed = 1;
nodes = (
(250,-12,o),
(353,32,o),
(392,120,c),
(382,165,l),
(348,92,o),
(257,54,o),
(186,54,cs),
(124,54,o),
(81,81,o),
(81,130,cs),
(81,205,o),
(166,262,o),
(253,262,cs),
(321,262,o),
(382,251,o),
(433,231,c),
(439,283,l),
(383,307,o),
(314,325,o),
(244,325,cs),
(123,325,o),
(8,243,o),
(8,121,cs),
(8,39,o),
(73,-12,o),
(170,-12,cs)
);
}
);
width = 527;
},
{
anchors = (
{
name = bottom;
position = "{421, 0}";
},
{
name = top;
position = "{328, 517}";
}
);
layerId = "E5262BFA-468F-43E5-B452-C67934931082";
name = ItalicThin.bubble;
shapes = (
{
closed = 1;
nodes = (
(-24,14,o),
(60,-59,o),
(181,-59,cs),
(251,-59,o),
(322,-37,o),
(378,0,c),
(481,0,l),
(519,180,ls),
(547,311,o),
(552,335,o),
(552,370,cs),
(552,501,o),
(464,588,o),
(330,588,cs),
(267,588,o),
(189,569,o),
(124,536,c),
(173,390,l),
(223,419,o),
(275,434,o),
(323,434,cs),
(376,434,o),
(397,414,o),
(397,365,cs),
(397,353,l),
(352,365,o),
(306,372,o),
(267,372,cs),
(105,372,o),
(-24,262,o),
(-24,121,cs)
);
}
);
width = 536;
},
{
anchors = (
{
name = bottom;
position = "{421, 0}";
},
{
name = top;
position = "{328, 517}";
}
);
layerId = "35051489-9DA7-4E90-8534-9CC313302D4A";
shapes = (
{
closed = 1;
nodes = (
(421,0,l),
(486,311,o),
(493,331,o),
(493,370,cs),
(493,465,o),
(435,529,o),
(330,529,cs),
(277,529,o),
(207,513,o),
(143,480,c),
(154,447,l),
(208,476,o),
(269,493,o),
(323,493,cs),
(421,493,o),
(456,434,o),
(456,365,cs),
(456,329,o),
(452,320,o),
(385,0,c)
);
},
{
closed = 1;
nodes = (
(268,-12,o),
(389,35,o),
(428,122,c),
(419,163,l),
(380,70,o),
(267,24,o),
(187,24,cs),
(112,24,o),
(59,66,o),
(59,127,cs),
(59,221,o),
(158,289,o),
(270,289,cs),
(333,289,o),
(401,269,o),
(452,249,c),
(456,283,l),
(400,307,o),
(330,325,o),
(267,325,cs),
(137,325,o),
(23,241,o),
(23,121,cs),
(23,41,o),
(86,-12,o),
(181,-12,cs)
);
}
);
width = 536;
}
);
leftKerningGroup = _R_a.alt;
rightKerningGroup = _L_a.alt;
unicode = 97;
},
{
color = 1;
export = 0;
glyphname = ae_upper;
layers = (
{
anchors = (
{
name = _ae_upper;
position = "{552, 687}";
}
);
layerId = "4574EF20-24B0-4ACA-8F83-7A663124D906";
shapes = (
{
closed = 1;
nodes = (
(185,0,l),
(725,687,l),
(497,687,l),
(-43,0,l)
);
},
{
closed = 1;
nodes = (
(531,92,l),
(560,235,l),
(241,235,l),
(212,92,l)
);
}
);
width = 593;
},
{
anchors = (
{
name = _ae_upper;
position = "{483, 687}";
}
);
layerId = "F208817E-C060-4D60-AB62-CCF376900793";
shapes = (
{
closed = 1;
nodes = (
(42,0,l),
(581,687,l),
(489,687,l),
(-51,0,l)
);
},
{
closed = 1;
nodes = (
(448,156,l),
(463,230,l),
(144,230,l),
(129,156,l)
);
}
);
width = 489;
},
{
anchors = (
{
name = _ae_upper;
position = "{497, 687}";
}
);
layerId = "35051489-9DA7-4E90-8534-9CC313302D4A";
shapes = (
{
closed = 1;
nodes = (
(-20,0,l),
(519,687,l),
(477,687,l),
(-63,0,l)
);
},
{
closed = 1;
nodes = (
(408,175,l),
(415,211,l),
(111,211,l),
(104,175,l)
);
}
);
width = 434;
}
);
},
{
color = 1;
export = 0;
glyphname = k_arms;
layers = (
{
anchors = (
{
name = k_arms;
position = "{6, 108}";
}
);
layerId = "4574EF20-24B0-4ACA-8F83-7A663124D906";
shapes = (
{
closed = 1;
nodes = (
(341,0,l),
(220,294,l),
(449,517,l),
(229,517,l),
(47,324,l),
(6,108,l),
(73,171,l),
(130,0,l)
);
}
);
width = 409;
},
{
anchors = (
{
name = k_arms;
position = "{-5, 127}";
}
);
layerId = "F208817E-C060-4D60-AB62-CCF376900793";
shapes = (
{
closed = 1;
nodes = (
(342,0,l),
(182,280,l),
(465,517,l),
(367,517,l),
(13,221,l),
(-5,127,l),
(120,229,l),
(251,0,l)
);
}
);
width = 419;
},
{
anchors = (
{
name = k_arms;
position = "{-24, 125}";
}
);
layerId = "35051489-9DA7-4E90-8534-9CC313302D4A";
shapes = (
{
closed = 1;
nodes = (
(320,0,l),
(159,280,l),
(441,517,l),
(389,517,l),
(-14,177,l),
(-24,125,l),
(130,255,l),
(275,0,l)
);
}
);
width = 393;
}
);
},
{
color = 1;
export = 0;
glyphname = thorn_stem;
layers = (
{
anchors = (
{
name = loop_right;
position = "{248, 247}";
}
);
layerId = "4574EF20-24B0-4ACA-8F83-7A663124D906";
shapes = (
{
closed = 1;
nodes = (
(161,-172,l),
(342,699,l),
(149,699,l),
(-32,-172,l)
);
}
);
width = 308;
},
{
anchors = (
{
name = loop_right;
position = "{160, 253}";
}
);
layerId = "F208817E-C060-4D60-AB62-CCF376900793";
shapes = (
{
closed = 1;
nodes = (
(72,-172,l),
(253,699,l),
(178,699,l),
(-3,-172,l)
);
}
);
width = 248;
},
{
anchors = (
{
name = loop_right;
position = "{138, 257}";
}
);
layerId = "35051489-9DA7-4E90-8534-9CC313302D4A";
shapes = (
{
closed = 1;
nodes = (
(48,-172,l),
(229,699,l),
(193,699,l),
(12,-172,l)
);
}
);
width = 239;
}
);
},
{
color = 1;
glyphname = zero;
layers = (
{
layerId = "9EC2A313-F861-4A0B-B22D-531AADAE0B73";
name = ItalicBlack.bubble;
shapes = (
{
closed = 1;
nodes = (
(557,-50,o),
(750,163,o),
(750,422,cs),
(750,612,o),
(628,737,o),
(442,737,cs),
(205,737,o),
(12,524,o),
(12,265,cs),
(12,75,o),
(134,-50,o),
(319,-50,cs)
);
}
);
width = 727;
},
{
layerId = "4574EF20-24B0-4ACA-8F83-7A663124D906";
shapes = (
{
closed = 1;
nodes = (
(549,-12,o),
(717,194,o),
(717,422,cs),
(717,588,o),
(614,699,o),
(447,699,cs),
(223,699,o),
(55,494,o),
(55,265,cs),
(55,99,o),
(158,-12,o),
(324,-12,cs)
);
},
{
closed = 1;
nodes = (
(283,164,o),
(253,206,o),
(253,273,cs),
(253,388,o),
(332,523,o),
(436,523,cs),
(489,523,o),
(519,481,o),
(519,414,cs),
(519,300,o),
(439,164,o),
(336,164,cs)
);
}
);
width = 737;
},
{
layerId = "66606BEF-A73D-42AA-BCC4-03AD2ED94557";
associatedMasterId = "F208817E-C060-4D60-AB62-CCF376900793";
name = bubble;
shapes = (
{
closed = 1;
nodes = (
(525,-70,o),
(717,166,o),
(717,440,cs),
(717,630,o),
(604,757,o),
(432,757,cs),
(203,757,o),
(10,521,o),
(10,248,cs),
(10,57,o),
(123,-70,o),
(295,-70,cs)
);
}
);
width = 692;
},
{
layerId = "F208817E-C060-4D60-AB62-CCF376900793";
shapes = (
{
closed = 1;
nodes = (
(503,-12,o),
(655,218,o),
(655,440,cs),
(655,596,o),
(569,699,o),
(428,699,cs),
(217,699,o),
(64,469,o),
(64,248,cs),
(64,91,o),
(150,-12,o),
(291,-12,cs)
);
},
{
closed = 1;
nodes = (
(199,60,o),
(142,136,o),
(142,251,cs),
(142,422,o),
(259,627,o),
(424,627,cs),
(520,627,o),
(577,552,o),
(577,438,cs),
(577,265,o),
(461,60,o),
(295,60,cs)
);
}
);
width = 684;
},
{
layerId = "E5262BFA-468F-43E5-B452-C67934931082";
name = ItalicThin.bubble;
shapes = (
{
closed = 1;
nodes = (
(501,-78,o),
(691,170,o),
(691,450,cs),
(691,638,o),
(584,765,o),
(421,765,cs),
(198,765,o),
(9,518,o),
(9,237,cs),
(9,47,o),
(115,-78,o),
(279,-78,cs)
);
}
);
width = 664;
},
{
layerId = "35051489-9DA7-4E90-8534-9CC313302D4A";
shapes = (
{
closed = 1;
nodes = (
(485,-12,o),
(629,233,o),
(629,450,cs),
(629,600,o),
(552,699,o),
(425,699,cs),
(222,699,o),
(79,455,o),
(79,237,cs),
(79,86,o),
(155,-12,o),
(283,-12,cs)
);
},
{
closed = 1;
nodes = (
(177,24,o),
(114,110,o),
(114,242,cs),
(114,433,o),
(241,663,o),
(423,663,cs),
(531,663,o),
(594,577,o),
(594,446,cs),
(594,255,o),
(467,24,o),
(285,24,cs)
);
}
);
width = 672;
}
);
unicode = 48;
},
{
color = 1;
glyphname = one;
layers = (
{
layerId = "9EC2A313-F861-4A0B-B22D-531AADAE0B73";
name = ItalicBlack.bubble;
shapes = (
{
closed = 1;
nodes = (
(150,353,l),
(75,0,l),
(437,0,l),
(580,687,l),
(242,687,l),
(63,581,l)
);
}
);
width = 491;
},
{
layerId = "4574EF20-24B0-4ACA-8F83-7A663124D906";
shapes = (
{
closed = 1;
nodes = (
(354,0,l),
(497,687,l),
(341,687,l),
(81,533,l),
(132,399,l),
(259,469,l),
(160,0,l)
);
}
);
width = 491;
},
{
layerId = "66606BEF-A73D-42AA-BCC4-03AD2ED94557";
associatedMasterId = "F208817E-C060-4D60-AB62-CCF376900793";
name = bubble;
shapes = (
{
closed = 1;
nodes = (
(153,466,l),
(55,0,l),
(301,0,l),
(444,687,l),
(200,687,l),
(91,622,l)
);
}
);
width = 355;
},
{
layerId = "F208817E-C060-4D60-AB62-CCF376900793";
shapes = (
{
closed = 1;
nodes = (
(223,0,l),
(366,687,l),
(303,687,l),
(111,572,l),
(134,514,l),
(269,592,l),
(145,0,l)
);
}
);
width = 355;
},
{
layerId = "E5262BFA-468F-43E5-B452-C67934931082";
name = ItalicThin.bubble;
shapes = (
{
closed = 1;
nodes = (
(311,0,l),
(454,687,l),
(203,687,l),
(106,633,l),
(170,481,l),
(70,0,l)
);
}
);
width = 365;
},
{
layerId = "35051489-9DA7-4E90-8534-9CC313302D4A";
shapes = (
{
closed = 1;
nodes = (
(222,0,l),
(365,687,l),
(336,687,l),
(131,572,l),
(144,542,l),
(320,640,l),
(186,0,l)
);
}
);
width = 365;
}
);
unicode = 49;
},
{
color = 1;
glyphname = two;
layers = (
{
layerId = "9EC2A313-F861-4A0B-B22D-531AADAE0B73";
name = ItalicBlack.bubble;
shapes = (
{
closed = 1;
nodes = (
(606,0,l),
(652,223,l),
(529,223,l),
(643,303,o),
(694,390,o),
(694,502,cs),
(694,649,o),
(576,749,o),
(404,749,cs),
(282,749,o),
(171,702,o),
(72,609,c),
(237,397,l),
(277,432,o),
(308,453,o),
(336,464,cs),
(359,473,o),
(392,464,o),
(362,436,cs),
(346,421,o),
(324,405,o),
(295,387,cs),
(-14,187,l),
(-53,0,l)
);
}
);
width = 660;
},
{
layerId = "4574EF20-24B0-4ACA-8F83-7A663124D906";
shapes = (
{
closed = 1;
nodes = (
(550,0,l),
(586,173,l),
(335,173,l),
(440,226,l),
(562,296,o),
(644,374,o),
(644,502,cs),
(644,617,o),
(553,699,o),
(404,699,cs),
(297,699,o),
(197,659,o),
(103,569,c),
(206,437,l),
(268,490,o),
(322,523,o),
(388,523,cs),
(422,523,o),
(444,510,o),
(444,485,cs),
(444,432,o),
(385,385,o),
(322,345,cs),
(31,157,l),
(1,0,l)
);
}
);
width = 660;
},
{
layerId = "66606BEF-A73D-42AA-BCC4-03AD2ED94557";
associatedMasterId = "F208817E-C060-4D60-AB62-CCF376900793";
name = bubble;
shapes = (
{
closed = 1;
nodes = (
(526,0,l),
(553,127,l),
(303,127,l),
(384,185,ls),
(552,309,o),
(625,412,o),
(625,535,cs),
(625,663,o),
(525,752,o),
(385,752,cs),
(272,752,o),
(170,704,o),
(82,608,c),
(207,482,l),
(265,547,o),
(320,576,o),
(379,576,cs),
(418,576,o),
(440,558,o),
(440,517,cs),
(440,474,o),
(387,406,o),
(274,324,cs),
(-33,98,l),
(-53,0,l)
);
}
);
width = 580;
},
{
layerId = "F208817E-C060-4D60-AB62-CCF376900793";
shapes = (
{
closed = 1;
nodes = (
(471,0,l),
(487,74,l),
(139,74,l),
(353,228,ls),
(472,316,o),
(572,411,o),
(572,535,cs),
(572,636,o),
(492,699,o),
(385,699,cs),
(280,699,o),
(194,651,o),
(120,570,c),
(169,520,l),
(228,584,o),
(296,629,o),
(379,629,cs),
(441,629,o),
(493,593,o),
(493,529,cs),
(493,438,o),
(402,352,o),
(305,281,cs),
(10,65,l),
(-2,0,l)
);
}
);
width = 580;
},
{
layerId = "E5262BFA-468F-43E5-B452-C67934931082";
name = ItalicThin.bubble;
shapes = (
{
closed = 1;
nodes = (
(546,0,l),
(567,102,l),
(277,102,l),
(395,187,ls),
(553,302,o),
(634,418,o),
(634,538,cs),
(634,670,o),
(534,765,o),
(396,765,cs),
(288,765,o),
(176,709,o),
(90,614,c),
(210,498,l),
(269,562,o),
(338,599,o),
(397,599,cs),
(441,599,o),
(466,575,o),
(466,535,cs),
(466,477,o),
(412,407,o),
(297,322,cs),
(-38,77,l),
(-53,0,l)
);
}
);
width = 600;
},
{
layerId = "35051489-9DA7-4E90-8534-9CC313302D4A";
shapes = (
{
closed = 1;
nodes = (
(478,0,l),
(486,36,l),
(72,36,l),
(356,240,ls),
(470,323,o),
(568,425,o),
(568,538,cs),
(568,626,o),
(505,699,o),
(396,699,cs),
(315,699,o),
(219,659,o),
(138,568,c),
(163,544,l),
(235,623,o),
(321,665,o),
(397,665,cs),
(485,665,o),
(532,604,o),
(532,535,cs),
(532,436,o),
(441,346,o),
(336,269,cs),
(22,39,l),
(14,0,l)
);
}
);
width = 600;
}
);
unicode = 50;
},
{
color = 1;
glyphname = three;
layers = (
{
layerId = "9EC2A313-F861-4A0B-B22D-531AADAE0B73";
name = ItalicBlack.bubble;
shapes = (
{
closed = 1;
nodes = (
(-35,75,l),
(33,-11,o),
(142,-57,o),
(275,-57,cs),
(478,-57,o),
(633,58,o),
(633,216,cs),
(633,268,o),
(613,313,o),
(578,346,c),
(645,389,o),
(683,454,o),
(683,532,cs),
(683,661,o),
(570,743,o),
(397,743,cs),
(276,743,o),
(169,701,o),
(79,620,c),
(195,451,l),
(154,254,l)
);
}
);
width = 647;
},
{
layerId = "4574EF20-24B0-4ACA-8F83-7A663124D906";
shapes = (
{
closed = 1;
nodes = (
(438,-13,o),
(589,73,o),
(589,216,cs),
(589,289,o),
(539,336,o),
(479,350,c),
(574,377,o),
(639,439,o),
(639,532,cs),
(639,629,o),
(554,699,o),
(397,699,cs),
(272,699,o),
(178,652,o),
(104,583,c),
(194,453,l),
(245,494,o),
(302,526,o),
(365,526,cs),
(415,526,o),
(441,515,o),
(436,488,cs),
(428,450,o),
(388,425,o),
(324,425,cs),
(248,425,l),
(214,263,l),
(304,264,ls),
(377,265,o),
(396,257,o),
(396,237,cs),
(396,192,o),
(339,160,o),
(275,160,cs),
(223,160,o),
(164,177,o),
(123,225,c),
(-4,106,l),
(48,38,o),
(138,-13,o),
(275,-13,cs)
);
}
);
width = 647;
},
{
layerId = "66606BEF-A73D-42AA-BCC4-03AD2ED94557";
associatedMasterId = "F208817E-C060-4D60-AB62-CCF376900793";
name = bubble;
shapes = (
{
closed = 1;
nodes = (
(-26,75,l),
(27,-13,o),
(128,-65,o),
(245,-65,cs),
(429,-65,o),
(576,59,o),
(576,216,cs),
(576,267,o),
(556,312,o),
(522,346,c),
(590,393,o),
(629,464,o),
(629,544,cs),
(629,668,o),
(526,752,o),
(379,752,cs),
(273,752,o),
(173,706,o),
(88,620,c),
(185,510,l),
(118,187,l)
);
}
);
width = 590;
},
{
layerId = "F208817E-C060-4D60-AB62-CCF376900793";
shapes = (
{
closed = 1;
nodes = (
(391,-12,o),
(523,82,o),
(523,216,cs),
(523,295,o),
(463,337,o),
(406,350,c),
(503,377,o),
(576,446,o),
(576,544,cs),
(576,637,o),
(498,699,o),
(379,699,cs),
(275,699,o),
(190,649,o),
(124,580,c),
(169,529,l),
(229,588,o),
(293,628,o),
(372,628,cs),
(446,628,o),
(496,589,o),
(496,532,cs),
(496,442,o),
(404,382,o),
(303,383,cs),
(232,384,l),
(217,312,l),
(293,312,ls),
(389,312,o),
(446,282,o),
(446,220,cs),
(446,129,o),
(355,59,o),
(249,59,cs),
(168,59,o),
(110,97,o),
(77,155,c),
(16,108,l),
(53,42,o),
(130,-12,o),
(245,-12,cs)
);
}
);
width = 590;
},
{
layerId = "E5262BFA-468F-43E5-B452-C67934931082";
name = ItalicThin.bubble;
shapes = (
{
closed = 1;
nodes = (
(-17,79,l),
(44,-27,o),
(133,-81,o),
(248,-81,cs),
(420,-81,o),
(578,64,o),
(578,226,cs),
(578,272,o),
(565,314,o),
(541,346,c),
(595,396,o),
(629,467,o),
(629,543,cs),
(629,671,o),
(524,768,o),
(387,768,cs),
(284,768,o),
(186,718,o),
(91,620,c),
(198,505,l),
(125,187,l)
);
}
);
width = 590;
},
{
layerId = "35051489-9DA7-4E90-8534-9CC313302D4A";
shapes = (
{
closed = 1;
nodes = (
(378,-12,o),
(509,99,o),
(509,226,cs),
(509,291,o),
(473,337,o),
(412,351,c),
(500,377,o),
(560,457,o),
(560,543,cs),
(560,631,o),
(487,699,o),
(387,699,cs),
(303,699,o),
(222,657,o),
(138,569,c),
(162,543,l),
(234,623,o),
(307,663,o),
(381,663,cs),
(464,663,o),
(524,607,o),
(524,537,cs),
(524,432,o),
(428,366,o),
(306,366,cs),
(245,366,l),
(237,330,l),
(301,330,ls),
(411,330,o),
(472,290,o),
(472,221,cs),
(472,117,o),
(361,24,o),
(250,24,cs),
(164,24,o),
(104,63,o),
(68,144,c),
(38,121,l),
(87,32,o),
(155,-12,o),
(248,-12,cs)
);
}
);
width = 590;
}
);
unicode = 51;
},
{
color = 1;
glyphname = four;
layers = (
{
layerId = "9EC2A313-F861-4A0B-B22D-531AADAE0B73";
name = ItalicBlack.bubble;
shapes = (
{
closed = 1;
nodes = (
(565,0,l),
(582,78,l),
(654,78,l),
(705,326,l),
(633,326,l),
(708,687,l),
(363,687,l),
(10,307,l),
(-37,78,l),
(298,78,l),
(281,0,l)
);
}
);
width = 692;
},
{
layerId = "4574EF20-24B0-4ACA-8F83-7A663124D906";
shapes = (
{
closed = 1;
nodes = (
(520,0,l),
(546,122,l),
(629,122,l),
(662,282,l),
(579,282,l),
(663,687,l),
(423,687,l),
(34,268,l),
(22,122,l),
(352,122,l),
(326,0,l)
);
},
{
closed = 1;
nodes = (
(430,488,l),
(385,282,l),
(240,282,l)
);
}
);
width = 692;
},
{
layerId = "66606BEF-A73D-42AA-BCC4-03AD2ED94557";
associatedMasterId = "F208817E-C060-4D60-AB62-CCF376900793";
name = bubble;
shapes = (
{
closed = 1;
nodes = (
(317,114,l),
(293,0,l),
(479,0,l),
(503,114,l),
(601,114,l),
(638,291,l),
(540,291,l),
(622,687,l),
(403,687,l),
(2,266,l),
(-30,114,l)
);
}
);
width = 631;
},
{
layerId = "F208817E-C060-4D60-AB62-CCF376900793";
shapes = (
{
closed = 1;
nodes = (
(425,0,l),
(460,167,l),
(563,167,l),
(578,238,l),
(475,238,l),
(568,687,l),
(477,687,l),
(42,232,l),
(40,167,l),
(382,167,l),
(347,0,l)
);
},
{
closed = 1;
nodes = (
(472,593,l),
(397,238,l),
(134,238,l)
);
}
);
width = 631;
},
{
layerId = "E5262BFA-468F-43E5-B452-C67934931082";
name = ItalicThin.bubble;
shapes = (
{
closed = 1;
nodes = (
(320,116,l),
(296,0,l),
(473,0,l),
(497,116,l),
(607,116,l),
(643,290,l),
(533,290,l),
(615,687,l),
(400,687,l),
(0,260,l),
(-30,116,l)
);
}
);
width = 637;
},
{
layerId = "35051489-9DA7-4E90-8534-9CC313302D4A";
shapes = (
{
closed = 1;
nodes = (
(402,0,l),
(441,185,l),
(555,185,l),
(562,221,l),
(448,221,l),
(545,687,l),
(495,687,l),
(59,222,l),
(58,185,l),
(405,185,l),
(366,0,l)
);
},
{
closed = 1;
nodes = (
(501,644,l),
(412,221,l),
(105,221,l)
);
}
);
width = 637;
}
);
unicode = 52;
},
